<?xml version="1.0" encoding="utf-8"?>
<!-- Generator: Adobe Illustrator 24.0.1, SVG Export Plug-In . SVG Version: 6.00 Build 0)  -->
<svg version="1.1" id="Capa_1" xmlns="http://www.w3.org/2000/svg" xmlns:xlink="http://www.w3.org/1999/xlink" x="0px" y="0px"
	 viewBox="0 0 202 202" style="enable-background:new 0 0 202 202;" xml:space="preserve">
<style type="text/css">
	.st0{opacity:0.2027;fill:url(#Oval_Copy_2_1_);enable-background:new    ;}
	.st1{fill:#D1D3D4;}
	.st2{fill:#FFFFFF;}
	.st3{fill:#231F20;}
	.st4{fill:#A7A9AC;}
	.st5{fill:#E7816B;}
</style>
<g id="Group_22">
	
		<linearGradient id="Oval_Copy_2_1_" gradientUnits="userSpaceOnUse" x1="319.637" y1="-94.0675" x2="521.637" y2="-94.0675" gradientTransform="matrix(0 1 -1 0 7.4 -319.9)">
		<stop  offset="0" style="stop-color:#5D0202;stop-opacity:1.000000e-02"/>
		<stop  offset="1" style="stop-color:#5D0202;stop-opacity:0.4976"/>
	</linearGradient>
	<circle id="Oval_Copy_2" class="st0" cx="101.5" cy="100.7" r="101"/>
	<g id="designer_x5F__x28_2_x29__2">
		<g id="designer_x5F__x28_2_x29_">
			<path id="Path" class="st1" d="M192.5,166.2H10.4c-0.2,0-0.4-0.2-0.4-0.4c0-0.2,0.2-0.4,0.4-0.4h182.1c0.2,0,0.4,0.2,0.4,0.4
				C192.9,166,192.7,166.2,192.5,166.2z"/>
			<rect id="Rectangle" x="136.6" y="103.9" class="st2" width="40.6" height="70.1"/>
			<path id="Shape" class="st3" d="M177.3,103.5c0.2,0,0.4,0.2,0.4,0.4v70c0,0.1,0,0.2-0.1,0.3c-0.1,0.1-0.2,0.1-0.3,0.1h-40.6
				c-0.2,0-0.4-0.2-0.4-0.4v-70.1c0-0.2,0.2-0.4,0.4-0.4H177.3z M137,173.6h39.9v-69.3H137V173.6z"/>
			<rect id="Rectangle_2" x="24.6" y="103.9" class="st2" width="40.6" height="70.1"/>
			<path id="Shape_2" class="st3" d="M65.3,103.5c0.2,0,0.4,0.2,0.4,0.4v70c0,0.1,0,0.2-0.1,0.3c-0.1,0.1-0.2,0.1-0.3,0.1H24.6
				c-0.2,0-0.4-0.2-0.4-0.4v-70.1c0-0.2,0.2-0.4,0.4-0.4H65.3z M25,173.6h39.9v-69.3H25V173.6z"/>
			<path id="Path_2" class="st3" d="M144.2,83.6l8,16.2h-21.8L144.2,83.6z"/>
			<path id="Shape_3" class="st3" d="M144.2,83.2c0.1,0,0.2,0.1,0.3,0.2l8,16.2c0.1,0.1,0.1,0.2,0,0.3c-0.1,0.1-0.2,0.2-0.3,0.2
				h-21.7c-0.1,0-0.3-0.1-0.3-0.2c-0.1-0.1,0-0.3,0.1-0.4l13.7-16.2C144,83.2,144.1,83.2,144.2,83.2z M131.2,99.4h20.4l-7.6-15.2
				L131.2,99.4z"/>
			<path id="Path_3" class="st3" d="M82.4,99.8h51.8L153,72.1h-48.9L82.4,99.8z"/>
			<path id="Shape_4" class="st3" d="M153,71.8c0.1,0,0.2,0.1,0.3,0.2c0.1,0.1,0.1,0.3,0,0.4L134.5,100c-0.1,0.1-0.2,0.2-0.3,0.2
				H82.4c-0.1,0-0.3-0.1-0.3-0.2c-0.1-0.1,0-0.3,0-0.4l21.7-27.7c0.1-0.1,0.2-0.1,0.3-0.1H153z M83.1,99.4H134l18.3-26.9h-48.1
				L83.1,99.4z"/>
			<path id="Path_4" class="st2" d="M105.6,74.8L90.1,95h38.4l14.6-20.1H105.6z"/>
			<path id="Shape_5" class="st3" d="M143.1,74.5c0.1,0,0.3,0.1,0.3,0.2c0.1,0.1,0.1,0.3,0,0.4l-14.6,20.1c-0.1,0.1-0.2,0.1-0.3,0.1
				H90.1c-0.1,0-0.3-0.1-0.3-0.2c-0.1-0.1-0.1-0.3,0-0.4l15.5-20.1c0.1-0.1,0.2-0.1,0.3-0.1H143.1z M90.9,94.6h37.5l14.1-19.4h-36.6
				L90.9,94.6z"/>
			<path id="Path_5" class="st1" d="M116.6,91.3c-0.2,0-0.3-0.1-0.3-0.2c-1.9-5.5-4.5-11.5-5.4-11.7c-1.1,0-8.3,6-14.8,11.8
				c-0.1,0.1-0.2,0.1-0.3,0.1c-0.1,0-0.2-0.1-0.2-0.3c0-0.1,0-0.3,0.1-0.3c2.2-2,13.3-12,15.3-12h0.1c1.8,0.3,5,9.4,6,12.2
				c0,0.1,0,0.2,0,0.3c0,0.1-0.1,0.1-0.2,0.2C116.7,91.3,116.7,91.3,116.6,91.3z"/>
			<path id="Path_6" class="st1" d="M128.2,92c-0.2,0-0.3-0.1-0.3-0.3c-1.2-4.4-3-9.2-3.9-9.4c-0.8-0.2-4.7,3.3-7.9,6.7
				c-0.1,0.1-0.4,0.1-0.5,0c-0.1-0.1-0.1-0.4,0-0.5c1.6-1.7,7-7.3,8.6-6.8c1.6,0.5,3.9,8.3,4.3,9.9C128.6,91.8,128.5,92,128.2,92
				L128.2,92z"/>
			<path id="Shape_6" class="st4" d="M139.6,83.9c0.8,0,1.6,0.4,1.6,0.9c0,0.5-0.7,1-1.6,1c-0.9,0-1.6-0.4-1.6-1
				C138,84.3,138.7,83.9,139.6,83.9z M139.6,84.1c-0.8,0-1.4,0.3-1.4,0.8c0,0.4,0.6,0.8,1.4,0.8c0.8,0,1.4-0.4,1.4-0.8
				C140.9,84.4,140.3,84.1,139.6,84.1L139.6,84.1z"/>
			<path id="Path_7" class="st4" d="M145.7,77.8h-3.1c0,0-0.1,0-0.1-0.1c0,0,0-0.1,0.1-0.1h3.1c0,0,0,0,0.1,0
				C145.8,77.6,145.8,77.6,145.7,77.8C145.8,77.7,145.8,77.8,145.7,77.8z"/>
			<path id="Path_8" class="st2" d="M134.2,100.1c-0.1,0-0.1,0-0.2-0.1c-0.2-0.1-0.2-0.3-0.1-0.5l10-13.8c0.1-0.1,0.1-0.1,0.2-0.1
				c0.1,0,0.2,0,0.3,0.1c0.2,0.1,0.2,0.3,0.1,0.5l-10,13.9C134.4,100.1,134.3,100.1,134.2,100.1z"/>
			<path id="Shape_7" class="st1" d="M116.6,76.8c0.9,0,1.6,0.7,1.6,1.6c0,0.9-0.7,1.6-1.6,1.6c-0.9,0-1.6-0.7-1.6-1.6
				C115.1,77.5,115.8,76.8,116.6,76.8z M116.6,77.5c-0.5,0-0.8,0.4-0.8,0.9c0,0.5,0.4,0.9,0.8,0.9c0.5,0,0.8-0.4,0.8-0.9
				c0-0.2-0.1-0.4-0.2-0.6C117.1,77.6,116.9,77.5,116.6,77.5z"/>
			<rect id="Rectangle_3" x="19.2" y="100.4" class="st2" width="159.7" height="6.8"/>
			<path id="Shape_8" class="st3" d="M179,100c0.2,0,0.3,0.2,0.4,0.4v6.8c0,0.2-0.2,0.4-0.4,0.4H19.2c-0.2,0-0.4-0.2-0.4-0.4v-6.8
				c0-0.2,0.2-0.4,0.4-0.4H179z M19.6,106.8h159v-6.1h-159V106.8z"/>
			<path id="Path_9" class="st2" d="M79.3,137.2c0.1,0.5-8.8,32.7-8.8,32.7l12.5,2l14.8-44.5L79.3,137.2z"/>
			<path id="Shape_9" class="st3" d="M97.6,127.1c0.1-0.1,0.3,0,0.4,0c0.1,0.1,0.1,0.2,0.1,0.4L83.4,172c0,0.1-0.2,0.2-0.3,0.2H83
				l-12.5-2c-0.1,0-0.2-0.1-0.2-0.2c0-0.1-0.1-0.2,0-0.3c3.5-12.5,8.7-31.5,8.8-32.6c0-0.1,0.1-0.3,0.2-0.3L97.6,127.1z M79.6,137.4
				c-0.4,2-3.3,12.8-8.7,32.2h0l11.8,1.9l14.4-43.4L79.6,137.4z"/>
			<path id="Path_10" class="st3" d="M69.8,168.5l-1.9,6l29.9,2.3c-1.4-2.8-3.8-5-6.8-6.1c-3.1-1.1-6.5-2.4-6.5-2.4l-1.5,3.6
				L69.8,168.5z"/>
			<path id="Shape_10" class="st3" d="M84.4,168c0.1,0,0.2,0,0.3,0c0,0,3.4,1.3,6.4,2.4c3.1,1.1,5.6,3.4,7,6.3
				c0.1,0.1,0.1,0.2,0,0.3c-0.1,0.1-0.2,0.2-0.4,0.1l-29.9-2.3c-0.1,0-0.2-0.1-0.3-0.2c-0.1-0.1-0.1-0.2,0-0.3l1.9-6
				c0.1-0.2,0.2-0.3,0.4-0.2l13,3.3l1.4-3.3C84.3,168.1,84.4,168,84.4,168z M83.4,172c-0.1,0.2-0.2,0.3-0.4,0.2L70,168.9l-1.7,5.2
				l28.8,2.2c-1.4-2.5-3.6-4.4-6.3-5.4c-2.5-0.9-5.2-1.9-6.1-2.3L83.4,172z"/>
			<path id="Path_11" class="st3" d="M48.8,137.6l-2.1,33.9c0,0-7.2,0.2-9,1.5c-1.8,1.3-3.3,7-3.3,7h2.2c0,0,1.3-4.3,2.7-4.8
				c1.4-0.5,9.6-0.7,9.6-0.7s3.9,1.5,4.6,4.1c0.5,2.1,0.4,2.5,0.4,2.5h2.5c0-1.2-0.2-2.3-0.5-3.5c-0.5-1.4-2.4-3.1-2.4-3.1
				s4.1,0.1,5.5,0.1c1.4,0,2.8,2.6,2.8,2.6h2.7c0,0-2.8-4.7-4.6-5.1s-6.4-1.1-6.4-1.1l-1.3-31.6L48.8,137.6z"/>
			<path id="Shape_11" class="st3" d="M48.6,137.3c0.1-0.1,0.2-0.1,0.3,0l3.4,1.9c0.1,0.1,0.2,0.2,0.2,0.3l1.3,31.3
				c1,0.2,4.6,0.8,6.2,1.1c1.9,0.4,4.5,4.7,4.8,5.2c0.1,0.1,0.1,0.2,0,0.4c-0.1,0.1-0.2,0.2-0.3,0.2h-2.7c-0.1,0-0.2-0.1-0.3-0.2
				c-0.5-0.9-1.6-2.4-2.5-2.4c-1,0-3.3,0-4.6-0.1c0.8,0.7,1.4,1.6,1.8,2.6c0.3,1.2,0.5,2.4,0.5,3.6c0,0.2-0.2,0.3-0.3,0.3h-2.5
				c-0.1,0-0.2-0.1-0.3-0.1c-0.1-0.1-0.1-0.2,0-0.3c0-0.8-0.1-1.6-0.4-2.3c-0.5-2.2-3.8-3.7-4.2-3.9c-2.3,0.1-8.3,0.3-9.4,0.7
				c-0.9,0.3-2,3-2.5,4.5c0,0.1-0.2,0.3-0.3,0.3h-2.3c-0.1,0-0.2-0.1-0.3-0.1c-0.1-0.1-0.1-0.2-0.1-0.3c0.1-0.2,1.5-5.9,3.4-7.2
				c1.7-1.2,7.4-1.5,8.8-1.6l2.1-33.6C48.4,137.5,48.5,137.4,48.6,137.3z M47,171.6c0,0.2-0.2,0.3-0.3,0.3c-2,0.1-7.4,0.5-8.8,1.4
				c-1.3,0.9-2.5,4.5-3,6.3h1.5c0.3-1,1.5-4.3,2.8-4.8c1.3-0.5,9.3-0.7,9.7-0.7h0.1c0.2,0.1,4.1,1.6,4.8,4.4
				c0.2,0.7,0.3,1.5,0.4,2.3H56c0-1-0.2-2-0.5-3c-0.5-1.3-2.2-2.9-2.3-3c-0.1-0.1-0.1-0.3-0.1-0.4c0.1-0.1,0.2-0.2,0.3-0.2
				c0,0,4.1,0.1,5.5,0.1c1.4,0,2.6,2,3,2.6h1.8c-0.9-1.5-2.8-4.1-4-4.3c-1.8-0.3-6.4-1.1-6.4-1.1c-0.2,0-0.3-0.2-0.3-0.3l-1.2-31.4
				l-2.7-1.6L47,171.6z"/>
			<path id="Path_12" class="st2" d="M89.7,116c0,0,28.3,1.5,30,5.6c1.8,4-11.3,48.5-11.3,48.5s13.8,4.8,11.6,5.8
				c-2.3,1-24.9-1-24.9-1l10.7-41.2l-28-1.9L89.7,116z"/>
			<path id="Shape_12" class="st3" d="M89.7,115.6c0.1,0,7.2,0.4,14.4,1.3c14.8,1.8,15.7,3.8,16,4.5c1.7,4-9.9,44.1-11.2,48.4
				c3.8,1.3,11.7,4.3,11.7,5.7c0,0.3-0.2,0.6-0.5,0.6c-1.2,0.3-2.5,0.4-3.7,0.3c-6.6,0-19.5-1.1-21.4-1.3c-0.1,0-0.2-0.1-0.3-0.1
				c-0.1-0.1-0.1-0.2,0-0.3l10.6-40.8l-27.5-1.9c-0.1,0-0.2-0.1-0.3-0.2c-0.1-0.1,0-0.3,0-0.4l11.9-15.8
				C89.5,115.6,89.6,115.6,89.7,115.6z M78.5,131.4l27.3,1.9c0.1,0,0.2,0.1,0.3,0.1c0.1,0.1,0.1,0.2,0.1,0.3l-10.6,40.8
				c6.6,0.6,22.6,1.8,24.3,1c-0.5-0.9-6.3-3.3-11.6-5.1c-0.2-0.1-0.3-0.3-0.2-0.4c3.6-12.3,12.7-45,11.3-48.3
				c-1.4-3.2-21.6-4.9-29.6-5.3L78.5,131.4z"/>
			<path id="Path_13" class="st2" d="M80.1,90.7c0,0,14.5,18.2,20.7,17.7c6.2-0.5,24-22.9,24-22.9c3.2-3.9,6.8-8.7,4.5-14
				c-0.2-0.5-0.6-1.1-1.2-1c-0.2,0-0.5,0.1-0.6,0.3l-2,1.2c0.1-0.5-0.6-0.9-1.2-0.8c-0.5,0.2-0.9,0.6-1.2,1.1
				c-2.1,2.9-3.4,5.7-3.3,9.4L99.1,92.2L90.9,83"/>
			<path id="Path_14" class="st3" d="M100.6,108.7c-6.4,0-20.2-17.1-20.8-17.8c-0.1-0.2-0.1-0.4,0.1-0.5c0.1-0.1,0.4-0.1,0.5,0
				c0.1,0.2,14.1,17.6,20.2,17.6h0.2c6-0.5,23.5-22.6,23.7-22.8c3.3-4,6.7-8.6,4.5-13.7c-0.1-0.2-0.4-0.8-0.8-0.8
				c-0.2,0-0.3,0.1-0.5,0.2l-2,1.2c-0.1,0.1-0.3,0.1-0.4,0c-0.1-0.1-0.2-0.2-0.2-0.3c0-0.1,0-0.2-0.1-0.3c-0.2-0.1-0.4-0.2-0.6-0.1
				c-0.4,0.2-0.8,0.5-1,0.9c-1.7,2.5-3.3,5.3-3.2,9.2c0,0.1-0.1,0.3-0.2,0.3L99.2,92.5c-0.1,0.1-0.3,0-0.4-0.1l-8.2-9.2
				c-0.1-0.1-0.1-0.2-0.1-0.3c0-0.1,0-0.2,0.1-0.3c0.1-0.1,0.4-0.1,0.5,0l8.1,8.9l20.3-10.4c-0.1-3.9,1.6-6.8,3.3-9.4
				c0.3-0.6,0.8-1,1.4-1.2c0.4-0.1,0.9,0,1.2,0.3c0.1,0.1,0.2,0.2,0.2,0.3l1.6-1c0.2-0.2,0.5-0.3,0.8-0.3c0.6,0,1.2,0.4,1.5,1.2
				c2.6,5.9-2.1,11.4-4.6,14.4c-0.7,0.9-17.9,22.5-24.2,23.1L100.6,108.7z"/>
			<path id="Path_15" class="st2" d="M32.6,87.6c0,0-7.5,17-4.7,18.8c2.8,1.8,19.7,0,19.7,0l-1.5-22"/>
			<path id="Path_16" class="st3" d="M34.3,107.5c-3,0-5.7-0.2-6.6-0.9c-0.5-0.3-2-1.3,1.2-10.5c1.5-4.4,3.4-8.7,3.4-8.8
				c0-0.1,0.2-0.2,0.3-0.2c0.1,0,0.3,0,0.3,0.2c0.1,0.1,0.1,0.3,0,0.4c-2.8,6.5-6.7,17.2-4.8,18.4c2.1,1.4,14.2,0.5,19.1,0
				l-1.4-21.7c0-0.2,0.1-0.4,0.3-0.4c0.2,0,0.4,0.1,0.4,0.3l1.5,22c0,0.2-0.1,0.4-0.3,0.4C47.1,106.8,40,107.5,34.3,107.5z"/>
			<path id="Path_17" class="st2" d="M38.7,116.4c0,0-3.7,8.2,0.2,13.3s58,5.8,58,5.8l3.9-19.5l-22.6-3.1l-1.3-6.8L38.7,116.4z"/>
			<path id="Shape_13" class="st3" d="M76.8,105.7c0.1,0,0.2,0,0.3,0c0.1,0.1,0.1,0.1,0.2,0.2l1.3,6.5l22.4,3.1
				c0.1,0,0.2,0.1,0.2,0.1c0.1,0.1,0.1,0.2,0.1,0.3l-3.8,19.6c0,0.2-0.2,0.3-0.3,0.3c-0.1,0-13.7-0.2-27.6-1
				c-18.7-1.1-29.1-2.7-30.7-5c-4-5.2-0.4-13.3-0.3-13.7c0-0.1,0.1-0.2,0.2-0.2L76.8,105.7z M38.9,116.7c-0.5,1.1-3.2,8.3,0.3,12.8
				c3,3.9,38.7,5.4,57.5,5.6l3.8-18.9l-22.3-3c-0.1,0-0.3-0.1-0.3-0.3l-1.2-6.4L38.9,116.7z"/>
			<path id="Path_18" class="st2" d="M60.8,47.7c-0.6-0.3-1-0.8-1.4-1.3c-0.5-0.8-0.9-1.6-1.1-2.5c-1.9-7-1.9-15.9,4.2-20.6
				c3.7-2.8,8.5-3.7,13-2.3c3,1,5.5,5.1,6.9,7.8c1.1,2.2,1.8,4.6,3.1,6.6c1.3,2.1,3.4,3.9,5.8,4c-2,1.1-4.3,1.2-6.4,0.4
				c1,1.3,2.6,1.9,4.2,1.6c-1.4,1.1-3.4,1.1-5.2,0.7c-1.8-0.4-3.5-0.9-5.4-0.7c-2.8,0.3-4.7,2.4-6.9,3.9
				C68.9,47.1,64.1,49.6,60.8,47.7z"/>
			<path id="Shape_14" class="st3" d="M62.3,22.9c3.8-2.9,8.8-3.8,13.3-2.4c3.2,1,5.8,5.4,7.1,8c0.4,0.9,0.8,1.7,1.2,2.6
				c0.5,1.4,1.2,2.7,2,4c0.7,1.1,2.6,3.7,5.5,3.8c0.2,0,0.3,0.1,0.3,0.3c0,0.2,0,0.3-0.2,0.4c-1.6,0.9-3.4,1.2-5.2,0.8
				c0.8,0.5,1.8,0.7,2.8,0.5c0.2,0,0.3,0,0.4,0.2c0.1,0.2,0,0.3-0.1,0.4c-1.3,1-3.1,1.3-5.5,0.8c-0.4-0.1-0.8-0.2-1.3-0.3
				c-1.3-0.4-2.6-0.5-4-0.5c-2,0.2-3.5,1.4-5.1,2.6c-0.5,0.4-1.1,0.8-1.7,1.2c-1.6,1.2-5.2,3.3-8.4,3.3c-1,0-2-0.2-2.8-0.7
				c-0.6-0.4-1.1-0.8-1.5-1.4c-0.6-0.8-1-1.7-1.2-2.7C57,40.5,54.6,28.9,62.3,22.9z M71.3,20.6c-3.1,0-6.1,1-8.5,2.9
				c-7.4,5.7-5,17-4.1,20.3c0.2,0.9,0.6,1.7,1.1,2.4c0.4,0.5,0.8,0.9,1.3,1.2c3.4,2,8.9-1.4,10.5-2.5c0.6-0.4,1.1-0.8,1.6-1.2
				c1.6-1.2,3.2-2.5,5.4-2.8c1.4-0.1,2.9,0.1,4.2,0.5c0.4,0.1,0.8,0.2,1.3,0.3c1.2,0.3,2.4,0.3,3.6,0c-1.2-0.2-2.2-0.8-2.9-1.8
				c-0.1-0.1-0.1-0.3,0-0.4c0.1-0.1,0.3-0.2,0.4-0.1c1.6,0.6,3.4,0.7,5,0.1c-2.1-0.7-3.8-2.1-4.9-4c-0.8-1.3-1.5-2.7-2-4.1
				c-0.4-0.8-0.7-1.7-1.2-2.6c-1-2-3.6-6.6-6.7-7.6C74.1,20.8,72.7,20.6,71.3,20.6z"/>
			<path id="Path_19" class="st2" d="M80,42.7c0,0,1.9,6.1,0.9,6.9c-1,0.9-3.1-0.5-3.1-0.5"/>
			<path id="Path_20" class="st3" d="M80.1,50.2c-0.9-0.1-1.7-0.4-2.4-0.8c-0.1-0.1-0.2-0.2-0.2-0.3c0-0.1,0.1-0.2,0.2-0.3
				c0.1-0.1,0.3,0,0.4,0c0.5,0.3,2,1.1,2.7,0.5c0.5-0.4-0.1-3.7-1-6.5c-0.1-0.2,0-0.4,0.2-0.4c0.2-0.1,0.4,0,0.4,0.2
				c0.5,1.5,1.9,6.4,0.8,7.3C80.9,50.1,80.5,50.2,80.1,50.2z"/>
			<path id="Path_21" class="st2" d="M81.2,35.7c1.6,2.4,0,5.9-0.7,8.3c-1,3.4-2,6.8-3.2,10.1c-0.7,2.1-6.3,0.6-7.1-0.3l-1.5,8.7
				L57,58.4l3.8-10.6c0,0,3.8,1.1,7.2-2.7c3.4-3.8,5.8-13.4,5.8-13.4S79.6,33.4,81.2,35.7z"/>
			<path id="Shape_15" class="st3" d="M73.5,31.5c0.1,0,0.2,0,0.3,0c0.2,0.1,6,1.7,7.7,4.1c1.5,2.1,0.5,5-0.2,7.3
				c-0.1,0.5-0.3,0.9-0.4,1.3c-1,3.4-2,6.8-3.2,10.1c-0.3,0.7-0.9,1.1-1.6,1.2c-1.9,0.2-3.8-0.1-5.5-1L69,62.6
				c0,0.1-0.1,0.2-0.2,0.2c0,0-0.1,0-0.1,0h-0.1l-11.7-4.1c-0.1,0-0.2-0.1-0.2-0.2c0-0.1,0-0.2,0-0.3l3.7-10.6
				c0.1-0.2,0.2-0.3,0.4-0.2c0.2,0,3.6,1,6.8-2.6c3.2-3.6,5.7-13.1,5.7-13.2C73.3,31.6,73.4,31.5,73.5,31.5z M73.9,32.2
				c-0.5,1.8-2.7,9.8-5.8,13.2c-3,3.3-6.2,3-7.2,2.8l-3.5,10l11,3.8l1.4-8.3c0-0.1,0.1-0.2,0.3-0.3c0.1,0,0.3,0,0.4,0.1
				c0.5,0.6,3.6,1.6,5.4,1.2c0.6-0.1,1-0.4,1.1-0.8c1.1-3.3,2.2-6.7,3.2-10.1c0.1-0.4,0.3-0.9,0.4-1.3c0.7-2.2,1.6-4.9,0.3-6.7
				C79.6,34.1,75.2,32.6,73.9,32.2z"/>
			<path id="Path_22" class="st2" d="M78,51.5c0,0-3.1,0.9-3.7-2.2L78,51.5z"/>
			<path id="Path_23" class="st3" d="M77,52c-0.6,0-1.2-0.1-1.7-0.4c-0.8-0.5-1.3-1.3-1.4-2.2c0-0.2,0.1-0.4,0.3-0.4
				c0.2,0,0.4,0.1,0.4,0.3c0.1,0.7,0.5,1.3,1.1,1.7c0.7,0.3,1.5,0.4,2.2,0.2c0.1,0,0.3,0,0.4,0.1c0.1,0.1,0.1,0.2,0.1,0.4
				c0,0.1-0.1,0.2-0.3,0.3C77.7,52,77.4,52,77,52z"/>
			<path id="Path_24" class="st2" d="M72.9,43c0.1-0.9,0-1.8-0.3-2.6c-0.2-0.7-0.4-1.3-0.8-1.9c-0.4-0.6-1-1-1.7-1.1
				c-0.6,0-1.2,0.2-1.6,0.7c-0.4,0.4-0.7,1-0.9,1.6c-0.8,2.6-0.2,5.4,1.5,7.4l-0.1-0.3"/>
			<path id="Path_25" class="st3" d="M69.2,47.4c-0.1,0-0.2,0-0.3-0.1c-1.9-2.1-2.5-5.1-1.6-7.8c0.2-0.6,0.5-1.2,1-1.7
				c0.5-0.5,1.2-0.8,1.9-0.8c0.8,0.1,1.5,0.5,1.9,1.2c0.4,0.6,0.7,1.3,0.8,2c0.4,0.9,0.5,1.9,0.3,2.8c-0.1,0.2-0.2,0.3-0.4,0.3
				c-0.2-0.1-0.3-0.2-0.2-0.4c0.1-0.8,0-1.6-0.3-2.4c-0.2-0.6-0.4-1.2-0.8-1.8c-0.3-0.5-0.8-0.8-1.4-0.9c-0.5,0-1,0.2-1.3,0.6
				c-0.4,0.4-0.7,0.9-0.8,1.4c-0.7,2.3-0.3,4.8,1.2,6.7c0.1,0,0.2,0.1,0.2,0.2l0.1,0.3c0.1,0.2,0,0.4-0.1,0.5
				C69.3,47.4,69.3,47.4,69.2,47.4z"/>
			
				<ellipse id="Oval" transform="matrix(0.2183 -0.9759 0.9759 0.2183 23.5863 108.889)" class="st3" cx="79.8" cy="39.7" rx="1.3" ry="0.5"/>
			<path id="Path_26" class="st3" d="M70.2,53.8c-1.5-1-3-2.1-4.4-3.3c0,0-0.7,6.2,3.5,7.6L70.2,53.8z"/>
			<path id="Shape_16" class="st3" d="M65.7,50.2c0.1,0,0.3,0,0.4,0.1c1.4,1.2,2.8,2.3,4.4,3.3c0.1,0.1,0.2,0.2,0.2,0.4l-0.9,4.3
				c0,0.1-0.1,0.2-0.2,0.2c-0.1,0-0.1,0-0.2,0c0,0-0.1,0-0.1,0c-4.4-1.5-3.8-7.7-3.7-7.9C65.5,50.3,65.6,50.2,65.7,50.2z M66.2,51.9
				c0.1,1.7,0.5,4.6,2.9,5.7l0.8-3.6c-1.3-0.8-2.5-1.8-3.7-2.7L66.2,51.9z"/>
			<path id="Path_27" class="st5" d="M36.5,119.1c0,0,0.6-43.5,7.1-53.5S67,53.4,75,59.3c8,6,4.2,51.6,4.2,51.6
				S53.5,119.1,36.5,119.1z"/>
			<path id="Path_28" class="st5" d="M69.4,56.8c4.3,1.7,8.3,4.1,11.9,7c5.6,4.6,17.3,24.6,17.3,24.6l-15.5,9.4L69.2,80.6L69.4,56.8
				z"/>
			<path id="Path_29" class="st5" d="M50.3,59.5c0,0-8.1,0.9-12.4,9.8c-2.3,4.8-8.3,20.5-8.3,20.5l17.9,2.1L50.3,59.5z"/>
			<path id="Path_30" class="st3" d="M81.9,96.7c-0.1,0-0.2-0.1-0.3-0.1L67.8,77.7c-0.1-0.1-0.1-0.2-0.1-0.3c0-0.1,0.1-0.2,0.1-0.2
				c0.2-0.1,0.4-0.1,0.5,0.1l13.8,18.9c0.1,0.1,0.1,0.3,0,0.4C82.2,96.6,82,96.7,81.9,96.7z"/>
			<path id="Path_31" class="st3" d="M123.1,75.4l3.5-10.8l1.1,0.3l-2.2,10.6C125.5,75.5,123.9,77,123.1,75.4z"/>
			<path id="Shape_17" class="st3" d="M126.7,64.3l1.1,0.3c0.2,0.1,0.3,0.2,0.2,0.4l-2.2,10.7c0,0.1,0,0.1-0.1,0.2
				c-0.4,0.4-1,0.6-1.5,0.7h-0.2c-0.5-0.1-0.9-0.5-1.1-1c0-0.1,0-0.2,0-0.3l3.4-10.8C126.3,64.3,126.5,64.2,126.7,64.3z M123.5,75.3
				c0.1,0.2,0.3,0.4,0.6,0.5c0.4,0,0.8-0.2,1.1-0.4l2.1-10.2l-0.4-0.1L123.5,75.3z"/>
			<path id="Path_32" class="st5" d="M57.8,51c-6.4-1.4-13.4-0.4-18.6,3.6c-2.2,1.6-3.8,3.8-4.7,6.4c-0.8,2.6-0.3,5.5,1.3,7.7
				c4.9,5.9,15.6,5.9,22.2,3.9c4.5-1.3,17.9-7.7,14.2-14C69.7,54.1,62.6,52,57.8,51z"/>
			<path id="Path_33" class="st3" d="M49.7,73.1c-4.2-0.1-8.3-1.3-12-3.5c-0.1,0-0.1-0.1-0.2-0.2c0-0.1,0-0.2,0-0.3
				c0.1-0.2,0.3-0.2,0.5-0.1c0.1,0.1,8.8,5.5,17.1,2.4c4-1.5,6.4-4.2,8.7-6.8c2.5-2.8,4.9-5.5,9-5.9c0.1,0,0.2,0,0.3,0.1
				c0.1,0.1,0.1,0.1,0.1,0.2c0,0.1,0,0.2-0.1,0.3s-0.1,0.1-0.2,0.1c-3.8,0.3-6,2.8-8.6,5.7c-2.3,2.5-4.8,5.4-8.9,7
				C53.6,72.8,51.7,73.1,49.7,73.1z"/>
			<path id="Path_34" class="st3" d="M37.1,103.6c-0.1,0-0.2,0-0.2-0.1c-0.1-0.1-0.1-0.2-0.1-0.3c0.5-11.2,2.8-27.4,2.8-27.6
				c0-0.2,0.2-0.3,0.4-0.3c0.2,0,0.3,0.2,0.3,0.4c0,0.2-2.3,16.3-2.8,27.5C37.5,103.4,37.3,103.6,37.1,103.6z"/>
			<path id="Path_35" class="st3" d="M91.4,174.1h15c0,0,1.6-3.7,5.2-4.2c0,0,13.7,5.8,11.7,7c-2,1.2-33,1.1-33,1.1L91.4,174.1z"/>
			<path id="Shape_18" class="st3" d="M111.7,169.5c2.8,1.2,12,5.2,12.1,7c0,0.3-0.1,0.5-0.4,0.7c-1.7,1-21.8,1.1-30,1.1h-3.2
				c-0.1,0-0.2,0-0.3-0.1c-0.1-0.1-0.1-0.2-0.1-0.3L91,174c0-0.2,0.2-0.3,0.3-0.3h14.8c0.4-0.8,2.1-3.7,5.3-4.2
				C111.6,169.5,111.7,169.5,111.7,169.5z M111.5,170.3c-3.2,0.5-4.8,3.9-4.8,4c-0.1,0.1-0.2,0.2-0.3,0.2H91.7l-0.9,3.2
				c12.4,0,30.9-0.2,32.3-1C123.1,175.7,117.1,172.6,111.5,170.3z"/>
			<path id="Path_36" class="st3" d="M80,139.1c9.6-2,16-6.5,12.2-12.6c-3.8-6.1-30.8-2.1-36.1-6.6c-5.3-4.5-3.4-28.3-9.2-32.4
				s-30.7-8.2-33.5-3.1c-2.8,5.2,0,42.7,8.1,51C29.7,143.8,70.7,141,80,139.1z"/>
			<path id="Shape_19" class="st3" d="M16.7,82.1c7.7-1.8,25.5,1.5,30.4,5c3.1,2.2,4.1,9.7,5,16.9c0.9,6.6,1.7,13.4,4.2,15.5
				c2.3,2,9.6,2.3,16.6,2.6c8.6,0.3,17.5,0.7,19.6,4.1c1.2,2,1.5,3.9,0.7,5.7c-1.4,3.3-6.1,5.9-13.2,7.4c-4.9,1.1-16.8,2.1-28.2,2.1
				h-1.6c-10.8-0.1-24.5-1.2-29-5.8c-8-8.3-11.1-45.8-8.1-51.5C13.7,83.3,14.9,82.6,16.7,82.1z M22.1,82.3c-1.8,0-3.5,0.1-5.2,0.5
				c-1.6,0.4-2.6,1-3.1,1.7c-2.7,5.1,0.2,42.6,8,50.6c7.9,8.2,48.7,5.5,58.1,3.6c6.8-1.4,11.4-4,12.7-7c0.7-1.6,0.4-3.3-0.7-5
				c-1.9-3.1-10.6-3.5-19.1-3.8c-7.4-0.3-14.5-0.6-17-2.7c-2.7-2.3-3.5-8.9-4.5-16c-0.9-7-1.9-14.4-4.7-16.4
				C42.9,85,30.6,82.3,22.1,82.3z"/>
			<path id="Path_37" class="st1" d="M97.8,119.5L97.8,119.5l-22.9-4c-0.2,0-0.3-0.2-0.3-0.4c0-0.2,0.2-0.3,0.4-0.3l22.8,4
				c0.2,0,0.3,0.2,0.3,0.4C98.2,119.3,98,119.5,97.8,119.5z"/>
			<path id="Path_38" class="st3" d="M163.6,166.1l-0.7-0.1c0-0.2,2.2-20.8-4.9-29.9l0.6-0.4c3.1,3.9,4.8,10.3,5.3,18.8
				C164,158.4,163.9,162.2,163.6,166.1z"/>
			<path id="Path_39" class="st3" d="M161.1,168.7c0-0.2,0-0.5,0.1-0.7c1.7-10.8-1.2-15.8-3.9-18.1l0.5-0.5
				c2.8,2.4,5.9,7.7,4.1,18.8c0,0.3-0.1,0.4-0.1,0.5L161.1,168.7z"/>
			<path id="Path_40" class="st3" d="M157.5,145.4c-0.6-0.3-1.2-0.5-1.9-0.6c-1.2-0.2-2.4,0.2-3.3,0.9c-0.2,0.2-0.4,0.6-0.2,0.9
				c0.1,0.1,0.3,0.2,0.5,0.2c0.9,0.3,1.7,1,1.9,2c-0.5-0.4-0.9-0.8-1.4-1.2c-0.5-0.4-1.1-0.6-1.7-0.6c-0.7,0.2-1.3,0.6-1.6,1.1
				c-0.5,0.5-0.8,1-1.1,1.7c-0.3,0.6-0.4,1.3-0.3,2c0.6-0.2,1.3-0.2,2-0.1c0.5,0,0.9,0.2,1.3,0.5c0.1,0.1,0.2,0.2,0.2,0.3
				c0,0.3-0.2,0.5-0.4,0.6c-0.3,0.1-0.6,0.1-0.8,0c-0.6-0.1-1.2-0.2-1.7-0.2c-0.2,0-0.4,0-0.7,0c-0.5,0.3-0.8,0.9-0.7,1.5
				c0,0.2,0.1,0.5,0.2,0.6c0.3,0.2,0.7,0.1,1-0.1c0.6-0.2,1.2-0.4,1.9-0.4c0.1,0,0.1,0,0.2,0c0.1,0.1,0.1,0.1,0.1,0.2
				c0,0.1,0,0.2-0.1,0.2c-0.1,0.1-0.3,0.2-0.5,0.3c-0.5,0.2-1,0.3-1.5,0.3c-0.3,0-0.6,0.1-0.8,0.4c-0.1,0.1-0.1,0.2-0.1,0.4
				c0,1,0.2,1.9,0.8,2.7c0.1,0.1,0.2,0.3,0.3,0.4c0.2,0.1,0.4,0.2,0.6,0.2c1.7,0.2,3.4-0.1,5-0.7c0.1,0,0.2-0.1,0.2-0.1
				c0.1-0.2-0.1-0.4-0.2-0.5c-0.5-0.6-0.4-1.6-0.3-2.4c0-0.2,0.1-0.3,0.2-0.4c0.2-0.1,0.5-0.1,0.6,0.1c0.1,0.2,0.2,0.4,0.2,0.7
				c0.1,0.8,0,1.7-0.2,2.5c0.8-0.2,1.6-0.5,2.4-0.8c0.6-0.2,1.2-0.6,1.7-1c0.5-0.4,0.9-1,1.1-1.6c0-0.1,0-0.2,0-0.4
				c-0.1-0.1-0.1-0.1-0.2-0.2c-0.7-0.5-1.3-1.2-1.7-2c-0.1-0.2-0.1-0.4,0-0.5c0.1,0,0.1,0,0.2,0c0.9,0.1,1.3,1.2,2.1,1.7
				c0.1,0,0.1,0.1,0.2,0.1c0.1,0,0.2,0,0.2-0.1c0.3-0.3,0.5-0.6,0.6-1c0.2-0.8,0.2-1.6-0.1-2.4c-0.3-0.8-0.9-1.3-1.7-1.6
				c-0.4-0.1-0.7-0.1-1.1,0c-0.1,0-0.8,0.2-0.9,0.2c-0.1-0.1,0.3-0.6,0.4-0.8C158.9,147.3,158.3,145.9,157.5,145.4z"/>
			<path id="Path_41" class="st3" d="M168.1,138.9c-1.1,0-2.2,0.5-2.8,1.5c-0.4,0.7-0.6,1.6-0.5,2.5c0.1,0.8,0.3,1.7,0.6,2.5
				c0.6-1,1.6-1.7,2.7-1.8c1.2-0.1-0.2,1-0.4,1.3c-0.7,0.8-1.3,1.6-1.9,2.4c-0.2,0.2-0.3,0.4-0.3,0.7c0,0.3,0.1,0.6,0.2,0.8
				c0.5,1.1,1.2,2,2.1,2.7c0.3,0.2,0.6,0.3,0.9,0.1c0.1-0.1,0.3-0.3,0.3-0.5c0.3-0.7,0.8-1.4,1.3-2c0.1-0.1,0.3-0.3,0.5-0.2
				c0.2,0.1,0.1,0.3,0.1,0.4l-0.1,1.6c-0.1,0.6-0.1,1.2,0.1,1.7c0.4,1,1.5,1.5,2.6,1.7c0.3,0.1,0.6,0.1,0.9,0
				c0.6-0.2,0.8-0.9,0.9-1.5c0.1-0.8,0.4-1.5,0.9-2.1c0.1,1,0.5,2,1,2.9c0.3,0.5,0.6,0.9,1,1.3c0.5,0.3,1,0.5,1.5,0.6
				c0.9,0.2,1.9,0.2,2.8,0.2c0.7,0,1.3-0.1,1.9-0.2c0.6-0.2,1.2-0.6,1.5-1.2c0.6-1,0.1-2.3-0.6-3.2s-1.7-1.6-2.4-2.4
				c0.9,0.3,1.8,0.7,2.6,1.3c0.2,0.2,0.4,0.3,0.7,0.3c0.1,0,0.2-0.1,0.3-0.2c1.1-1.1-0.2-3-0.8-4c-0.3-0.7-0.9-1.3-1.6-1.6
				c-0.4-0.1-0.9-0.1-1.3,0c-0.6,0.1-3.8,1.5-2.4-0.3c0.7-0.9,1.8-1.3,2.9-1.3c0.5,0,1.4,0.5,1.4-0.5c0-0.4-0.2-0.7-0.4-1
				c-0.4-0.7-0.9-1.3-1.4-1.9c-0.1-0.2-0.3-0.3-0.5-0.4c-0.2,0-0.4,0-0.5,0.1c-1.3,0.8-2.7,1.3-4.2,1.6c-0.3,0-0.8-0.1-0.8-0.4
				c0-0.1,0.1-0.2,0.2-0.3c0.9-0.7,2.2-0.4,3.2-1.1c0.3-0.2,0.5-0.5,0.5-0.8c0-0.5-0.4-0.9-0.8-1.1c-1-0.8-2.1-1.4-3.4-1.6
				c-1.9-0.1-3.5,1.1-4.8,2.5c-0.4,0.5-0.7,1.7-1.4,1.6c-0.4-0.1-0.8-0.3-1.2-0.5C169,139,168.6,138.9,168.1,138.9z"/>
			<path id="Path_42" class="st3" d="M159.1,129.1c-0.1-0.7-0.4-1.4-0.9-1.9c-0.9-0.9-2.4-0.9-3.6-0.7c-1,0.2-1.9,0.5-2.8,0.8
				c-0.9,0.3-1.2,0.5-0.4,1.2c0.6,0.5,2.1,2.4,1.4,3.3c-0.7,0.9-1.9-1.4-2.4-1.8c-0.6-0.6-1.4-0.9-2.2-1c-0.7,0.1-1.4,0.5-1.9,1
				c-0.6,0.5-1.1,1-1.6,1.6c-0.1,0.1-0.1,0.2-0.2,0.3c-0.1,0.4,0.4,0.7,0.9,0.7c1.2,0.2,2.5,0.8,2.8,2c-1.2,0.3-2.4-0.9-3.7-0.8
				c-0.9,0.2-1.7,0.9-2,1.8c-0.3,0.8-0.4,1.7-0.3,2.5c1.1-0.4,2.2-0.5,3.3-0.3c0.1,0,0.3,0.1,0.4,0.2c0.1,0.2,0,0.4-0.2,0.6
				c-0.2,0.1-0.4,0.1-0.6,0.1h-2.1c-0.2,0-0.4,0-0.6,0.1c-0.1,0.1-0.2,0.3-0.2,0.5c-0.1,0.9-0.1,1.9,0,2.8c0,0.6,0.2,1.1,0.6,1.6
				c0.3,0.2,0.7,0.4,1.1,0.5c1,0.3,2.1,0.4,3.2,0.4c-0.5-0.7-0.6-1.5-0.3-2.3c0.4-1,1.1-0.4,1.2,0.5c0,0.4-0.1,0.8-0.1,1.3
				c0,0.1,0,0.2,0,0.2c0,0.1,0.1,0.1,0.2,0.1c0.6,0.3,1.2,0.4,1.8,0.2c0.2,0,0.3-0.1,0.5-0.2c0.3-0.4,0.4-0.9,0.3-1.4l-0.3-2.6
				c0-0.1,0-0.3,0.1-0.3c0.1-0.1,0.4,0,0.5,0.1c0.5,0.5,0.8,1.2,0.8,1.9c0,0.4-0.2,0.8-0.2,1.2c-0.1,0.4,0.1,0.8,0.4,1.1
				c0.3,0.2,0.7,0.2,1.1,0.1c0.5-0.1,0.9-0.3,1.2-0.6c0.3-0.4,0.4-1,0.2-1.5c-0.1-0.5-0.2-1-0.3-1.5c0-1.1,1.1-2.6,1.3-0.7
				c0,0.6,0,1.2-0.1,1.8c0,0.1,0,0.2,0,0.2c0.1,0.1,0.2,0.2,0.4,0.2c0.8,0.1,1.7-0.1,2.4-0.5c0.5-0.3,1-0.6,1.3-1.1
				c0.3-0.4,0.5-0.8,0.7-1.2c0.9-1.8,2.2-3.3,0.6-5.2c-0.5-0.7-1.6-0.8-2.1-1.5c-0.6-0.8,0.3-2.1,0.4-3.1
				C159.1,129.5,159.1,129.3,159.1,129.1z"/>
			<path id="Path_43" class="st2" d="M154,164h18l-1.4,13.6c-0.2,2.1-1.9,3.6-4,3.6h-7.2c-2.1,0-3.8-1.6-4-3.6L154,164z"/>
			<path id="Shape_20" class="st3" d="M172,163.6c0.1,0,0.2,0,0.3,0.1c0.1,0.1,0.1,0.2,0.1,0.3l-1.4,13.6c-0.2,2.2-2.1,4-4.3,4h-7.2
				c-2.3,0-4.2-1.7-4.4-4l-1.4-13.6c0-0.1,0-0.2,0.1-0.3c0.1-0.1,0.2-0.1,0.3-0.1H172z M155.8,177.5c0.2,1.9,1.8,3.3,3.7,3.3h7.2
				c1.9,0,3.5-1.4,3.7-3.3l1.4-13.2h-17.2L155.8,177.5z"/>
			<path id="Path_44" class="st3" d="M165.6,164.2c0-0.1-1.4-13.1,5-23.6l0.6,0.4c-6.2,10.3-4.8,23-4.8,23.2L165.6,164.2z"/>
			<path id="Path_45" class="st2" d="M149.2,139.5c-0.1,0-0.2,0-0.2-0.1c-0.1-0.1-0.1-0.2-0.1-0.3c0-0.1,0-0.2,0.1-0.3
				c3.7-3.9,9.5-6.3,9.8-6.4c0.2-0.1,0.4,0,0.5,0.2c0.1,0.2,0,0.4-0.2,0.5c-0.1,0-5.9,2.4-9.5,6.2
				C149.4,139.5,149.3,139.5,149.2,139.5z"/>
			<path id="Path_46" class="st2" d="M151.7,157.6c-0.1,0-0.2-0.1-0.3-0.2c-0.1-0.1-0.1-0.2,0-0.3c1.3-2.5,3-4.9,5.1-6.9
				c0.1-0.1,0.2-0.1,0.2-0.1c0.1,0,0.2,0,0.2,0.1c0.1,0.1,0.1,0.4,0,0.5c-1.9,2-3.6,4.3-4.9,6.7
				C151.9,157.6,151.8,157.6,151.7,157.6z"/>
			<path id="Path_47" class="st2" d="M181.7,152.6c-0.1,0-0.2-0.1-0.3-0.2c-0.2-0.3-4.2-6.4-9.1-10c-0.2-0.1-0.2-0.3-0.1-0.5
				c0.1-0.2,0.3-0.2,0.5-0.1c4.8,3.7,8.8,9.5,9.2,10.2c0.1,0.2,0.1,0.4-0.1,0.5C181.9,152.6,181.8,152.6,181.7,152.6z"/>
			<rect id="Rectangle_4" x="136.9" y="29.2" class="st2" width="43" height="30.3"/>
			<path id="Shape_21" class="st1" d="M179.9,28.8c0.2,0,0.4,0.2,0.4,0.4v30.3c0,0.2-0.2,0.4-0.4,0.4h-43c-0.2,0-0.4-0.2-0.4-0.4
				V29.2c0-0.2,0.2-0.4,0.4-0.4H179.9z M137.3,59.1h42.2V29.5h-42.2V59.1z"/>
			<path id="Path_48" class="st3" d="M164.6,88.2c-0.2,0-0.3-0.1-0.4-0.3l-1.7-11.3l-3,1.3c-0.1,0-0.2,0-0.3,0s-0.2-0.1-0.2-0.2
				c0-0.1,0-0.2,0-0.3c0-0.1,0.1-0.2,0.2-0.2l3.5-1.5c0.1,0,0.2,0,0.3,0c0.1,0.1,0.2,0.1,0.2,0.3l1.8,11.8c0,0.1,0,0.2-0.1,0.3
				C164.9,88.1,164.8,88.2,164.6,88.2L164.6,88.2z"/>
			<path id="Path_49" class="st2" d="M170.6,100.4h-8.9l-0.5-19.1h9.8L170.6,100.4z"/>
			<path id="Shape_22" class="st3" d="M171.1,80.9c0.2,0,0.4,0.2,0.4,0.4l-0.5,19.2c0,0.2-0.2,0.3-0.3,0.3h-8.9
				c-0.2,0-0.3-0.2-0.4-0.3l-0.5-19.1c0-0.1,0-0.2,0.1-0.3c0.1-0.1,0.2-0.1,0.3-0.1H171.1z M162.1,100h8.2l0.5-18.4h-9.1L162.1,100z
				"/>
			<rect id="Rectangle_5" x="160.4" y="79.3" class="st2" width="11.6" height="1.9"/>
			<path id="Shape_23" class="st3" d="M172,78.9c0.2,0,0.4,0.2,0.4,0.4v1.9c0,0.2-0.2,0.4-0.4,0.4h-11.6c-0.2,0-0.4-0.2-0.4-0.4
				v-1.9c0-0.2,0.2-0.4,0.4-0.4H172z M160.8,80.9h10.9v-1.2h-10.9V80.9z"/>
			<path id="Shape_24" class="st1" d="M162.9,86.8c1.2-1.3,3-1.7,4.7-1.1c1.6,0.6,2.7,2.2,2.7,4c0.1,2.3-1.6,4.2-3.9,4.3
				c-1.7,0.1-3.4-0.8-4.2-2.4C161.5,90,161.7,88.1,162.9,86.8z M166.4,86.1c-1.5-0.1-2.9,0.6-3.5,1.9c-0.7,1.3-0.5,2.9,0.5,4
				c1,1.1,2.5,1.5,3.9,0.9c1.4-0.5,2.3-1.8,2.3-3.3C169.7,87.8,168.3,86.2,166.4,86.1z"/>
			<path id="Shape_25" class="st1" d="M145.1,35.4c1.3-1.5,3.3-2.3,5.3-2.1c2.7,0.3,4.9,1.6,5.9,3.6c0.9,1.9,0.8,4.1-0.3,5.9
				c-0.4,0.5-0.6,1.2-0.6,1.8c0.1,0.6,0.5,1.1,0.9,1.5c0.5,0.5,0.9,1.2,1,1.9c0.2,1.2-0.6,2.3-2.3,3.4c-1.6,1.2-3.5,1.9-5.5,1.9
				c-0.9,0-1.7-0.2-2.5-0.4c-1.1-0.3-2.1-0.8-3.1-1.3c-0.2-0.1-0.5-0.3-0.7-0.4c-1.2-0.8-2-2-2.3-3.4c-0.1-0.5,0-1,0.2-1.5
				c0.4-0.5,0.9-1,1.6-1.2c0.4-0.2,0.8-0.4,1.1-0.7c0.7-0.8,0.4-1.9,0.1-3c-0.1-0.3-0.1-0.6-0.2-0.9
				C143.4,38.7,143.9,36.8,145.1,35.4z M150.3,34c-1.8-0.2-3.5,0.5-4.6,1.8c-1.1,1.3-1.5,2.9-1.2,4.6c0.1,0.3,0.1,0.6,0.2,0.8
				c0.3,1.2,0.7,2.7-0.3,3.7c-0.4,0.4-0.8,0.7-1.3,0.9c-0.5,0.2-0.9,0.5-1.3,0.9c-0.2,0.3-0.2,0.7-0.1,1c0.2,1.2,1,2.3,2,2.9
				c0.2,0.2,0.4,0.3,0.6,0.4v0c0.9,0.5,1.9,0.9,3,1.3c3,1,5.3-0.1,7.4-1.4c1.5-1,2.1-1.9,2-2.7c-0.2-0.6-0.5-1.1-0.9-1.5
				c-0.5-0.5-0.9-1.2-1-1.9c0-0.8,0.2-1.6,0.7-2.2c1-1.6,1.1-3.6,0.3-5.3C154.8,35.5,152.8,34.3,150.3,34z"/>
			<path id="Shape_26" class="st1" d="M164.8,41.3c2.8-0.9,8.3,0,10.5,2.4c1.2,1.2,1.6,3,1.2,4.7c-0.7,2.2-2.3,3.9-4.5,4.5
				c-1,0.3-2.1,0.5-3.1,0.4c-1.8,0-3.6-0.4-5.3-1.1l-0.4-0.1c-1.5-0.9-3.4-0.8-4.8,0.2c-0.8,0.4-1.6,0.7-2.5,0.8
				c-1.9,0.2-3.9-0.7-5.1-2.2c-1-1.2-1.7-2.6-1.9-4.1c-0.3-1.9,0.7-3.7,2.4-4.6c1.6-0.7,3.4-0.2,5.1,0.3c1.2,0.4,2.5,0.6,3.8,0.6
				c1-0.2,1.9-0.5,2.8-1C163.6,41.7,164.1,41.5,164.8,41.3z M174.6,44.1c-1.9-2.1-7.1-3-9.7-2.2c-0.6,0.2-1.2,0.4-1.7,0.7
				c-0.9,0.5-2,0.9-3,1.1c-1.4,0.1-2.8-0.1-4.1-0.6c-1.6-0.5-3.2-0.9-4.6-0.3c-1.4,0.7-2.2,2.3-1.9,3.8c0.2,1.4,0.9,2.7,1.8,3.7
				c0.8,0.8,2.3,2.2,4.4,2c0.8-0.1,1.5-0.4,2.3-0.8c0.9-0.5,1.9-0.8,2.9-0.9h0.2c0.8,0.1,1.6,0.3,2.3,0.6l0.3,0.1
				c2.5,1.1,5.3,1.3,7.9,0.6c1.9-0.6,3.4-2.1,4-4C176,46.7,175.7,45.1,174.6,44.1z"/>
			<path id="Shape_27" class="st1" d="M161.6,37.1c3.7-2.2,10.6,0.1,12.9,3.3c0.8,1.2,1.7,3.4-1.1,5.7c-1.5,1.1-3.3,1.7-5.2,1.8
				l-0.4,0c-1,0.1-1.9-0.3-2.5-1.1c-0.3-0.3-0.7-0.6-1.2-0.9c-0.5-0.2-1.1-0.4-1.6-0.4c-1,0-2-0.5-2.7-1.3c-0.7-1-1-2.2-0.8-3.4
				C159.3,39.3,160.2,37.9,161.6,37.1z M165.2,36.9c-1.1,0-2.3,0.2-3.3,0.8c-1.2,0.7-2,1.9-2.3,3.3c-0.2,1,0,2,0.6,2.8
				c0.6,0.6,1.4,1,2.2,1c1.2,0.1,2.4,0.6,3.2,1.5c0.6,0.7,1.5,1,2.4,0.8c1.7,0,3.4-0.6,4.8-1.6c1.8-1.5,2.1-3.1,1-4.8
				C172.4,38.6,168.5,36.9,165.2,36.9z"/>
			<path id="Path_50" class="st3" d="M59.8,45.4c0,0,2.3-1.9,0-4.3h-3.7c0,0,0.8,3.1,0,4.3H59.8z"/>
			<path id="Shape_28" class="st3" d="M59.8,40.7c0.1,0,0.2,0,0.3,0.1c0.7,0.7,1.1,1.6,1.1,2.6c-0.1,0.9-0.5,1.6-1.1,2.2
				c-0.1,0-0.1,0.1-0.2,0.1h-3.7c-0.1,0-0.3-0.1-0.3-0.2c-0.1-0.1-0.1-0.3,0-0.4c0.6-0.8,0.2-3.1-0.1-4c0-0.1,0-0.2,0.1-0.3
				c0.1-0.1,0.2-0.1,0.3-0.1H59.8z M56.5,41.5c0.3,1.2,0.3,2.4,0.1,3.5h3c0.4-0.4,0.7-1,0.8-1.6c0-0.7-0.3-1.4-0.8-1.9H56.5z"/>
			<path id="Path_51" class="st2" d="M57.8,44c0.1-0.8-0.2-1.7-0.8-2.3c-0.3-0.4-0.6-0.7-0.9-1c-0.7-0.4-1.4-0.7-2.2-0.9
				c-1.7-0.4-3.7,0.1-5.5,0.1c-1.9,0-3.8-0.3-5.5-1c-0.6-0.2-1.1-0.6-1.6-1c-0.4,2.6-0.4,5.4,1.1,7.6c1.3,1.6,3,2.8,5,3.4
				c2.7,1.1,5.7,0.6,7.9-1.2c1-0.8,1.8-1.8,2.3-3C57.7,44.6,57.7,44.3,57.8,44z"/>
			<path id="Shape_29" class="st3" d="M41.2,37.7c0.1,0,0.3,0,0.4,0.1c0.4,0.4,0.9,0.7,1.4,0.9c1.7,0.7,3.6,1,5.4,0.9
				c0.6,0,1.2-0.1,1.8-0.1c1.2-0.2,2.5-0.2,3.8,0c0.8,0.1,1.6,0.5,2.3,0.9c0.4,0.3,0.7,0.6,1,1c0.7,0.7,1,1.6,0.9,2.6
				c-0.1,0.3-0.1,0.7-0.3,1c-0.5,1.2-1.3,2.3-2.4,3.1c-1.4,1.2-3.2,1.8-5.1,1.8c-1.1,0-2.2-0.2-3.2-0.6c-2-0.6-3.8-1.9-5.1-3.6
				c-1.3-1.9-1.7-4.6-1.1-7.8C41,37.8,41.1,37.7,41.2,37.7z M41.5,38.7c-0.4,2.8,0,5,1.1,6.7c1.2,1.6,2.9,2.7,4.8,3.3
				c2.6,1,5.5,0.6,7.6-1.1c1-0.7,1.7-1.7,2.1-2.8c0.1-0.3,0.2-0.5,0.2-0.8c0.1-0.7-0.2-1.5-0.7-2c-0.3-0.3-0.6-0.6-0.9-0.8
				c-0.6-0.4-1.3-0.7-2.1-0.8c-1.2-0.2-2.4-0.2-3.5,0c-0.6,0.1-1.3,0.1-1.9,0.1c-1.9,0-3.9-0.3-5.7-1C42.3,39.2,41.9,39,41.5,38.7z"
				/>
			<rect id="Rectangle_6" x="101.5" y="25.4" class="st2" width="30" height="19.9"/>
			<path id="Shape_30" class="st1" d="M131.5,25.1c0.2,0,0.4,0.2,0.4,0.4v19.9c0,0.2-0.2,0.4-0.4,0.4h-30c-0.2,0-0.4-0.2-0.4-0.4
				V25.4c0-0.2,0.2-0.4,0.4-0.4H131.5z M101.8,45h29.4V25.8h-29.4L101.8,45z"/>
			<rect id="Rectangle_7" x="101.5" y="45.4" class="st2" width="30" height="3.9"/>
			<path id="Shape_31" class="st1" d="M131.5,45c0.2,0,0.4,0.2,0.4,0.4v3.9c0,0.2-0.2,0.4-0.4,0.4h-30c-0.2,0-0.4-0.2-0.4-0.4v-3.9
				c0-0.2,0.2-0.4,0.4-0.4H131.5z M101.8,48.9h29.4v-3.2h-29.4L101.8,48.9z"/>
			<path id="Path_52" class="st1" d="M104.9,40.7c-0.1,0-0.3-0.1-0.3-0.2c-0.1-0.1,0-0.3,0.1-0.4c0.3-0.4,8.5-10.5,16.1-9.9
				c3,0.2,5.1,1.8,5.5,4.3c0.4,2.1-0.7,4.3-2.6,5.2c-2.1,1-4.1,1-5.5,0c-1.2-1-1.8-2.6-1.5-4.1c0.1-1.3,0.9-2.5,2.2-2.8
				c1.3-0.3,2.7,0,3.6,1c0.4,0.5,0.5,1.2,0.2,1.7c-0.5,1-1.2,1.6-1.9,1.6c-1.2,0-2-1.3-2-1.4c0-0.1-0.1-0.2,0-0.3
				c0-0.1,0.1-0.2,0.2-0.2c0.1,0,0.2-0.1,0.3,0c0.1,0,0.2,0.1,0.2,0.2c0.2,0.3,0.8,1.1,1.4,1c0.6,0,1-0.7,1.3-1.2
				c0.2-0.3,0.1-0.7-0.2-1c-0.7-0.8-1.8-1.1-2.9-0.8c-1,0.3-1.7,1.2-1.7,2.3c-0.3,1.3,0.2,2.6,1.2,3.4c1.2,0.9,2.9,0.9,4.7,0
				c1.7-0.8,2.6-2.7,2.2-4.5c-0.4-2.1-2.2-3.5-4.9-3.7c-7.2-0.6-15.4,9.5-15.5,9.6C105.1,40.7,105,40.7,104.9,40.7z"/>
			<path id="Shape_32" class="st1" d="M116.6,53.9c0.2,0,0.4,0.2,0.4,0.4v9.2c0,0.2-0.2,0.4-0.4,0.4h-11.6c-0.2,0-0.4-0.2-0.4-0.4
				v-9.2c0-0.2,0.2-0.4,0.4-0.4H116.6z M105.4,63.2h10.9v-8.5h-10.9V63.2z"/>
			<path id="Path_53" class="st1" d="M110.9,56c-0.2,0-0.4-0.2-0.4-0.4v-2.2c0-0.2,0.2-0.4,0.4-0.4c0.2,0,0.4,0.2,0.4,0.4v2.2
				c0,0.1,0,0.2-0.1,0.3C111,55.9,110.9,56,110.9,56z"/>
		</g>
	</g>
</g>
</svg>
