<?xml version="1.0" encoding="utf-8"?>
<!-- Generator: Adobe Illustrator 24.0.1, SVG Export Plug-In . SVG Version: 6.00 Build 0)  -->
<svg version="1.1" id="Capa_1" xmlns="http://www.w3.org/2000/svg" xmlns:xlink="http://www.w3.org/1999/xlink" x="0px" y="0px"
	 viewBox="0 0 202 202" style="enable-background:new 0 0 202 202;" xml:space="preserve">
<style type="text/css">
	.st0{opacity:0.2027;fill:url(#Oval_1_);enable-background:new    ;}
	.st1{fill:#231F20;}
	.st2{fill:#FFFFFF;}
	.st3{fill:#E7816B;}
	.st4{fill:#D1D3D4;}
</style>
<g id="Group_23">
	
		<linearGradient id="Oval_1_" gradientUnits="userSpaceOnUse" x1="-195.0675" y1="-216.637" x2="6.9325" y2="-216.637" gradientTransform="matrix(-1 0 0 -1 7.4 -115.9)">
		<stop  offset="0" style="stop-color:#5D0202;stop-opacity:1.000000e-02"/>
		<stop  offset="1" style="stop-color:#5D0202;stop-opacity:0.4976"/>
	</linearGradient>
	<circle id="Oval" class="st0" cx="101.5" cy="100.7" r="101"/>
	<g id="designer_x5F__x28_1_x29__2">
		<g id="designer_x5F__x28_1_x29_">
			<path id="Path" class="st1" d="M165.3,137.9c0,0,22.6-59,10.9-68s-60.8-5.4-63.5-2.1C110,71,94.2,142,94.2,142L165.3,137.9z"/>
			<path id="Shape" class="st1" d="M141.1,63.9c8.2-0.1,28.2,0.2,35.3,5.7c5,3.8,4.7,16.5-0.9,37.7c-4.1,15.7-9.8,30.5-9.8,30.6
				c0,0.1-0.2,0.2-0.3,0.2l-71.2,4.1l0,0c-0.1,0-0.2,0-0.3-0.1c-0.1-0.1-0.1-0.2-0.1-0.3c0.6-2.9,15.9-71.1,18.6-74.3
				C113.9,65.8,127,64.1,141.1,63.9z M141.1,64.6c-14.4,0.2-26.9,2-28.1,3.4c-2.1,2.5-12.9,49-18.4,73.6l70.5-4.1
				c1.4-3.8,22-58.9,10.9-67.3c-4.6-3.6-16.4-5.6-32.3-5.6H141.1z"/>
			<path id="Path_2" class="st2" d="M73.6,86.9l-10.2,34.2c0,0,21,2.7,21,1.9c0-0.8,4.1-37.6,4.1-37.6L73.6,86.9z"/>
			<path id="Shape_2" class="st1" d="M88.5,85.1c0.1,0,0.2,0,0.3,0.1c0.1,0.1,0.1,0.2,0.1,0.3c-1.4,12.7-4.1,36.9-4.1,37.6
				c0,0.1-0.1,0.2-0.1,0.3c-0.4,0.2-0.8,0.2-1.3,0.2c-3.5,0-13.6-1.2-20-2.1c-0.1,0-0.2-0.1-0.2-0.2c-0.1-0.1-0.1-0.2,0-0.3
				l10.2-34.2c0-0.1,0.2-0.2,0.3-0.2L88.5,85.1z M73.8,87.2l-10,33.6c7.3,0.9,18.6,2.2,20.2,2c0.3-3,3.6-32.9,4.1-37L73.8,87.2z"/>
			<path id="Path_3" class="st2" d="M54.3,78.4c0.1,0.1,3.7-0.9,5.6,1.4c1.9,2.2-0.6,4.2-6.4,3.1C47.5,81.7,54.3,78.4,54.3,78.4z"/>
			<path id="Shape_3" class="st1" d="M54.6,78.1c1-0.1,3.9-0.5,5.5,1.5c0.7,0.9,0.9,1.8,0.5,2.5c-0.6,0.9-2,1.4-4.1,1.4
				c-1.1,0-2.1-0.1-3.2-0.3c-1.7-0.3-2.6-0.9-2.7-1.7c-0.2-1.6,2.9-3.1,3.5-3.4c0.1,0,0.1,0,0.2,0H54.6z M59.6,80
				c-1.4-1.7-4-1.4-4.9-1.2c-0.1,0-0.2,0-0.3,0c-1.3,0.7-3.1,1.9-3,2.7c0,0.3,0.4,0.7,2.1,1.1c4,0.8,6,0.1,6.5-0.8
				C60.2,81.1,60,80.4,59.6,80z"/>
			<path id="Path_4" class="st2" d="M45.2,71.3c0,0-0.7-0.9-0.3-1.4c0.2-0.2,0.5-0.4,0.9-0.3c0.3,0,0.6,0.2,0.8,0.5
				C46.6,70,45.4,70.4,45.2,71.3z"/>
			<path id="Shape_4" class="st1" d="M45.6,69.1c0.5,0,0.9,0.2,1.2,0.6c0.1,0.1,0.1,0.2,0.1,0.3c0,0.1-0.1,0.2-0.2,0.2
				c-0.3,0.1-1,0.5-1.1,1c0,0.1-0.1,0.2-0.3,0.3l-0.1,0c-0.1,0-0.2,0-0.3-0.1c-0.3-0.4-0.8-1.2-0.3-1.9
				C44.9,69.3,45.3,69.1,45.6,69.1z M45.6,69.8c-0.2,0-0.3,0.1-0.4,0.2c-0.1,0.2-0.1,0.3,0,0.5c0.2-0.3,0.5-0.5,0.7-0.6
				C45.9,69.8,45.8,69.8,45.6,69.8L45.6,69.8z"/>
			<path id="Path_5" class="st2" d="M46.8,69.9c-0.8,0.1-1.5,0.7-1.7,1.5l14.7,19.2c0.2-1.9,1.6-3.4,3.5-3.7L46.8,69.9z"/>
			<path id="Shape_5" class="st1" d="M46.8,69.6c0.1,0,0.2,0,0.3,0.1l16.6,17c0.1,0.1,0.1,0.2,0.1,0.4c0,0.1-0.1,0.2-0.3,0.2
				c-1.7,0.2-3.1,1.6-3.2,3.3c0,0.1-0.1,0.3-0.3,0.3l-0.1,0c-0.1,0-0.2-0.1-0.3-0.1L44.9,71.7c-0.1-0.1-0.1-0.2-0.1-0.3
				C45,70.4,45.8,69.7,46.8,69.6z M46.7,70.3c-0.6,0.1-1,0.5-1.2,1.1l14.1,18.4c0.4-1.5,1.5-2.6,3-3.1L46.7,70.3z"/>
			<path id="Path_6" class="st2" d="M59.9,90.6l5,2.6l0.6-0.6l-2.1-5.7C63.4,86.9,59.5,86.5,59.9,90.6z"/>
			<path id="Shape_6" class="st1" d="M60.4,87.6c0.8-0.7,1.9-1.1,3-1c0.1,0,0.3,0.1,0.3,0.2l2.1,5.7c0.1,0.1,0,0.3-0.1,0.4l-0.6,0.6
				c-0.1,0.1-0.2,0.1-0.2,0.1c-0.1,0-0.1,0-0.2,0l-5-2.6c-0.1-0.1-0.2-0.2-0.2-0.3C59.3,89.5,59.6,88.4,60.4,87.6z M63.1,87.3
				c-0.8,0-1.6,0.3-2.3,0.8c-0.6,0.6-0.8,1.5-0.7,2.3l4.6,2.4l0.3-0.2L63.1,87.3z"/>
			<path id="Path_7" class="st2" d="M64.9,93.2l1,1l0.5-0.5l-0.8-1.1L64.9,93.2z"/>
			<path id="Shape_7" class="st1" d="M65.5,92.3c0.1,0,0.2,0.1,0.3,0.1l0.8,1.1c0.1,0.1,0.1,0.3,0,0.4l-0.5,0.5
				c-0.1,0.1-0.2,0.1-0.3,0.1h0c-0.1,0-0.2,0-0.3-0.1l-1-1c-0.1-0.1-0.1-0.2-0.1-0.3c0-0.1,0-0.2,0.1-0.2l0.6-0.6
				C65.3,92.3,65.4,92.3,65.5,92.3z M65.4,93.2l0.5,0.5L65.4,93.2L65.4,93.2z"/>
			<path id="Path_8" class="st2" d="M55.2,92.1c0.8-1.6,2.8-5.1,3.3-6.6c1.3-4.1-6.3-8-8.7-8s-7.5,8.5-7.5,13.1
				c0,4.6,16.9,39.5,16.9,39.5l16.2-7.4L55.2,92.1z"/>
			<path id="Shape_8" class="st1" d="M49.8,77.2c1.9,0,6.3,2,8.2,4.7c0.9,1,1.2,2.5,0.8,3.8c-0.7,1.6-1.4,3.2-2.3,4.7
				c-0.4,0.7-0.7,1.3-0.9,1.8l20.1,30.4c0.1,0.1,0.1,0.2,0,0.3c0,0.1-0.1,0.2-0.2,0.2l-16.2,7.4c-0.1,0-0.1,0-0.2,0
				c-0.1,0-0.3-0.1-0.3-0.2c-0.7-1.4-17-35.1-17-39.7C41.9,86,47.1,77.2,49.8,77.2z M49.8,77.9c-2.1,0-7.2,8.2-7.2,12.8
				c0,4.2,15,35.6,16.7,39.1l15.5-7.1l-20-30.2c-0.1-0.1-0.1-0.2,0-0.4c0.3-0.5,0.6-1.2,1-2c0.8-1.5,1.6-3,2.2-4.6
				c0.3-1.1,0-2.3-0.7-3.1C55.5,79.7,51.4,77.9,49.8,77.9z"/>
			<path id="Path_9" class="st3" d="M141.5,99l20-5.1c-0.7-1-8.8-26.6-17.3-30.8c-7.4-4.9-25.1-8.2-40.7-7.1c0,0-4.1-0.2-11.3,2.7
				c-17.6,7-21,31.3-21,31.3L85,94.8c0,0-2.6,31.5-5.1,47.9c0,0,30.3,5.9,74.5-1.4C154.4,141.3,141.6,103.7,141.5,99z"/>
			<path id="Path_10" class="st3" d="M139.9,63.9c-2.6,2.7-4.7,6-7.6,8.6c-6.3,5.6-14.5,10-23.2,9.5c-10.2-0.6-19-7.6-21.2-17.7
				c-1.4-6.4,0.1-12.3,5-16.7c3.4-3.1,7.7-5,12.2-6.2c11.8-3.2,25.1-1.5,35.1,5.5c1.6,1,3,2.4,4.1,4c2.5,4.6-0.4,9.3-3.6,12.4
				C140.4,63.4,140.1,63.6,139.9,63.9z"/>
			<path id="Path_11" class="st1" d="M105.2,71c-0.1,0-2,2.3-2.1,2.3c1.1,4.1,2.2,9.4,6.8,9.9c9.3,1.1,10.7-11.4,12.5-17.2
				C115.9,67.8,111.4,68.6,105.2,71z"/>
			<path id="Shape_9" class="st1" d="M122.2,65.7c0.1,0,0.2,0,0.3,0.1c0.1,0.1,0.1,0.2,0.1,0.3c-0.3,0.9-0.5,1.9-0.8,3
				c-1.4,5.9-3.6,14.6-10.9,14.6c-0.4,0-0.8,0-1.1-0.1c-4.6-0.5-5.9-5.5-6.9-9.5l-0.2-0.7c0-0.1,0-0.3,0.1-0.4
				c0.1-0.1,0.6-0.7,1-1.1c1.1-1.2,1.1-1.2,1.2-1.3c3.8-1.5,7.7-2.7,11.7-3.6C118.4,66.7,120.2,66.2,122.2,65.7z M121.9,66.5
				c-1.8,0.5-3.4,0.9-5,1.3c-3.9,0.9-7.8,2.1-11.6,3.5c-0.1,0.1-0.6,0.7-1,1.1c-0.5,0.6-0.7,0.9-0.9,1.1h0l0.1,0.5
				c1.1,4,2.2,8.5,6.4,8.9c7.6,0.9,9.8-7.7,11.3-14C121.4,68,121.6,67.2,121.9,66.5z"/>
			<path id="Path_12" class="st2" d="M114.2,23.2c-1.4-0.1-2.3,0.5-3.4,1c-2.3,0.8-3.4-1.1-5.3-2.1c-6.4-3.3-14.3-1.7-18.8,3.9
				c-1.4,1.6-2.3,3.6-2.6,5.7c-0.3,2.4,0.4,4.8,0,7.2c-0.5,2.7-2.4,5-5,6c2.2,0.2,4.4,0,6.5-0.6c-1.2,1.5-3,2.3-5,2.4
				c2.2,1.7,4.9,2.6,7.6,2.6l-4.8,1.1c4.1,2.6,9.1,3.4,14,3.2c9.7-0.5,25.8-4.5,25.6-17C122.7,31.7,120.1,23.4,114.2,23.2z"/>
			<path id="Shape_10" class="st1" d="M86.3,25.7c4.6-5.8,12.7-7.4,19.3-4c0.6,0.3,1.1,0.7,1.7,1.1c1.1,0.8,2,1.5,3.4,1
				c0.3-0.1,0.6-0.2,0.9-0.3c0.8-0.4,1.8-0.6,2.7-0.6c5.9,0.3,8.9,8.3,9,13.7c0.1,5.7-3,10.2-9.2,13.3c-6.3,3.1-13.7,3.9-16.6,4
				c-0.6,0-1.1,0.1-1.7,0.1c-3.7,0-8.4-0.7-12.5-3.3C83,50.5,83,50.4,83,50.2c0-0.1,0.1-0.2,0.3-0.3l2.7-0.6c-2-0.3-4-1.2-5.6-2.5
				c-0.1-0.1-0.2-0.2-0.1-0.4c0-0.1,0.2-0.2,0.3-0.2c1.4,0,2.8-0.5,3.9-1.4c-1.8,0.4-3.6,0.5-5.4,0.3c-0.2,0-0.3-0.1-0.3-0.3
				c0-0.2,0.1-0.3,0.2-0.4c2.5-1,4.3-3.1,4.8-5.8c0.2-1.2,0.2-2.5,0-3.7c-0.1-1.1-0.1-2.3,0-3.4C84,29.4,84.9,27.4,86.3,25.7z
				 M105.2,22.3c-6.3-3.3-14-1.7-18.4,3.9c-1.3,1.6-2.2,3.5-2.5,5.5c-0.1,1.1-0.1,2.2,0,3.3c0.1,1.3,0.1,2.6-0.1,3.9
				c-0.4,2.4-1.9,4.5-4,5.7c1.7,0,3.4-0.2,5.1-0.7c0.1,0,0.3,0,0.4,0.1c0.1,0.1,0.1,0.3,0,0.4c-1.1,1.3-2.6,2.2-4.3,2.4
				c2,1.3,4.3,2,6.7,1.9c0.2,0,0.3,0.1,0.3,0.3c0,0.2-0.1,0.3-0.3,0.4l-4,1c4.4,2.6,9.5,2.9,13.1,2.7c2.9-0.2,10.2-0.8,16.4-3.9
				c6-3,9-7.3,8.9-12.7c-0.1-5.1-2.9-12.8-8.4-13c-0.8,0-1.7,0.2-2.4,0.6c-0.3,0.1-0.6,0.3-0.9,0.4c-1.8,0.6-2.9-0.2-4.1-1.1
				C106.3,23,105.8,22.6,105.2,22.3z"/>
			<path id="Path_13" class="st2" d="M102.4,61.6l0.7,11.8c0,0,5.4,6.2,12.4,2.4c6.9-3.8,6.7-9.8,6.7-9.8l-4.6-22.2
				c0,0-6.3-1.5-7.9-13.9c-5.4,4.3-11.8,7-18.6,7.9c0,0,0.1,13.9,2.6,19.4C96,62.7,102.4,61.6,102.4,61.6z"/>
			<path id="Shape_11" class="st1" d="M109.7,29.5c0.1,0,0.2,0.2,0.2,0.3c0.8,6.3,2.9,9.6,4.4,11.4c0.8,1,2,1.8,3.2,2.2
				c0.1,0,0.2,0.1,0.3,0.3l4.6,22.2c0,0.1,0.2,6.3-6.9,10.2c-1.4,0.8-3.1,1.3-4.7,1.3c-4.7,0-8-3.7-8-3.7c-0.1-0.1-0.1-0.1-0.1-0.2
				L102,62c-1.4,0.1-6.6,0.3-8.8-4.6c-2.4-5.5-2.6-19-2.6-19.6c0-0.2,0.1-0.3,0.3-0.3c6.7-0.9,13.1-3.6,18.4-7.8
				C109.5,29.5,109.6,29.5,109.7,29.5z M109.4,30.5c-5.3,4-11.5,6.6-18,7.6c0,2.1,0.3,14,2.5,19c2.3,5.2,8.2,4.2,8.4,4.2
				c0.1,0,0.2,0,0.3,0.1c0.1,0.1,0.1,0.2,0.1,0.3l0.7,11.7c0.7,0.7,5.6,5.6,11.9,2.2c6.7-3.7,6.5-9.5,6.5-9.5l-4.5-22
				C116.1,43.6,110.9,41.3,109.4,30.5z"/>
			<path id="Path_14" class="st2" d="M115,50c1.6,0.2,3.3-0.2,4.6-1.1c1.8-1.4,2.7-3.7,2.5-6c0-0.8-0.3-1.7-0.7-2.4
				c-0.4-0.7-1.1-1.3-1.9-1.5c-1-0.1-2,0.2-2.9,0.8c-1.3,0.7-1.4,1.4-2.1,2.6c0.1-0.1,0.1-0.4,0.2-0.5"/>
			<path id="Path_15" class="st1" d="M115.9,50.4c-0.3,0-0.7,0-1-0.1c-0.2,0-0.3-0.2-0.3-0.4c0-0.1,0.1-0.2,0.1-0.2
				c0.1-0.1,0.2-0.1,0.3-0.1c1.5,0.2,3.1-0.2,4.3-1.1c1.7-1.4,2.6-3.5,2.3-5.7c0-0.8-0.2-1.6-0.6-2.3c-0.4-0.6-1-1.1-1.7-1.3
				c-0.9-0.2-1.7,0.2-2.6,0.7c-0.7,0.3-1.2,0.9-1.4,1.5c-0.1,0.3-0.3,0.6-0.5,0.9c0,0,0,0.1-0.1,0.1c-0.1,0.1-0.3,0.2-0.5,0.1
				c-0.2-0.1-0.2-0.3-0.1-0.5c0,0,0-0.1,0-0.1c0-0.1,0.1-0.2,0.2-0.4c0,0,0.1-0.1,0.1-0.1l0.1-0.2c0.3-0.8,1-1.4,1.7-1.8
				c0.8-0.4,1.9-1,3.1-0.8c0.9,0.2,1.8,0.8,2.2,1.6c0.4,0.8,0.7,1.7,0.7,2.5c0.3,2.4-0.7,4.8-2.6,6.3
				C118.6,50,117.3,50.4,115.9,50.4z"/>
			<path id="Path_16" class="st1" d="M102.7,67.8c2.7-0.2,5.2-1.7,6.6-4.1c2.4-4,1.5-6.6,1.5-6.6s-3.3,4.2-8.4,4.5L102.7,67.8z"/>
			<path id="Shape_12" class="st1" d="M110.8,56.8c0.1,0,0.2,0.1,0.3,0.2c0,0.1,1,2.8-1.5,6.9c-1.4,2.5-4,4.1-6.9,4.2l0,0
				c-0.2,0-0.3-0.1-0.3-0.3l-0.4-6.2c0-0.1,0-0.2,0.1-0.2c0.1-0.1,0.1-0.1,0.2-0.1c4.9-0.3,8.1-4.3,8.2-4.4
				C110.6,56.8,110.7,56.7,110.8,56.8z M110.6,57.8c-2.1,2.2-4.8,3.7-7.8,4.1l0.3,5.5c2.5-0.3,4.7-1.7,6-3.9
				C110.7,60.8,110.7,58.8,110.6,57.8z"/>
			<path id="Path_17" class="st2" d="M101.5,42.8c0,0-2.6,6.8-1.4,7.6c1.2,0.8,3.6-0.5,3.6-0.5"/>
			<path id="Path_18" class="st1" d="M101.1,51c-0.4,0-0.9-0.1-1.2-0.3c-1.3-0.9,0.7-6.3,1.3-8c0.1-0.2,0.3-0.3,0.4-0.2
				c0.1,0,0.2,0.1,0.2,0.2c0,0.1,0,0.2,0,0.3c-1.2,3.2-2.1,6.8-1.5,7.2c0.8,0.6,2.6-0.2,3.3-0.5c0.2-0.1,0.4,0,0.5,0.1
				c0.1,0.2,0,0.4-0.2,0.5C103,50.7,102,50.9,101.1,51z"/>
			
				<ellipse id="Oval_2" transform="matrix(0.9515 -0.3075 0.3075 0.9515 -7.5502 34.6264)" class="st1" cx="106.1" cy="41.3" rx="1" ry="1.4"/>
			
				<ellipse id="Oval_3" transform="matrix(0.9999 -1.361315e-02 1.361315e-02 0.9999 -0.5825 1.3233)" class="st1" cx="96.9" cy="43.4" rx="1" ry="1.4"/>
			<path id="Shape_13" class="st1" d="M98.4,53c8.9-1.9,9-1.9,9.1-1.8c0.1,0.1,0.1,0.1,0.1,0.2c0.1,1.4-0.1,2.8-0.6,4.1
				c-0.6,1.6-1.9,2.9-3.6,3.4c-0.4,0.1-0.8,0.2-1.2,0.2c-0.7,0-1.3-0.2-1.9-0.5c-2.2-1.6-2.3-5.1-2.3-5.2C98.1,53.2,98.2,53,98.4,53
				z M107,51.9c-1.2,0.2-5.3,1.1-8.2,1.7v0c0.1,0.8,0.5,3.3,2,4.4c0.7,0.5,1.7,0.6,2.5,0.3c1.4-0.5,2.6-1.5,3.2-3
				C106.9,54.2,107.1,53,107,51.9z"/>
			<path id="Path_19" class="st1" d="M106.8,55.4c-1.3,3.2-4.6,3.9-6.2,2.8c0.3-1.2,1-2.5,2.2-2.9C104.1,54.9,105.5,54.9,106.8,55.4
				z"/>
			<path id="Shape_14" class="st1" d="M102.7,55c1.4-0.5,2.9-0.4,4.2,0.1c0.1,0,0.2,0.1,0.2,0.2c0,0.1,0,0.2,0,0.3
				c-0.6,1.6-1.9,2.8-3.6,3.4c-0.4,0.1-0.8,0.2-1.2,0.2c-0.7,0-1.3-0.2-1.9-0.5c-0.1-0.1-0.2-0.2-0.1-0.4
				C100.8,56.5,101.6,55.4,102.7,55z M106.3,55.6c-1.1-0.4-2.3-0.4-3.4,0c-0.8,0.3-1.5,1.2-1.9,2.5c0.7,0.3,1.5,0.4,2.3,0.1
				C104.6,57.8,105.7,56.9,106.3,55.6z"/>
			<path id="Shape_15" class="st1" d="M97.2,39.2c0.5-0.1,1.1,0,1.6,0.3c0.5,0.3,0.8,0.8,0.9,1.3l0.7,3.3c0.2,1.1-0.5,2.2-1.5,2.4
				l-7.7,1.7c-0.1,0-0.3,0.1-0.4,0.1c-1,0-1.8-0.7-2-1.6L88,43.4c-0.2-1.1,0.5-2.2,1.6-2.5L97.2,39.2z M97.6,39.9
				c-0.1,0-0.2,0-0.3,0l-7.6,1.7c-0.7,0.2-1.2,0.9-1,1.6l0.7,3.3c0.2,0.7,0.9,1.2,1.6,1l7.7-1.7c0.7-0.2,1.2-0.9,1-1.6L99,40.9
				C98.8,40.3,98.3,39.9,97.6,39.9L97.6,39.9z"/>
			<path id="Shape_16" class="st1" d="M110.8,36.2c0.5-0.1,1.1,0,1.6,0.3c0.5,0.3,0.8,0.8,0.9,1.3l0.7,3.3c0.2,1.1-0.4,2.2-1.5,2.5
				l-7.6,1.7c-0.2,0-0.3,0-0.5,0c-0.4,0-0.8-0.1-1.1-0.3c-0.5-0.3-0.8-0.8-0.9-1.3l-0.7-3.3c-0.1-0.5,0-1.1,0.3-1.6
				c0.3-0.5,0.8-0.8,1.3-0.9L110.8,36.2z M111.3,36.9c-0.1,0-0.2,0-0.3,0l-7.6,1.7c-0.4,0.1-0.7,0.3-0.8,0.6c-0.2,0.3-0.3,0.7-0.2,1
				l0.7,3.3c0.2,0.7,0.9,1.2,1.6,1l7.7-1.7c0.3-0.1,0.7-0.3,0.8-0.6c0.2-0.3,0.3-0.7,0.2-1l-0.7-3.3
				C112.5,37.3,111.9,36.9,111.3,36.9z"/>
			<path id="Path_20" class="st1" d="M99.3,41.2c-0.1,0-0.1,0-0.2,0c-0.2-0.1-0.2-0.3-0.1-0.5c0.3-0.6,1.4-1.4,3.1-0.7
				c0.2,0.1,0.3,0.3,0.2,0.5c-0.1,0.2-0.3,0.3-0.5,0.2c-1.5-0.6-2.2,0.3-2.2,0.4C99.5,41.2,99.4,41.2,99.3,41.2z"/>
			<path id="Path_21" class="st2" d="M30.9,132.6H172l22.6,41.4H8.3L30.9,132.6z"/>
			<path id="Shape_17" class="st4" d="M172,132.3c0.1,0,0.2,0.1,0.3,0.2l22.6,41.4c0.1,0.1,0.1,0.2,0,0.3c-0.1,0.1-0.2,0.2-0.3,0.2
				H8.3c-0.1,0-0.2-0.1-0.3-0.2c-0.1-0.1-0.1-0.2,0-0.3l22.6-41.4c0.1-0.1,0.2-0.2,0.3-0.2H172z M8.9,173.6h185.2L171.8,133H31.1
				L8.9,173.6z"/>
			<path id="Path_22" class="st2" d="M33.1,105.9l0.3-1.3c0.7-1.3,1.4-2.2,3.2-2.2h67.2c1.7,0,3.1,1.1,3.6,2.7l10.9,37.5
				c0.6,1.7-0.2,3.5-1.9,4.2l-1.2,0.3L33.1,105.9z"/>
			<path id="Shape_18" class="st1" d="M103.8,102.1c1.8,0,3.4,1.2,3.9,3l10.9,37.6c0.6,1.8-0.3,3.9-2.1,4.6l-1.2,0.3l-0.1,0
				c-0.1,0-0.1,0-0.2,0L33,106.2c-0.1-0.1-0.2-0.2-0.2-0.4l0.3-1.3c0,0,0-0.1,0-0.1c0.7-1.2,1.5-2.4,3.5-2.4H103.8z M36.6,102.8
				c-1.5,0-2.2,0.7-2.9,2l-0.2,1l81.8,41l1.1-0.2c1.7-0.6,2-2.4,1.6-3.8l-10.9-37.5c-0.4-1.5-1.8-2.5-3.3-2.5H36.6z"/>
			<path id="Path_23" class="st1" d="M115.3,147.1H46.7c-1,0-1.8-0.6-2.1-1.6l-11.5-39.6c-0.1-0.3,0-0.6,0.2-0.9
				c0.2-0.3,0.5-0.4,0.8-0.4h70.4l11.9,41c0.1,0.4,0,0.7-0.2,1C116,147,115.6,147.2,115.3,147.1z"/>
			<path id="Shape_19" class="st1" d="M104.5,104.3c0.1,0,0.3,0.1,0.3,0.2l11.9,41c0.1,0.5,0,1-0.2,1.3c-0.3,0.4-0.7,0.6-1.2,0.6
				H46.7c-1.1,0-2.1-0.7-2.4-1.8L32.8,106c-0.1-0.4,0-0.8,0.2-1.2c0.3-0.3,0.7-0.5,1.1-0.5H104.5z M34.1,105c-0.2,0-0.4,0.1-0.5,0.3
				c-0.1,0.2-0.2,0.4-0.1,0.6L45,145.5c0.2,0.8,0.9,1.3,1.8,1.3h68.5c0.3,0,0.5-0.1,0.7-0.3c0.2-0.2,0.2-0.5,0.1-0.7L104.2,105H34.1
				z"/>
			<path id="Path_24" class="st2" d="M103.8,130.3L99.6,148c-0.5,2-2.2,3.3-4.2,3.3H52.1c-1.3,0-2.6-0.6-3.4-1.6
				c-0.8-1-1.1-2.4-0.8-3.7l3.7-15.7h-3.6l-3.5,14.9c-0.5,2.3,0,4.8,1.5,6.6c1.5,1.9,3.7,3,6.1,3h43.4c3.6,0,6.8-2.5,7.6-6l4.3-18.5
				H103.8z"/>
			<path id="Shape_20" class="st1" d="M51.6,129.9c0.1,0,0.2,0,0.3,0.1c0.1,0.1,0.1,0.2,0.1,0.3l-3.7,15.7c-0.3,1.2,0,2.4,0.8,3.4
				c0.8,1,1.9,1.5,3.1,1.5h43.4c1.8,0,3.5-1.3,3.9-3.1l4.2-17.7c0-0.2,0.2-0.3,0.3-0.3h3.6c0.1,0,0.2,0.1,0.3,0.1
				c0.1,0.1,0.1,0.2,0.1,0.3l-4.4,18.5c-0.9,3.7-4.2,6.3-8,6.3H52.1c-2.5,0-4.9-1.1-6.4-3.1c-1.6-2-2.1-4.5-1.6-7l3.5-14.9
				c0-0.2,0.2-0.3,0.3-0.3H51.6z M44.8,145.3c-0.5,2.2,0,4.6,1.4,6.4c1.4,1.8,3.6,2.8,5.9,2.8h43.4c3.5,0,6.5-2.4,7.3-5.8l4.3-18.1
				h-2.9l-4.1,17.4c-0.5,2.1-2.4,3.6-4.5,3.6H52.1c-1.4,0-2.8-0.7-3.7-1.8c-0.9-1.1-1.2-2.6-0.9-4l3.6-15.3h-2.9L44.8,145.3z"/>
			<path id="Path_25" class="st2" d="M159.7,94.1c0,0,6.1,27.3,1.1,34.2c-5,7-40.1,5.9-40.1,5.9s-5.7,6.8-10.6,6.4
				c-4.9-0.5-2.1-9.8,3.8-13.7l-0.8-3.2l30.9-5l-4.1-19.6"/>
			<path id="Path_26" class="st1" d="M110.5,140.9c-0.2,0-0.3,0-0.5,0c-1.3-0.1-2.4-1-2.7-2.3c-0.8-3,1.7-8.8,6.1-11.9l-0.7-3
				c0-0.1,0-0.2,0-0.3c0.1-0.1,0.1-0.1,0.2-0.2l30.6-4.9l-4-19.2c0-0.1,0-0.2,0.1-0.3c0-0.1,0.1-0.1,0.2-0.1c0.1,0,0.2,0,0.3,0
				c0.1,0,0.1,0.1,0.1,0.2l4.1,19.6c0,0.1,0,0.2-0.1,0.3c-0.1,0.1-0.1,0.1-0.2,0.1l-30.6,4.9l0.7,2.9c0,0.1,0,0.3-0.1,0.4
				c-4.2,2.8-6.7,8.5-6,11.3c0.2,1,1,1.7,2.1,1.8c4.7,0.4,10.3-6.2,10.3-6.3c0.1-0.1,0.2-0.1,0.3-0.1c0.3,0,35,1,39.8-5.7
				c4.8-6.7-1.1-33.6-1.2-33.9c0-0.1,0-0.3,0.1-0.3c0.1-0.1,0.2-0.1,0.3-0.1c0.1,0,0.2,0.1,0.2,0.3c0.3,1.1,6.1,27.5,1,34.5
				c-4.9,6.9-37.3,6.1-40.2,6C120,135.5,115.1,140.9,110.5,140.9z"/>
			<path id="Path_27" class="st1" d="M122.9,80.6c-0.1,0-0.1,0-0.2,0c-0.1,0-0.2-0.1-0.2-0.2c0-0.1,0-0.2,0-0.3
				c5-10.3,17.8-17.2,17.9-17.3c0.1,0,0.2-0.1,0.3,0c0.1,0,0.2,0.1,0.2,0.2c0,0.1,0.1,0.2,0,0.3c0,0.1-0.1,0.2-0.2,0.2
				c-0.1,0.1-12.7,6.9-17.6,17C123.1,80.6,123,80.6,122.9,80.6z"/>
			<path id="Path_28" class="st1" d="M101.7,80.1c0,0-0.1,0-0.2,0c-12-5.5-13.4-17.6-13.4-17.7c0-0.2,0.1-0.4,0.3-0.4
				c0.1,0,0.2,0,0.3,0.1c0.1,0.1,0.1,0.1,0.1,0.2c0,0.1,1.4,11.8,13,17.1c0.2,0.1,0.3,0.3,0.2,0.5C102,80.1,101.9,80.2,101.7,80.1z"
				/>
			<path id="Path_29" class="st1" d="M47.3,95.7c-0.2,0-0.3-0.2-0.3-0.3s0.1-0.3,0.3-0.3c5.2-0.2,7.7-3.1,7.7-3.1
				c0.1-0.1,0.1-0.1,0.2-0.1c0.1,0,0.2,0,0.3,0.1c0.2,0.1,0.2,0.3,0,0.5C55.4,92.5,52.8,95.6,47.3,95.7L47.3,95.7z"/>
			<path id="Path_30" class="st1" d="M139.8,99.4c-0.2,0-0.3-0.1-0.3-0.3c0-0.1-3.2-12.8-3.7-20.4c0-0.1,0-0.2,0.1-0.3
				c0.1-0.1,0.1-0.1,0.2-0.1c0.2,0,0.4,0.1,0.4,0.3c0.4,7.5,3.6,20.1,3.7,20.2C140.2,99.2,140,99.4,139.8,99.4L139.8,99.4z"/>
			<path id="Path_31" class="st1" d="M84.5,101.7c-0.1,0-0.2,0-0.2-0.1c-0.1-0.1-0.1-0.2-0.1-0.3l1.7-26.7c0-0.1,0-0.2,0.1-0.2
				c0.1-0.1,0.2-0.1,0.3-0.1c0.1,0,0.2,0,0.2,0.1c0.1,0.1,0.1,0.2,0.1,0.3l-1.7,26.7C84.8,101.6,84.7,101.7,84.5,101.7z"/>
			<path id="Path_32" class="st1" d="M145.2,86.8c-0.1,0-0.2-0.1-0.3-0.2l-3.3-6.2c0-0.1,0-0.2,0-0.3c0-0.1,0.1-0.2,0.2-0.2
				l10.3-4.9c0.1,0,0.2,0,0.3,0c0.1,0,0.2,0.1,0.2,0.2c0.1,0.2,0,0.4-0.2,0.5l-10,4.7l3,5.6l10.1-3.1c0.1,0,0.3,0,0.3,0.1
				s0.1,0.2,0.1,0.3c0,0.1-0.1,0.2-0.2,0.3l-10.4,3.2L145.2,86.8z"/>
			<ellipse id="Oval_4" class="st2" cx="154.1" cy="160" rx="16.9" ry="5.1"/>
			<path id="Shape_21" class="st4" d="M154.1,154.6c9.7,0,17.3,2.4,17.3,5.4c0,3.1-7.6,5.4-17.3,5.4s-17.3-2.4-17.3-5.4
				C136.8,157,144.4,154.6,154.1,154.6z M153.2,155.3c-9.4,0.1-15.7,2.5-15.7,4.8c0,2.3,6.7,4.8,16.6,4.8c9.9,0,16.6-2.5,16.6-4.8
				c0-2.3-6.7-4.8-16.6-4.8L153.2,155.3z"/>
			<path id="Path_33" class="st2" d="M141.4,145.4l-0.4,0.1c-1.2,0.2-2.3,0.8-3.1,1.8c-0.9,1.4-0.9,3.2-0.1,4.6
				c1.8,3.2,6.2,4.1,9.6,4.5c0.5,0.1,1,0,1.4-0.1c0.5-0.2,0.8-0.6,0.8-1.1c-0.1-0.4-0.3-0.7-0.7-0.9c-0.4-0.2-0.7-0.3-1.1-0.3
				c-2.1-0.3-4.3-0.6-6.2-1.6c-1.1-0.6-2.7-1.9-1.9-3.3c0.3-0.4,0.7-0.8,1.2-1c1.9-0.9,3.8-0.2,5.7,0.3c0.1,0,0.3,0.1,0.4,0.1
				c0.4-0.1,0.6-0.5,0.6-0.9c-0.1-0.8-0.9-1.4-1.7-1.7C144.3,145.4,142.8,145.2,141.4,145.4z"/>
			<path id="Shape_22" class="st1" d="M141.3,145.1c1.5-0.2,3.1-0.1,4.6,0.5c0.7,0.3,1.8,0.9,1.9,2c0.1,0.6-0.3,1.1-0.9,1.2
				c-0.2,0-0.4,0-0.6-0.1l-0.5-0.2c-1.7-0.5-3.3-1-4.9-0.2c-0.4,0.2-0.8,0.5-1,0.9c-0.2,0.3-0.2,0.6-0.1,1c0.4,0.8,1,1.5,1.9,1.8
				c1.7,0.7,3.5,1.2,5.4,1.4l0.8,0.1c0.4,0,0.8,0.2,1.2,0.3c0.6,0.2,0.9,0.8,0.9,1.4c0,0.6-0.5,1.1-1.1,1.2c-0.3,0.1-0.6,0.2-1,0.2
				c-0.2,0-0.4,0-0.6,0c-5.2-0.5-8.4-2-9.8-4.6c-0.9-1.5-0.9-3.5,0.1-4.9c0.8-1,2-1.7,3.3-1.9L141.3,145.1z M145.6,146.3
				c-1.3-0.5-2.8-0.7-4.2-0.5v0l-0.4,0.1c-1.1,0.2-2.2,0.7-2.9,1.6c-0.8,1.3-0.9,2.9-0.1,4.2c1.3,2.4,4.4,3.8,9.3,4.3
				c0.4,0.1,0.9,0,1.3-0.1c0.3-0.1,0.6-0.4,0.6-0.7c0-0.3-0.2-0.5-0.5-0.6c-0.3-0.1-0.7-0.2-1-0.3l-0.8-0.1
				c-1.9-0.2-3.8-0.7-5.6-1.5c-1-0.4-1.8-1.2-2.2-2.2c-0.2-0.5-0.1-1.1,0.2-1.5c0.3-0.5,0.8-0.9,1.3-1.1c1.9-0.9,3.7-0.4,5.4,0.2
				l0.5,0.2c0.1,0,0.2,0.1,0.3,0c0.2,0,0.3-0.3,0.3-0.5C147,146.9,146.1,146.4,145.6,146.3z"/>
			<path id="Path_34" class="st2" d="M142.9,142c0,0,3.2,15.8,3.4,16.8c0.3,1,7.8,4.9,13.7,1l5.2-16.2L142.9,142z"/>
			<path id="Shape_23" class="st1" d="M165.3,143.3c0.1,0,0.2,0.1,0.3,0.1c0.1,0.1,0.1,0.2,0,0.3l-5.2,16.2c0,0.1-0.1,0.1-0.1,0.2
				c-1.8,1.1-3.9,1.7-6,1.7c-1.8,0-3.6-0.4-5.2-1c-1.3-0.5-2.8-1.3-3-1.9c-0.3-1-3.3-16.2-3.4-16.8c0-0.1,0-0.2,0.1-0.3
				c0.1-0.1,0.2-0.1,0.3-0.1L165.3,143.3z M143.4,142.3c0.5,2.6,3.1,15.5,3.3,16.3c0.1,0.2,1.3,1.1,3.5,1.8c2.1,0.6,6,1.3,9.6-0.9
				l5-15.6L143.4,142.3z"/>
			
				<ellipse id="Oval_5" transform="matrix(4.100371e-02 -0.9992 0.9992 4.100371e-02 5.5261 290.6275)" class="st1" cx="154.2" cy="142.4" rx="4.9" ry="11.2"/>
			<path id="Shape_24" class="st1" d="M142.6,142c0.1-2.9,5.3-5,11.8-4.7c6.5,0.3,11.5,2.7,11.3,5.7c-0.1,1.4-1.4,2.7-3.6,3.6
				c-2.3,0.8-4.6,1.2-7,1.1h-1.1C147.5,147.4,142.5,144.9,142.6,142z M153.3,137.9c-5.4,0-9.9,1.8-10,4.1c-0.1,2.4,4.8,4.7,10.7,5
				c2.7,0.2,5.4-0.2,7.9-1.1c2-0.8,3.2-1.9,3.2-3c0.1-2.4-4.8-4.7-10.7-5L153.3,137.9z"/>
			<path id="Shape_25" class="st2" d="M127.3,86.6c0.2,0,0.3,0.2,0.3,0.3v10.7c0,0.2-0.2,0.3-0.3,0.3H91c-0.2,0-0.3-0.2-0.3-0.3
				V86.9c0-0.2,0.2-0.3,0.3-0.3H127.3z M91.4,97.3H127v-10H91.4V97.3z"/>
			<rect id="Rectangle" x="8.3" y="174" class="st2" width="186.3" height="7.2"/>
			<path id="Shape_26" class="st4" d="M194.6,173.6c0.2,0,0.3,0.2,0.3,0.3v7.2c0,0.2-0.2,0.3-0.3,0.3H8.3c-0.2,0-0.3-0.2-0.3-0.3
				V174c0-0.2,0.2-0.3,0.3-0.3H194.6z M8.6,180.8h185.7v-6.5H8.6V180.8z"/>
			<path id="Path_35" class="st2" d="M165.3,106.9c-0.2,0-0.3-0.2-0.3-0.3c0-0.8,0.5-19.4,2.6-25.8c2.1-6.4,5.9-9.1,6.1-9.2
				c0.2-0.1,0.4-0.1,0.5,0.1c0.1,0.2,0.1,0.4-0.1,0.5c0,0-3.8,2.6-5.8,8.9c-2,6.3-2.5,25.5-2.5,25.7c0,0.1,0,0.2-0.1,0.2
				C165.5,106.8,165.4,106.9,165.3,106.9z"/>
		</g>
	</g>
</g>
</svg>
