<?xml version="1.0" encoding="utf-8"?>
<!-- Generator: Adobe Illustrator 24.0.1, SVG Export Plug-In . SVG Version: 6.00 Build 0)  -->
<svg version="1.1" id="Capa_1" xmlns="http://www.w3.org/2000/svg" xmlns:xlink="http://www.w3.org/1999/xlink" x="0px" y="0px"
	 viewBox="0 0 202 202" style="enable-background:new 0 0 202 202;" xml:space="preserve">
<style type="text/css">
	.st0{opacity:0.2027;fill:url(#Oval_Copy_3_1_);enable-background:new    ;}
	.st1{fill:#FFFFFF;}
	.st2{fill:#231F20;}
	.st3{fill:#E7816B;}
	.st4{fill:#D1D3D4;}
</style>
<g id="Group_21">
	
		<linearGradient id="Oval_Copy_3_1_" gradientUnits="userSpaceOnUse" x1="-317.637" y1="298.0675" x2="-115.637" y2="298.0675" gradientTransform="matrix(0 -1 1 0 -196.6 -115.9)">
		<stop  offset="0" style="stop-color:#5D0202;stop-opacity:1.000000e-02"/>
		<stop  offset="1" style="stop-color:#5D0202;stop-opacity:0.4976"/>
	</linearGradient>
	<circle id="Oval_Copy_3" class="st0" cx="101.5" cy="100.7" r="101"/>
	<g id="share_x28_1_x29__2">
		<g id="share_x28_1_x29_">
			<path id="Path" class="st1" d="M173.7,39.2c-1-0.1-2,0.1-2.9,0.4c-1.4,0.6-2.8,3.9-3.7,9c-0.8,4.5-1.2,9-1.1,13.5
				c0,0.8,0.4,1.6,1.1,2c4.4,3.1,19.1-0.7,20.7-1.1c0.7-1.4,7.6-14.8,4.2-18.4C189,41.5,179.1,39.2,173.7,39.2z"/>
			<path id="Shape" class="st2" d="M170.5,39c3.6-1.6,18,1.1,21.9,5.2c3.9,4.2-3.8,18.6-4.2,19.3c0,0.1-0.1,0.1-0.2,0.2
				c-0.5,0.1-8.8,2.4-15.2,2.4c-2.6,0-4.8-0.4-6.2-1.3c-0.8-0.6-1.3-1.5-1.4-2.5C164.9,55.2,166.9,40.6,170.5,39z M173.7,39.2
				c-1-0.1-2,0.1-2.9,0.4c-1.4,0.6-2.8,3.9-3.7,9c-0.9,4.5-1.2,9-1.1,13.5c0,0.8,0.4,1.6,1.1,2c4.4,3.1,19.1-0.7,20.7-1.1
				c0.7-1.4,7.6-14.8,4.2-18.4C189,41.5,179.1,39.2,173.7,39.2z"/>
			<path id="Path_2" class="st1" d="M131.9,146.8c10.4-4.6,17.4-14.5,18.3-25.8l-10.3-11l-14.2,27.3"/>
			<path id="Path_3" class="st2" d="M131.9,147.1c-0.2,0-0.3-0.1-0.3-0.3c0-0.2,0.1-0.3,0.2-0.4c10.2-4.5,17.1-14.2,18.1-25.3
				l-9.9-10.6L126,137.5c-0.1,0.1-0.3,0.2-0.4,0.1c-0.1-0.1-0.2-0.2-0.2-0.4l14.2-27.3c0-0.1,0.1-0.2,0.2-0.2c0.1,0,0.2,0,0.3,0.1
				l10.3,11.1c0.1,0.1,0.1,0.2,0.1,0.2c-1,11.4-8,21.4-18.5,26C132,147.1,131.9,147.1,131.9,147.1z"/>
			<path id="Path_4" class="st2" d="M163.8,163.7l31.2-0.6l-0.4-39.2l-45.7,1.6l-6.4,38.1H163.8z"/>
			<path id="Shape_2" class="st2" d="M194.5,123.6c0.1,0,0.2,0,0.2,0.1c0.1,0.1,0.1,0.1,0.1,0.2l0.4,39.1c0,0.1,0,0.2-0.1,0.2
				c-0.1,0.1-0.1,0.1-0.2,0.1l-31.2,0.6h-21.4c-0.1,0-0.2,0-0.2-0.1c-0.1-0.1-0.1-0.2-0.1-0.2l6.4-38.1c0-0.1,0.1-0.3,0.3-0.3
				L194.5,123.6z M149.1,125.9l-6.3,37.5h21l30.8-0.6l-0.4-38.5L149.1,125.9z"/>
			<path id="Path_5" class="st3" d="M201,80.5c-2.8-3.8-9.5-5.8-14-6.5c-4.3-0.7-8.7,0-13-0.4c-4-0.2-8,0.2-11.8,1.2
				c-14.5,4-28,25-28,25l14.8,0.8c0,0-2.1,15.4-8.3,49.2c25.7,0.9,55.5,3.5,55.5,3.5s0.1-7.1,0.5-14c2.3-2.2,2.2-5.6,2.7-7.6
				c0.5-2.6-0.6-30.4-0.6-30.4l3.4-1.2C202.2,99.9,202.2,82.1,201,80.5z"/>
			<path id="Path_6" class="st2" d="M166.5,80.1L155.2,154l13.4,1.3l15.3-75.4L166.5,80.1z"/>
			<path id="Shape_3" class="st2" d="M183.9,79.6c0.1,0,0.2,0,0.2,0.1c0.1,0.1,0.1,0.2,0.1,0.3L169,155.4c0,0.1-0.2,0.3-0.3,0.3h0
				l-13.4-1.3c-0.1,0-0.2-0.1-0.2-0.1c-0.1-0.1-0.1-0.2-0.1-0.2L166.2,80c0-0.1,0.2-0.3,0.3-0.3L183.9,79.6z M166.8,80.4l-11.2,73.4
				l12.8,1.3l15.1-74.8L166.8,80.4z"/>
			<path id="Path_7" class="st1" d="M168.5,70.8l-1.9,9.3c0,0,2.1,6.2,8.3,5.5c3.7-0.4,7.1-2.5,9.1-5.7l2.2-17c0,0-4.2-3-1.5-12.5
				c-5.2,1.5-10.8,1.5-16,0.1c0,0-4.2,10.2-4.1,14.9C164.7,70.1,168.5,70.8,168.5,70.8z"/>
			<path id="Shape_4" class="st2" d="M184.5,50.1c0.1,0,0.2,0,0.3,0.1c0.1,0.1,0.1,0.2,0.1,0.3c-2.5,9.2,1.4,12.1,1.4,12.2
				c0.1,0.1,0.1,0.2,0.1,0.3l-2.2,17c0,0,0,0.1,0,0.1c-2.1,3.3-5.5,5.4-9.3,5.8c-0.3,0-0.6,0.1-1,0.1c-5.7,0-7.7-5.7-7.7-5.8
				c0-0.1,0-0.1,0-0.2l1.9-9c-1-0.3-3.7-1.5-3.8-5.7c-0.1-4.8,3.9-14.7,4.1-15.1c0.1-0.2,0.2-0.2,0.4-0.2
				C173.9,51.5,179.3,51.5,184.5,50.1z M184.2,50.8c-5,1.3-10.3,1.3-15.3,0c-0.6,1.6-4,10.3-3.9,14.6c0.1,4.4,3.5,5.1,3.6,5.1
				c0.1,0,0.2,0.1,0.2,0.1c0,0.1,0.1,0.2,0,0.2l-1.9,9.2c0.3,0.7,2.3,5.8,7.9,5.2c3.6-0.4,6.8-2.4,8.8-5.4l2.2-16.8
				C185.1,62.4,182.1,59.1,184.2,50.8z"/>
			<path id="Path_8" class="st1" d="M182.7,62.1c0.3-0.8,0.9-1.5,1.6-1.9c0.7-0.4,1.5-0.6,2.3-0.8c0.4-0.1,0.9-0.1,1.3-0.1
				c0.3,0.1,0.6,0.2,0.8,0.4c0.6,0.4,1,1,1.2,1.7c0.1,0.6,0,1.2-0.2,1.7c-0.2,0.6-0.4,1.2-0.7,1.8c-0.7,1.1-1.7,1.9-3,2.2
				c-1.3,0.3-2.6,0.1-3.7-0.6"/>
			<path id="Path_9" class="st2" d="M184.9,67.7c-1,0-1.9-0.3-2.7-0.8c-0.2-0.1-0.2-0.3-0.1-0.4c0-0.1,0.1-0.1,0.2-0.1
				c0.1,0,0.2,0,0.2,0c1,0.6,2.3,0.8,3.4,0.5c1.2-0.3,2.2-1,2.8-2.1c0.3-0.5,0.5-1.1,0.7-1.7c0.2-0.5,0.2-1,0.1-1.6
				c-0.2-0.6-0.6-1.2-1.1-1.5c-0.2-0.2-0.5-0.3-0.7-0.4c-0.4-0.1-0.8,0-1.2,0.1c-0.8,0.1-1.5,0.4-2.2,0.7c-0.7,0.4-1.2,1-1.5,1.8
				c-0.1,0.2-0.3,0.3-0.4,0.2c-0.2-0.1-0.3-0.3-0.2-0.4c0.3-0.9,1-1.6,1.8-2.1c0.8-0.4,1.6-0.7,2.4-0.8c0.5-0.1,1-0.1,1.4-0.1
				c0.3,0.1,0.7,0.3,0.9,0.5c0.7,0.4,1.2,1.1,1.4,1.9c0.1,0.6,0,1.3-0.2,1.9c-0.2,0.7-0.4,1.3-0.7,1.9c-0.7,1.2-1.9,2-3.2,2.4
				C185.7,67.6,185.3,67.7,184.9,67.7z"/>
			<path id="Path_10" class="st2" d="M167.7,75.4c2.2,0.6,4.6,0.1,6.5-1.2c3-2.2,3-3.7,3-3.7s-4.6,1.8-8.5,0.5L167.7,75.4z"/>
			<path id="Shape_5" class="st2" d="M177,70.3c0.1,0,0.2,0,0.3,0c0.1,0.1,0.1,0.1,0.1,0.2c0,0.1,0,1.7-3.1,4c-1.4,1-3,1.5-4.7,1.5
				c-0.7,0-1.4-0.1-2.1-0.3c-0.2,0-0.2-0.2-0.2-0.4l1-4.5c0-0.1,0.1-0.2,0.1-0.2c0.1,0,0.2,0,0.2,0C172.5,71.9,177,70.3,177,70.3z
				 M176.7,71c-1.3,0.4-4.7,1.3-7.8,0.4l-0.8,3.8c2.1,0.4,4.2,0,5.9-1.2C175.8,72.7,176.5,71.6,176.7,71z"/>
			<path id="Path_11" class="st1" d="M174,56.9c0,0-4,4.2-3.3,5.1c0.6,0.9,2.8,0.8,2.8,0.8"/>
			<path id="Path_12" class="st2" d="M173,63.1c-0.7,0-2.1-0.1-2.6-0.9c-0.7-1,2.1-4.2,3.4-5.5c0.1-0.1,0.1-0.1,0.2-0.1
				c0.1,0,0.2,0,0.2,0.1c0.1,0.1,0.1,0.1,0.1,0.2c0,0.1,0,0.2-0.1,0.2c-2,2.1-3.6,4.3-3.3,4.7c0.4,0.6,2,0.7,2.5,0.6
				c0.2,0,0.3,0.1,0.3,0.3c0,0.1,0,0.2-0.1,0.2c-0.1,0.1-0.1,0.1-0.2,0.1C173.5,63.1,173.3,63.1,173,63.1z"/>
			
				<ellipse id="Oval" transform="matrix(0.3733 -0.9277 0.9277 0.3733 58.8792 202.5844)" class="st2" cx="179.4" cy="57.7" rx="1.1" ry="0.8"/>
			
				<ellipse id="Oval_2" transform="matrix(0.3733 -0.9277 0.9277 0.3733 54.9843 194.1409)" class="st2" cx="171.2" cy="56.4" rx="1.1" ry="0.8"/>
			<path id="Path_13" class="st2" d="M173.5,68.4c-0.3,0-0.6,0-0.9-0.1c-4.3-1-4.2-6.1-4.2-6.1c0-0.2,0.2-0.3,0.3-0.3
				c0.1,0,0.2,0,0.2,0.1s0.1,0.1,0.1,0.2c0,0.2-0.1,4.6,3.7,5.5c3.8,0.9,5.7-5.1,5.7-5.2c0-0.1,0.1-0.2,0.2-0.2c0.1,0,0.2,0,0.3,0.1
				c0.1,0.1,0.1,0.2,0.1,0.3C178.9,62.9,177.2,68.4,173.5,68.4z"/>
			<path id="Path_14" class="st1" d="M37.5,82.7l23.3,26l32.5,11.4l-4.2,8.6c0,0-21.1-3.2-29.4-4.1c-8.3-0.9-18.8-13.4-18.8-13.4
				L37.5,82.7z"/>
			<path id="Shape_6" class="st2" d="M37.3,82.4c0.1-0.1,0.3,0,0.4,0.1l23.2,26l32.5,11.3c0.1,0,0.1,0.1,0.2,0.2c0,0.1,0,0.2,0,0.3
				l-4.2,8.6c0,0.1-0.2,0.2-0.3,0.2h0c-0.2,0-21.2-3.2-29.4-4.1c-8.3-0.9-18.6-13-19-13.5c0,0-0.1-0.1-0.1-0.2l-3.4-28.5
				C37.1,82.6,37.2,82.5,37.3,82.4z M41.1,111c0.9,1,10.8,12.4,18.6,13.2c7.8,0.9,26.9,3.7,29.2,4.1l3.9-8.1L60.6,109
				c-0.1,0-0.1,0-0.1-0.1L37.9,83.7L41.1,111z"/>
			<path id="Path_15" class="st1" d="M48.8,69.8c-0.3-2.2-1.2-4.2-1.9-6.3c-1.7-5.1-1.9-10.3-3.7-15.4c-2.3-6.5-6.6-11.2-14.2-11
				c-3.1,0-5.9,1.9-7.1,4.8c-3.6-2-8.4,2-8.5,5.7c-0.2,5.4,0.1,10.1-2.3,15.2c-1.8,3.9-4.6,7.6-4.8,11.8c-0.2,4.3,2.2,8.3,5.7,10.7
				c3.5,2.4,7.9,3.2,12.1,2.8c4.2-0.3,8.3-1.7,12.2-3.3c1.9-0.7,3.8-1.7,5.5-2.8C45.7,79.5,49.5,74.9,48.8,69.8z"/>
			<path id="Shape_7" class="st2" d="M29,36.8c6.8-0.2,11.9,3.6,14.5,11.2c0.8,2.6,1.5,5.2,1.9,7.9c0.4,2.5,1,5,1.8,7.5
				c0.2,0.5,0.4,1,0.5,1.6c0.6,1.6,1.1,3.2,1.4,4.8c0.8,5.3-3.2,9.9-7.2,12.6c-1.8,1.1-3.6,2.1-5.6,2.8c-3.3,1.3-7.6,2.9-12.3,3.3
				c-0.6,0-1.2,0-1.7,0c-3.7,0.1-7.4-0.9-10.5-3C8.1,83,5.7,78.7,6,74.6c0.2-3.2,1.7-6,3.2-8.7c0.6-1.1,1.2-2.1,1.6-3.2
				c1.9-4.2,2-7.9,2.1-12.3c0-0.9,0.1-1.9,0.1-2.8c0.1-2.1,1.7-4.5,3.9-5.7c1.4-0.9,3.2-1.1,4.8-0.4C23.1,38.7,25.9,36.8,29,36.8z
				 M29,37.4c-3,0-5.7,1.8-6.8,4.6c0,0.1-0.1,0.1-0.2,0.2c-0.1,0-0.2,0-0.2,0c-0.6-0.3-1.2-0.5-1.9-0.5l0,0c-0.9,0-1.8,0.3-2.6,0.7
				c-2,1.1-3.5,3.3-3.6,5.2c0,1-0.1,1.9-0.1,2.8c-0.1,4.2-0.2,8.2-2.2,12.5c-0.5,1.1-1.1,2.2-1.7,3.2c-1.4,2.7-2.9,5.5-3.1,8.5
				c-0.2,3.9,2,8,5.6,10.4c3.1,2.1,7.4,3.1,11.9,2.8s8.8-1.9,12.1-3.2c1.9-0.7,3.7-1.7,5.4-2.7c3.8-2.6,7.7-7.1,6.9-12
				c-0.3-1.6-0.7-3.2-1.3-4.7c-0.2-0.5-0.4-1-0.5-1.6c-0.8-2.5-1.4-5-1.8-7.5c-0.4-2.7-1.1-5.3-1.9-7.8C40.3,40.8,35.7,37.2,29,37.4
				z"/>
			<path id="Path_16" class="st3" d="M48.9,86.6c-0.3-1-0.5-2.1-0.9-3.1c-0.8-2.7-1.8-6.7-3.7-8.8c-3.2-3.5-10.3-3.6-14.6-3.6
				c-6.7,0-13.5,1.5-19,5.4c-8.4,5.9-10,14.5-9,24c1.1,10.7,2.5,21.3,4,32c0.1,1.1,1.9,17.4,2.8,17.4c0.1,0,55.4,0,53.6,1.3
				c-2.5-8.6-4.4-17.4-6.4-26.1c-0.4-1.9-1.2-3.6-1.6-5.4c-0.7-2.6-0.4-5.5-0.6-8.2c-0.5-6.2-1.9-12.3-3.2-18.4
				C49.9,91,49.4,88.8,48.9,86.6z"/>
			<path id="Path_17" class="st2" d="M64.6,163.9l-6.3-27.8L7,140.3l-0.7,23.6H64.6z"/>
			<path id="Shape_8" class="st2" d="M58.2,135.8c0.2,0,0.3,0.1,0.3,0.2l6.3,27.8c0,0.1,0,0.2-0.1,0.3c-0.1,0.1-0.1,0.1-0.2,0.1H6.4
				c-0.1,0-0.2,0-0.2-0.1C6.1,164.1,6,164,6,163.9l0.6-23.6c0-0.2,0.1-0.3,0.3-0.3L58.2,135.8z M7.3,140.6l-0.6,23h57.5L58,136.5
				L7.3,140.6z"/>
			<path id="Path_18" class="st2" d="M34.2,94.5c0.2,0.1,0.4,0.1,0.5,0.1c1.2,0.1,2.1-1,2.6-2.1c1.1-2.4,1.1-5.1,0.9-7.6
				c0-1.5-0.4-3-1-4.4c-0.6-1.1-1.3-2.1-2.3-2.9c-1.7-1.5-3.7-2.8-5.9-3.1c-2.2-0.3-5.5,0.9-6.2,3.4c-0.7,2.7,2.1,5.3,3.4,7.3
				c2,2.8,4.1,5.5,6.4,8.1C33,93.8,33.6,94.2,34.2,94.5z"/>
			<path id="Shape_9" class="st2" d="M22.5,77.9c0.7-2.5,3.9-3.9,6.5-3.6c2,0.2,4.1,1.3,6.1,3.2c1,0.8,1.7,1.8,2.3,3
				c0.6,1.4,1,3,1,4.6c0.2,2.5,0.2,5.3-0.9,7.8c-0.2,0.6-1.1,2.2-2.7,2.2h-0.2c-0.2,0-0.4-0.1-0.6-0.1c-0.6-0.3-1.2-0.8-1.7-1.3
				c-2.3-2.6-4.5-5.3-6.4-8.1c-0.3-0.4-0.6-0.8-0.9-1.2C23.6,82.4,21.9,80.1,22.5,77.9z M29,74.8c-2.3-0.3-5.3,1-5.9,3.2
				c-0.5,2,1.1,4.1,2.4,5.8c0.3,0.4,0.7,0.9,1,1.2c2,2.8,4.1,5.5,6.4,8c0.4,0.5,0.9,0.9,1.4,1.2c0.1,0.1,0.3,0.1,0.4,0.1
				c1,0.1,1.8-0.9,2.2-1.9c1.1-2.4,1-5.1,0.9-7.5c0-1.5-0.4-3-0.9-4.3c-0.6-1.1-1.3-2-2.2-2.8C32.8,76.1,30.9,75.1,29,74.8z"/>
			<rect id="Rectangle" x="61.1" y="45" class="st1" width="87.5" height="93.3"/>
			<path id="Shape_10" class="st2" d="M148.5,44.7c0.2,0,0.3,0.1,0.3,0.3v93.2c0,0.2-0.1,0.3-0.3,0.3H61.1c-0.2,0-0.3-0.1-0.3-0.3
				V45c0-0.2,0.1-0.3,0.3-0.3H148.5z M61.4,137.9h86.9V45.3H61.4V137.9z"/>
			<rect id="Rectangle_2" x="66.7" y="52.2" class="st1" width="76.2" height="68.5"/>
			<path id="Shape_11" class="st4" d="M142.9,51.9c0.2,0,0.3,0.1,0.3,0.3v68.4c0,0.1,0,0.2-0.1,0.2c-0.1,0.1-0.1,0.1-0.2,0.1H66.7
				c-0.2,0-0.3-0.1-0.3-0.3V52.2c0-0.2,0.1-0.3,0.3-0.3H142.9z M67,120.3h75.6V52.5H67V120.3z"/>
			<path id="Path_19" class="st3" d="M134.4,76.1c-1.1,1.2-2.1,2.5-3.3,3.6c-3,3-6,6-9,9.1c-0.1,0.1-0.2,0.2-0.3,0.3
				c-0.5,0.2-1.2,0.8-1.6,0.6c-0.5-0.4-0.8-1-0.8-1.6c-0.1-2.3,0-4.7,0-7.2c-1,0-1.9,0-2.8,0c-3.5,0.2-6.9,0.9-9.9,2.7
				c-3.8,2.1-6.2,6-6.3,10.3c0,1.2,0.2,2.3,0.6,3.4c0.1,0.6,0.5,1.2-0.3,1.5c-0.6,0-1.1-0.3-1.4-0.7c-0.9-1.9-1.7-3.8-2.3-5.9
				C94.8,82.7,100,74,109.4,71c2.7-0.9,5.5-1.3,8.4-1.3h1.4c0-1.8,0-3.6,0-5.3c0-0.8,0-1.7,0.2-2.5c0.2-0.9,0.8-1.2,1.6-0.7
				c0.3,0.2,0.6,0.5,0.9,0.8c3.8,3.8,7.6,7.6,11.4,11.4c0.4,0.4,0.7,0.9,1,1.4L134.4,76.1z"/>
			<path id="Path_20" class="st3" d="M87,110.2c-2.1-0.4-4.1-1.5-5.5-3.1c-1.4-1.6-2.2-3.7-2.1-5.8c0-8.2,0-16.5,0-24.7
				c0-2.3,0.9-4.6,2.6-6.3c1.7-1.7,3.9-2.6,6.3-2.6c1.5,0,3.1,0,4.6,0c1.2,0,2,0.7,2,1.8c0,1.1-0.8,1.7-2,1.7c-1.5,0-3,0-4.5,0
				c-1.4,0-2.8,0.5-3.9,1.5c-1,1-1.6,2.4-1.6,3.8c0,8.3,0,16.6,0,24.9c0,1.4,0.6,2.8,1.6,3.7c1,1,2.4,1.5,3.8,1.5
				c8.2,0,22.3,0,30.5,0c1.5,0.1,2.9-0.5,3.9-1.5c1-1,1.6-2.4,1.6-3.9c0-2.6,0-5.2,0-7.8c0-1.2,0.5-1.9,1.6-2
				c0.8-0.1,1.9,0.5,1.9,1.3c0,3.5,0.3,7-0.2,10.4c-0.5,3.7-3.4,6.2-7.1,6.9c-0.1,0-0.3,0.1-0.4,0.2L87,110.2z"/>
			<path id="Path_21" class="st4" d="M142.3,127.5H77.8c-0.2,0-0.3-0.1-0.3-0.3c0-0.2,0.1-0.3,0.3-0.3h64.5c0.2,0,0.3,0.1,0.3,0.3
				C142.6,127.4,142.5,127.5,142.3,127.5z"/>
			<path id="Path_22" class="st4" d="M126.3,132.4H77.8c-0.2,0-0.3-0.1-0.3-0.3c0-0.2,0.1-0.3,0.3-0.3h48.5c0.2,0,0.3,0.1,0.3,0.3
				C126.6,132.2,126.5,132.4,126.3,132.4z"/>
			<ellipse id="Oval_3" class="st1" cx="70.3" cy="128.5" rx="3.6" ry="3.6"/>
			<path id="Shape_12" class="st4" d="M67.5,125.7c1.1-1.1,2.8-1.4,4.3-0.8c1.5,0.6,2.4,2,2.4,3.6c0,2.1-1.7,3.9-3.9,3.9
				c-1.6,0-3-0.9-3.6-2.4C66.1,128.5,66.4,126.8,67.5,125.7z M70.3,125.2c-1.3,0-2.5,0.8-3,2c-0.5,1.2-0.2,2.6,0.7,3.6
				c0.9,0.9,2.4,1.2,3.6,0.7c1.2-0.5,2-1.7,2-3C73.6,126.7,72.1,125.2,70.3,125.2z"/>
			<path id="Path_23" class="st1" d="M40.7,51c0,0,3.1,7.2,2.2,12.9c-0.4,3.3-2.8,5.9-5.9,6.8l0.6,10c0,0,0.4,5.1-5.9,4.7
				c-3.7-0.2-7-2.4-8.8-5.6L21,61.5c0,0,6.8-4.5,5.8-11.1C26.7,50.4,35.4,54,40.7,51z"/>
			<path id="Shape_13" class="st2" d="M26.9,50.2c0.1,0,8.6,3.4,13.7,0.5c0.1,0,0.2,0,0.3,0c0.1,0,0.2,0.1,0.2,0.2
				c0.1,0.3,3.2,7.4,2.2,13.1c-0.5,3.3-2.8,6-5.9,7l0.6,9.7c0.1,1.3-0.4,2.6-1.3,3.6c-1,1-2.4,1.5-4.3,1.5h-0.7
				c-3.8-0.3-7.2-2.5-9.1-5.8c0,0,0-0.1,0-0.1l-1.9-18.3c0-0.1,0-0.2,0.1-0.3c0.1-0.1,6.6-4.5,5.7-10.8c0-0.1,0-0.2,0.1-0.3
				C26.6,50.1,26.7,50.1,26.9,50.2z M27.1,50.9c0.6,5.8-4.8,10-5.8,10.8l1.8,18c1.7,3.1,4.9,5.2,8.5,5.4c2,0.1,3.5-0.3,4.4-1.3
				c0.8-0.8,1.2-2,1.2-3.1l-0.6-9.9c0-0.2,0.1-0.3,0.2-0.3c3-0.9,5.3-3.5,5.7-6.6c0.8-4.9-1.5-11-2.1-12.5
				C35.9,53.8,29,51.6,27.1,50.9z"/>
			<path id="Path_24" class="st1" d="M24.3,60c0,0-3.6-6.7-6.7-2.1c-3.2,4.6,2.2,9,5.2,8.4"/>
			<path id="Path_25" class="st2" d="M22.2,66.7c-1.7,0-3.8-1.2-5-3c-1.3-1.8-1.2-4.2,0.1-6c0.8-1.2,1.8-1.8,2.9-1.7
				c2.4,0.1,4.4,3.7,4.4,3.9c0.1,0.1,0,0.3-0.1,0.4c-0.1,0.1-0.3,0-0.4-0.1c0,0-1.9-3.4-3.9-3.6c-0.8,0-1.6,0.4-2.3,1.5
				c-1.2,1.5-1.2,3.7-0.1,5.3c1.2,1.8,3.4,3,5,2.7c0.2,0,0.3,0.1,0.4,0.2c0,0.1,0,0.2,0,0.2s-0.1,0.1-0.2,0.1
				C22.7,66.7,22.5,66.7,22.2,66.7z"/>
			<path id="Path_26" class="st2" d="M38.1,63.9c-0.5,0-1,0-1.5-0.1c-0.1,0-0.2-0.1-0.2-0.1c0-0.1-0.1-0.2,0-0.2
				c0-0.1,0.1-0.2,0.1-0.2c0.1,0,0.2-0.1,0.2,0c0,0,2,0.4,3-0.2c0.1-0.8-1.8-3.4-3.2-5c-0.1-0.1-0.1-0.1-0.1-0.2
				c0-0.1,0-0.2,0.1-0.2c0.1-0.1,0.3-0.1,0.4,0c0.6,0.7,3.5,4.2,3.3,5.5c0,0.2-0.1,0.4-0.3,0.5C39.4,63.8,38.7,63.9,38.1,63.9z"/>
			<path id="Path_27" class="st2" d="M36.9,70.8c0,0-5.3,1-8.4,0.4c0,0,3.9,7.6,8.9,7.3L36.9,70.8z"/>
			<path id="Shape_14" class="st2" d="M36.9,70.5c0.1,0,0.2,0,0.2,0.1c0.1,0.1,0.1,0.1,0.1,0.2l0.5,7.7c0,0.2-0.1,0.3-0.3,0.3
				c-0.1,0-0.3,0-0.4,0c-5,0-8.7-7.1-8.8-7.5c-0.1-0.1-0.1-0.2,0-0.3c0.1-0.1,0.2-0.1,0.3-0.1C31.6,71.5,36.8,70.5,36.9,70.5z
				 M36.6,71.1c-1.1,0.2-4.8,0.8-7.5,0.5c1,1.7,4.1,6.6,8,6.6L36.6,71.1z"/>
			
				<ellipse id="Oval_4" transform="matrix(0.9929 -0.1193 0.1193 0.9929 -6.5318 4.3951)" class="st2" cx="33.5" cy="56.8" rx="0.8" ry="1.4"/>
			
				<ellipse id="Oval_5" transform="matrix(0.9929 -0.1193 0.1193 0.9929 -6.4537 5.2071)" class="st2" cx="40.3" cy="56.5" rx="0.8" ry="1.4"/>
			<path id="Path_28" class="st2" d="M34.9,66.8c-0.5,0-0.9-0.1-1.3-0.3c-1.5-0.7-2.5-2.5-2.9-5.5c0-0.2,0.1-0.3,0.3-0.4
				c0.2,0,0.3,0.1,0.4,0.3c0.4,2.7,1.2,4.4,2.5,5c1.6,0.7,3.3-0.5,3.4-0.5c0.1-0.1,0.2-0.1,0.3,0c0.1,0,0.2,0.1,0.2,0.3
				c0,0.1,0,0.2-0.1,0.3C36.8,66.5,35.9,66.8,34.9,66.8z"/>
			<path id="Path_29" class="st1" d="M118.5,138.6c-0.1-0.7-0.2-1.4-0.2-2.1c0-1.4,0.2-2.9,0.7-4.2c0.1-0.6,0.5-1.2,1-1.6
				c0.5-0.4,1.2-0.3,1.7,0.1c0.2,0.5,0.3,1.1,0.1,1.6c-0.3,1.4-0.4,2.9-0.2,4.4c0.2-2,0.5-4,1.6-5.7c0.2-0.4,0.5-0.7,0.9-1
				c0.4-0.2,0.9-0.2,1.3,0c0.6,0.4,0.5,1.2,0.4,1.9c-0.2,1.7-0.1,3.5,0.1,5.2c-0.1-1.5,0-3.1,0.3-4.5c0.2-1,0.7-2.1,1.6-2.4
				c0.2-0.1,0.4-0.1,0.6,0c0.4,0.1,0.8,0.5,0.8,1c0.1,0.4,0.1,0.9,0,1.3c-0.2,1.8-0.1,3.5,0.2,5.3c-0.2-1.5-0.2-3.1,0.2-4.6
				c0.1-0.6,0.3-1.2,0.7-1.7c0.4-0.5,1-0.7,1.6-0.5c0.4,0.2,0.7,0.6,0.8,1.1c0.1,0.5,0.1,0.9,0.1,1.4c0,1.8,0.3,3.5,1,5.2
				c0.6,1.4,1.3,2.9,1.2,4.4c-0.2,1.6-1.3,3-2.9,3.5c-1.5,0.5-3.2,0.6-4.7,0.2c-5.1-1-9.4-3.5-11.2-8.4"/>
			<path id="Path_30" class="st2" d="M129.3,147.6c-0.7,0-1.5-0.1-2.2-0.2c-5.9-1.2-9.8-4.1-11.5-8.6c-0.1-0.2,0-0.4,0.2-0.4
				c0.2-0.1,0.4,0,0.4,0.2c1.6,4.3,5.3,7.1,11,8.2c1.5,0.4,3.1,0.3,4.5-0.2c1.4-0.5,2.4-1.8,2.7-3.3c0.1-1.3-0.4-2.6-1-3.8l-0.2-0.4
				c-0.7-1.7-1-3.5-1-5.3v-0.2c0-0.4,0-0.7,0-1.1c-0.1-0.4-0.3-0.7-0.6-0.9c-0.5-0.1-0.9,0-1.2,0.4c-0.3,0.4-0.5,1-0.6,1.5
				c-0.3,1.5-0.4,3-0.2,4.5c0,0.2-0.1,0.3-0.3,0.4c-0.2,0-0.3-0.1-0.3-0.2c-0.3-1.8-0.3-3.6-0.2-5.3v-0.1c0.1-0.4,0.1-0.8,0-1.1
				c-0.1-0.3-0.3-0.6-0.6-0.7c-0.2,0-0.3,0-0.5,0c-0.7,0.2-1.1,0.9-1.4,2.1c-0.3,1.5-0.4,3-0.3,4.4c0,0.1-0.1,0.3-0.3,0.3
				c-0.1,0-0.3-0.1-0.3-0.2c-0.2-1.8-0.3-3.5-0.1-5.3c0.1-0.6,0.1-1.3-0.3-1.6c-0.3-0.2-0.6-0.2-0.9,0c-0.3,0.2-0.6,0.5-0.8,0.8
				c-1.1,1.6-1.3,3.7-1.5,5.6c0,0.2-0.2,0.3-0.3,0.3c-0.2,0-0.3-0.1-0.3-0.3c-0.2-1.5-0.1-3,0.2-4.5c0.2-0.4,0.2-0.9,0-1.3
				c-0.1-0.1-0.3-0.2-0.4-0.2c-0.3,0-0.6,0-0.8,0.2c-0.4,0.4-0.7,0.9-0.8,1.4c-0.5,1.3-0.7,2.7-0.7,4.1c0,0.2,0,0.4,0,0.6
				c0,0.5,0.1,1,0.2,1.5c0,0.1-0.1,0.3-0.3,0.3c-0.1,0-0.3-0.1-0.4-0.2c-0.1-0.5-0.1-1-0.2-1.5c0-0.2,0-0.4,0-0.6
				c-0.1-1.5,0.2-3,0.7-4.4c0.2-0.7,0.5-1.3,1.1-1.7c0.4-0.3,0.8-0.4,1.2-0.3c0.3,0,0.6,0.2,0.9,0.5c0.3,0.6,0.4,1.3,0.1,1.9
				c0,0,0,0.1,0,0.1c0.2-0.6,0.5-1.1,0.8-1.6c0.3-0.4,0.6-0.8,1.1-1.1c0.5-0.3,1.1-0.3,1.6,0c0.6,0.5,0.6,1.3,0.6,1.9
				c0.2-0.8,0.8-1.5,1.6-1.8c0.3-0.1,0.5-0.1,0.8,0c0.6,0.2,1,0.7,1.1,1.2c0.1,0.3,0.1,0.6,0.1,0.9c0.1-0.2,0.2-0.4,0.4-0.6
				c0.5-0.6,1.3-0.8,2-0.6c0.5,0.3,0.9,0.8,1,1.3c0.1,0.4,0.1,0.8,0.1,1.2v0.2c0,1.7,0.3,3.4,0.9,5l0.2,0.4c0.5,1.2,1.1,2.7,1,4.1
				c-0.2,1.7-1.4,3.2-3.1,3.8C131.2,147.5,130.3,147.7,129.3,147.6z"/>
			<path id="Path_31" class="st1" d="M183.6,103.9l-0.9,14.3c0,0-29.2-23-34.1-24v4c0,0-8.1-1-8.8,0.6c-0.6,1.6,0.5,7.8,2.6,9
				c1.2,0.8,11.8,0.8,11.8,0.8s1.5,3.6,16,17c14.5,13.3,28.1,20.5,29,8c0.9-12.5,1.9-33.6,1.9-33.6"/>
			<path id="Path_32" class="st2" d="M193.7,140.3c-5.1,0-13.6-5.1-23.8-14.5c-12.8-11.7-15.5-16-16-16.9c-1.7,0-10.5-0.1-11.7-0.9
				c-2.3-1.4-3.4-7.7-2.7-9.4c0.7-1.7,6.8-1.1,8.8-0.9v-3.7c0-0.1,0-0.2,0.1-0.2c0.1-0.1,0.2-0.1,0.3-0.1
				c4.6,0.9,29.9,20.6,33.8,23.7l0.9-13.6c0-0.1,0-0.3,0.1-0.3c0.1-0.1,0.3-0.1,0.4,0s0.1,0.2,0.1,0.4l-0.9,14.2
				c0,0.1-0.1,0.2-0.2,0.3c-0.1,0.1-0.2,0-0.3,0c-0.3-0.2-27.9-21.9-33.6-23.8v3.6c0,0.1,0,0.2-0.1,0.2c-0.1,0.1-0.2,0.1-0.3,0.1
				c-3.3-0.4-8.1-0.5-8.4,0.4c-0.6,1.5,0.5,7.5,2.4,8.6c0.9,0.5,7.4,0.7,11.6,0.8c0.1,0,0.2,0.1,0.3,0.2c0,0,1.7,3.8,15.9,16.9
				c11.6,10.7,20.8,15.8,25.3,14c1.9-0.7,2.9-2.7,3.1-5.8c0.8-12.3,1.9-33.3,1.9-33.6c0-0.1,0-0.2,0.1-0.2c0.1-0.1,0.1-0.1,0.2-0.1
				c0.1,0,0.2,0,0.2,0.1c0.1,0.1,0.1,0.1,0.1,0.2c0,0.2-1.1,21.2-1.9,33.6c-0.2,3.4-1.4,5.6-3.5,6.4
				C195.2,140.2,194.4,140.4,193.7,140.3z"/>
			<path id="Path_33" class="st1" d="M182.7,118.1l7,5.2L182.7,118.1z"/>
			<path id="Path_34" class="st2" d="M189.7,123.6c-0.1,0-0.1,0-0.2-0.1l-7-5.2c-0.1-0.1-0.2-0.3-0.1-0.5c0.1-0.1,0.3-0.2,0.4-0.1
				l7,5.2c0.1,0.1,0.2,0.2,0.1,0.4C189.9,123.6,189.8,123.6,189.7,123.6z"/>
			<path id="Path_35" class="st1" d="M20.5,92.4c0,0,12,22.2,12.3,23.1c0.1,0.3,24.7-12.9,25.6-14.7c-0.3-2-0.1-4.1,0.6-6
				c0.4-1.1,1.1-1.2,2-1.9c-0.1,1.3-0.1,2.6-0.1,3.9c1.7-1.7,3.4-3.4,5.3-4.8c0.4-0.4,1-0.6,1.6-0.5c0.3,0.1,0.5,0.3,0.6,0.6
				c2.6,3.6,0.4,7.9-1.4,11.2c-3.4,6.3-8.6,10.2-14.1,14.6c-3.7,2.9-7.5,5.6-11.4,8.2c-3,2.1-6.3,3.8-9.7,5.3c-2,0.8-4.8,1.9-7,0.9
				c-7.8-3.6-16.8-22.1-19.2-30.2"/>
			<path id="Path_36" class="st2" d="M26.9,133c-0.7,0-1.5-0.1-2.1-0.4c-4.4-2-8.8-8.5-11.8-13.5c-3.1-5.3-5.7-11-7.6-16.9
				c0-0.2,0.1-0.3,0.2-0.4c0.2,0,0.3,0,0.4,0.2c2.5,8.4,11.5,26.6,19,30c2,0.9,4.5,0,6.7-0.9c3.4-1.4,6.6-3.2,9.6-5.2
				c3.9-2.5,7.7-5.2,11.4-8.2l0.9-0.8c5.1-4.1,9.9-7.9,13.1-13.8c1.9-3.5,3.8-7.6,1.4-10.9c-0.1-0.2-0.3-0.4-0.5-0.5
				c-0.4-0.2-0.9,0.2-1.2,0.5c-1.9,1.5-3.7,3.1-5.3,4.8c-0.1,0.1-0.2,0.1-0.3,0.1c-0.1,0-0.2-0.1-0.2-0.3c0-0.6,0-2.2,0-3.3
				l-0.2,0.1c-0.5,0.3-0.9,0.7-1.1,1.2c-0.7,1.9-0.8,3.9-0.6,5.8c0,0.1,0,0.1,0,0.2c-0.5,1-7.4,5-13.1,8.1
				c-3.2,1.8-12.3,6.7-12.9,6.7c-0.1,0-0.2-0.1-0.3-0.2c-0.2-0.7-8.2-15.4-12.3-23.1c-0.1-0.2,0-0.3,0.1-0.4c0.2-0.1,0.3,0,0.4,0.1
				c0.5,0.9,10.9,20.3,12.2,22.9c2.7-1.1,23.8-12.7,25.1-14.4c-0.3-2-0.1-4.1,0.6-6c0.3-0.6,0.7-1.2,1.4-1.5
				c0.3-0.2,0.5-0.3,0.7-0.5c0.1-0.1,0.2-0.1,0.4,0c0.1,0.1,0.2,0.2,0.2,0.3c-0.1,1-0.1,2.1-0.1,3.2c1.5-1.6,3.1-3,4.9-4.3
				c0.5-0.4,1.2-0.8,1.9-0.6c0.3,0.1,0.6,0.4,0.8,0.7c2.8,3.9,0.2,8.7-1.4,11.6c-3.3,6-8.1,9.9-13.2,14l-1,0.8
				c-3.7,2.9-7.5,5.7-11.4,8.2c-3.1,2.1-6.3,3.8-9.7,5.3C30.4,132.4,28.7,132.9,26.9,133z"/>
			<path id="Path_37" class="st2" d="M20.5,92.7c-0.1,0-0.2-0.1-0.3-0.2l-6-10.3c-0.1-0.1,0-0.3,0.1-0.4s0.3,0,0.4,0.1l6,10.3
				c0,0.1,0.1,0.2,0,0.2c0,0.1-0.1,0.1-0.1,0.2C20.6,92.7,20.5,92.7,20.5,92.7z"/>
			<path id="Path_38" class="st2" d="M183.6,104.2c-0.1,0-0.2,0-0.2-0.1c-0.1-0.1-0.1-0.1-0.1-0.2l1.3-14.4c0-0.2,0.2-0.3,0.3-0.3
				c0.1,0,0.2,0,0.2,0.1c0.1,0.1,0.1,0.2,0.1,0.2l-1.3,14.4c0,0.1,0,0.2-0.1,0.2C183.8,104.2,183.7,104.2,183.6,104.2z"/>
		</g>
	</g>
</g>
</svg>
