<?xml version="1.0" encoding="utf-8"?>
<!-- Generator: Adobe Illustrator 24.0.1, SVG Export Plug-In . SVG Version: 6.00 Build 0)  -->
<svg version="1.1" id="Capa_1" xmlns="http://www.w3.org/2000/svg" xmlns:xlink="http://www.w3.org/1999/xlink" x="0px" y="0px"
	 viewBox="0 0 202 202" style="enable-background:new 0 0 202 202;" xml:space="preserve">
<style type="text/css">
	.st0{opacity:0.2027;fill:url(#SVGID_1_);enable-background:new    ;}
	.st1{fill:#FFFFFF;}
	.st2{fill-rule:evenodd;clip-rule:evenodd;fill:#231F20;}
	.st3{fill:#D1D3D4;}
	.st4{fill:#231F20;}
	.st5{fill:#E7816B;}
</style>
<linearGradient id="SVGID_1_" gradientUnits="userSpaceOnUse" x1="-516" y1="616.8898" x2="-314" y2="616.8898" gradientTransform="matrix(0 -1 1 0 -515.8898 -314)">
	<stop  offset="0" style="stop-color:#5D0202;stop-opacity:1.000000e-02"/>
	<stop  offset="1" style="stop-color:#5D0202;stop-opacity:0.4976"/>
</linearGradient>
<circle class="st0" cx="101" cy="101" r="101"/>
<rect x="79.2" y="107" class="st1" width="47.2" height="65.1"/>
<path class="st2" d="M79.2,172.4h47.2c0.1,0,0.2,0,0.2-0.1c0.1-0.1,0.1-0.1,0.1-0.2V107c0-0.2-0.1-0.3-0.3-0.3H79.2
	c-0.2,0-0.3,0.1-0.3,0.3V172C78.9,172.2,79,172.4,79.2,172.4z M126.1,171.7H79.5v-64.4h46.6V171.7z"/>
<path class="st3" d="M124.3,114.6h-43c-0.2,0-0.3-0.1-0.3-0.3c0-0.2,0.1-0.3,0.3-0.3h43c0.2,0,0.3,0.1,0.3,0.3c0,0.1,0,0.2-0.1,0.2
	C124.5,114.6,124.4,114.6,124.3,114.6z"/>
<path class="st3" d="M124.3,121.7h-43c-0.2,0-0.3-0.1-0.3-0.3c0-0.2,0.1-0.3,0.3-0.3h43c0.2,0,0.3,0.1,0.3,0.3c0,0.1,0,0.2-0.1,0.2
	C124.5,121.7,124.4,121.7,124.3,121.7z"/>
<path class="st3" d="M124.3,128.8h-43c-0.2,0-0.3-0.1-0.3-0.3c0-0.2,0.1-0.3,0.3-0.3h43c0.2,0,0.3,0.1,0.3,0.3c0,0.1,0,0.2-0.1,0.2
	C124.5,128.8,124.4,128.8,124.3,128.8z"/>
<path class="st3" d="M124.3,135.9h-43c-0.2,0-0.3-0.1-0.3-0.3c0-0.2,0.1-0.3,0.3-0.3h43c0.2,0,0.3,0.1,0.3,0.3
	C124.7,135.8,124.5,135.9,124.3,135.9z"/>
<path class="st3" d="M124.3,143h-43c-0.2,0-0.3-0.1-0.3-0.3c0-0.2,0.1-0.3,0.3-0.3h43c0.2,0,0.3,0.1,0.3,0.3c0,0.1,0,0.2-0.1,0.2
	C124.5,143,124.4,143,124.3,143z"/>
<path class="st3" d="M124.3,150.1h-43c-0.2,0-0.3-0.1-0.3-0.3c0-0.2,0.1-0.3,0.3-0.3h43c0.2,0,0.3,0.1,0.3,0.3c0,0.1,0,0.2-0.1,0.2
	C124.5,150.1,124.4,150.1,124.3,150.1z"/>
<path class="st3" d="M124.3,157.2h-43c-0.2,0-0.3-0.1-0.3-0.3c0-0.2,0.1-0.3,0.3-0.3h43c0.2,0,0.3,0.1,0.3,0.3c0,0.1,0,0.2-0.1,0.2
	C124.5,157.2,124.4,157.2,124.3,157.2z"/>
<path class="st3" d="M124.3,164.3h-43c-0.2,0-0.3-0.1-0.3-0.3s0.1-0.3,0.3-0.3h43c0.2,0,0.3,0.1,0.3,0.3S124.5,164.3,124.3,164.3z"
	/>
<rect x="86.2" y="103.2" class="st4" width="40.2" height="3.8"/>
<path class="st2" d="M86.2,107.3h40.2c0.1,0,0.2,0,0.2-0.1c0.1-0.1,0.1-0.1,0.1-0.2v-3.7c0-0.2-0.1-0.3-0.3-0.3H86.2
	c-0.2,0-0.3,0.1-0.3,0.3v3.8C85.9,107.1,86,107.3,86.2,107.3z M126.1,106.6H86.5v-3.1h39.6V106.6z"/>
<rect x="57" y="123.8" class="st1" width="13.2" height="48.3"/>
<path class="st2" d="M57,172.4h13.2c0.1,0,0.2,0,0.2-0.1c0.1-0.1,0.1-0.2,0.1-0.2v-48.3c0-0.2-0.1-0.3-0.3-0.3H57
	c-0.2,0-0.3,0.1-0.3,0.3V172C56.6,172.2,56.8,172.4,57,172.4z M69.8,171.7H57.3l0-47.6h12.5V171.7z"/>
<rect x="31.7" y="117.6" class="st1" width="25.7" height="54.4"/>
<path class="st2" d="M31.7,172.4h25.7c0.1,0,0.2,0,0.2-0.1c0.1-0.1,0.1-0.1,0.1-0.2v-54.4c0-0.2-0.1-0.3-0.3-0.3H31.7
	c-0.2,0-0.3,0.1-0.3,0.3V172C31.4,172.2,31.5,172.4,31.7,172.4z M57.1,171.7H32l0-53.8h25.1V171.7z"/>
<path class="st3" d="M56.3,124H32.8c-0.2,0-0.3-0.1-0.3-0.3s0.1-0.3,0.3-0.3h23.4c0.2,0,0.3,0.1,0.3,0.3S56.4,124,56.3,124z"/>
<path class="st3" d="M56.3,130H32.8c-0.2,0-0.3-0.1-0.3-0.3s0.1-0.3,0.3-0.3h23.4c0.2,0,0.3,0.1,0.3,0.3S56.4,130,56.3,130z"/>
<path class="st3" d="M56.3,135.9H32.8c-0.2,0-0.3-0.1-0.3-0.3s0.1-0.3,0.3-0.3h23.4c0.2,0,0.3,0.1,0.3,0.3S56.4,135.9,56.3,135.9z"
	/>
<path class="st3" d="M56.3,141.9H32.8c-0.2,0-0.3-0.1-0.3-0.3c0-0.2,0.1-0.3,0.3-0.3h23.4c0.2,0,0.3,0.1,0.3,0.3
	C56.6,141.7,56.4,141.9,56.3,141.9z"/>
<path class="st3" d="M56.3,147.8H32.8c-0.2,0-0.3-0.1-0.3-0.3s0.1-0.3,0.3-0.3h23.4c0.2,0,0.3,0.1,0.3,0.3S56.4,147.8,56.3,147.8z"
	/>
<path class="st3" d="M56.3,153.8H32.8c-0.2,0-0.3-0.1-0.3-0.3s0.1-0.3,0.3-0.3h23.4c0.2,0,0.3,0.1,0.3,0.3S56.4,153.8,56.3,153.8z"
	/>
<path class="st3" d="M56.3,159.7H32.8c-0.2,0-0.3-0.1-0.3-0.3s0.1-0.3,0.3-0.3h23.4c0.2,0,0.3,0.1,0.3,0.3S56.4,159.7,56.3,159.7z"
	/>
<path class="st3" d="M56.3,165.6H32.8c-0.2,0-0.3-0.1-0.3-0.3c0-0.2,0.1-0.3,0.3-0.3h23.4c0.2,0,0.3,0.1,0.3,0.3
	C56.6,165.5,56.4,165.6,56.3,165.6z"/>
<rect x="31.7" y="114.5" class="st4" width="21.9" height="3.1"/>
<path class="st2" d="M31.7,117.9h21.9c0.2,0,0.3-0.1,0.3-0.3v-3.1c0-0.2-0.1-0.3-0.3-0.3H31.7c-0.2,0-0.3,0.1-0.3,0.3v3.1
	C31.4,117.8,31.5,117.9,31.7,117.9z M53.3,117.3H32v-2.5h21.3V117.3z"/>
<rect x="64.7" y="128" class="st3" width="2.4" height="0.6"/>
<rect x="60.4" y="135.1" class="st3" width="2.4" height="0.6"/>
<rect x="63.5" y="141.7" class="st3" width="2.4" height="0.6"/>
<path class="st5" d="M93.5,157.4c-6-9.5-21.1-16.3-38.9-16.3c-17.8,0-32.9,6.8-38.9,16.3H93.5z"/>
<path class="st2" d="M15.8,157.7h77.7c0.1,0,0.1-0.1,0.2-0.1c0.1-0.1,0.1-0.2,0-0.3c-6.1-9.8-21.9-16.4-39.1-16.4
	s-32.9,6.6-39.1,16.4c-0.1,0.1-0.1,0.2,0,0.3C15.6,157.7,15.7,157.7,15.8,157.7z M93,157.1H16.3c6.2-9.4,21.5-15.7,38.3-15.7
	C71.4,141.4,86.7,147.7,93,157.1z"/>
<path class="st4" d="M92.2,162.5H19.1l-3.2-5.3h77.5L92.2,162.5z"/>
<path class="st2" d="M19.1,162.9h73.1c0.2,0,0.3-0.1,0.3-0.3l1.2-5.3c0-0.1,0-0.2-0.1-0.3c-0.1-0.1-0.2-0.1-0.3-0.1H15.9
	c-0.1,0-0.2,0.1-0.3,0.2c-0.1,0.1-0.1,0.2,0,0.3l3.2,5.3C18.8,162.8,18.9,162.9,19.1,162.9z M91.9,162.2H19.2l-2.8-4.6H93
	L91.9,162.2z"/>
<rect x="17.3" y="162.5" class="st4" width="76.1" height="9.5"/>
<path class="st2" d="M17.3,172.4h76.1c0.2,0,0.3-0.1,0.3-0.3v-9.5c0-0.2-0.1-0.3-0.3-0.3H17.3c-0.2,0-0.3,0.1-0.3,0.3v9.5
	C17,172.2,17.1,172.4,17.3,172.4z M93.1,171.7H17.6v-8.8h75.4V171.7z"/>
<path class="st5" d="M87.6,158.5c-4.9-7.9-17.5-13.5-32.1-13.5c-14.7,0-27.2,5.6-32.1,13.5H87.6z"/>
<path class="st2" d="M23.3,158.8h64.3c0.1,0,0.2-0.1,0.3-0.1c0.1-0.1,0.1-0.2,0-0.3c-5.1-8.1-18.1-13.6-32.4-13.6
	s-27.3,5.5-32.4,13.6c-0.1,0.1-0.1,0.2,0,0.3C23.1,158.7,23.2,158.8,23.3,158.8z M87,158.3H23.9c5.2-7.8,17.8-12.9,31.6-12.9
	S81.9,150.6,87,158.3z"/>
<path class="st2" d="M32,158.8h47c0.1,0,0.2,0,0.3-0.1c0.1-0.1,0.1-0.2,0-0.3c-3.7-8.2-13.3-13.7-23.8-13.7
	c-10.5,0-20,5.5-23.8,13.7c-0.1,0.1-0.1,0.2,0,0.3C31.8,158.8,31.9,158.8,32,158.8z M78.4,158.2h-46c3.8-7.7,12.9-12.8,23-12.8
	C65.5,145.4,74.7,150.5,78.4,158.2z"/>
<path class="st2" d="M41.8,158.8h27.3c0.1,0,0.2,0,0.3-0.1c0.1-0.1,0.1-0.2,0.1-0.3c-2.2-8.2-7.8-13.7-13.9-13.7
	c-6.2,0-11.8,5.5-13.9,13.7c0,0.1,0,0.2,0.1,0.3C41.6,158.8,41.7,158.8,41.8,158.8z M68.7,158.2H42.2c2.2-7.7,7.5-12.8,13.2-12.8
	S66.5,150.5,68.7,158.2z"/>
<path class="st2" d="M51.4,158.8h8.1c0.1,0,0.2,0,0.2-0.1c0.1-0.1,0.1-0.2,0.1-0.2c-0.5-6.7-1.9-13.8-4.4-13.8
	c-2.5,0-3.9,7.1-4.4,13.8c0,0.1,0,0.2,0.1,0.2C51.2,158.8,51.3,158.8,51.4,158.8z M59.2,158.2h-7.4c0.7-8.4,2.4-12.8,3.7-12.8
	C56.8,145.4,58.5,149.8,59.2,158.2z"/>
<path class="st1" d="M86.5,162.7H24.4l-1-4.4h64.1L86.5,162.7z"/>
<path class="st2" d="M24.4,163.1h62.1c0.2,0,0.3-0.1,0.3-0.3l1-4.3c0-0.1,0-0.2-0.1-0.3c-0.1-0.1-0.2-0.1-0.3-0.1H23.4
	c-0.1,0-0.2,0-0.2,0.1c-0.1,0.1-0.1,0.2-0.1,0.3l1,4.3C24.1,163,24.3,163.1,24.4,163.1z M86.2,162.4H24.7l-0.9-3.7h63.3L86.2,162.4z
	"/>
<rect x="23.4" y="162.7" class="st5" width="64.1" height="9.3"/>
<path class="st2" d="M23.4,172.3h64.1c0.1,0,0.2,0,0.2-0.1c0.1-0.1,0.1-0.1,0.1-0.2v-9.3c0-0.2-0.1-0.3-0.3-0.3H23.4
	c-0.2,0-0.3,0.1-0.3,0.3v9.3C23.1,172.2,23.2,172.3,23.4,172.3z M87.2,171.7H23.7V163h63.5V171.7z"/>
<path class="st3" d="M87.1,160.9H25.6c-0.2,0-0.3-0.1-0.3-0.3c0-0.2,0.1-0.3,0.3-0.3h61.5c0.2,0,0.3,0.1,0.3,0.3
	C87.4,160.7,87.3,160.9,87.1,160.9z"/>
<rect x="25.9" y="165.4" class="st4" width="12.2" height="6.7"/>
<path class="st2" d="M25.9,172.4h12.2c0.1,0,0.2,0,0.2-0.1c0.1-0.1,0.1-0.1,0.1-0.2v-6.7c0-0.2-0.1-0.3-0.3-0.3H25.9
	c-0.2,0-0.3,0.1-0.3,0.3v6.7C25.6,172.2,25.7,172.4,25.9,172.4z M37.8,171.7H26.2v-6h11.5V171.7z"/>
<path class="st1" d="M29,172.4c-0.2,0-0.3-0.1-0.3-0.3v-6.7c0-0.2,0.1-0.3,0.3-0.3c0.2,0,0.3,0.1,0.3,0.3v6.7c0,0.1,0,0.2-0.1,0.2
	C29.2,172.3,29.1,172.4,29,172.4z"/>
<path class="st1" d="M32,172.4c-0.2,0-0.3-0.1-0.3-0.3v-6.7c0-0.2,0.1-0.3,0.3-0.3c0.2,0,0.3,0.1,0.3,0.3v6.7c0,0.1,0,0.2-0.1,0.2
	C32.2,172.3,32.1,172.4,32,172.4z"/>
<path class="st1" d="M35,172.4c-0.2,0-0.3-0.1-0.3-0.3v-6.7c0-0.2,0.1-0.3,0.3-0.3c0.2,0,0.3,0.1,0.3,0.3v6.7c0,0.1,0,0.2-0.1,0.2
	C35.2,172.3,35.1,172.4,35,172.4z"/>
<rect x="41.5" y="165.4" class="st4" width="12.2" height="6.7"/>
<path class="st2" d="M41.5,172.4h12.2c0.1,0,0.2,0,0.2-0.1c0.1-0.1,0.1-0.1,0.1-0.2v-6.7c0-0.2-0.1-0.3-0.3-0.3H41.5
	c-0.2,0-0.3,0.1-0.3,0.3v6.7C41.2,172.2,41.4,172.4,41.5,172.4z M53.4,171.7H41.9v-6h11.5V171.7z"/>
<path class="st1" d="M44.7,172.4c-0.2,0-0.3-0.1-0.3-0.3v-6.7c0-0.2,0.1-0.3,0.3-0.3c0.2,0,0.3,0.1,0.3,0.3v6.7c0,0.1,0,0.2-0.1,0.2
	C44.8,172.3,44.7,172.4,44.7,172.4z"/>
<path class="st1" d="M47.6,172.4c-0.2,0-0.3-0.1-0.3-0.3v-6.7c0-0.2,0.1-0.3,0.3-0.3c0.2,0,0.3,0.1,0.3,0.3v6.7c0,0.1,0,0.2-0.1,0.2
	C47.8,172.3,47.7,172.4,47.6,172.4z"/>
<path class="st1" d="M50.6,172.4c-0.2,0-0.3-0.1-0.3-0.3v-6.7c0-0.2,0.1-0.3,0.3-0.3c0.2,0,0.3,0.1,0.3,0.3v6.7c0,0.1,0,0.2-0.1,0.2
	C50.8,172.3,50.7,172.4,50.6,172.4z"/>
<rect x="57.2" y="165.4" class="st4" width="12.2" height="6.7"/>
<path class="st2" d="M57.2,172.4h12.2c0.1,0,0.2,0,0.2-0.1c0.1-0.1,0.1-0.1,0.1-0.2v-6.7c0-0.2-0.1-0.3-0.3-0.3H57.2
	c-0.2,0-0.3,0.1-0.3,0.3v6.7C56.9,172.2,57,172.4,57.2,172.4z M69,171.7H57.5v-6H69V171.7z"/>
<path class="st1" d="M60.3,172.4c-0.2,0-0.3-0.1-0.3-0.3v-6.7c0-0.2,0.1-0.3,0.3-0.3c0.2,0,0.3,0.1,0.3,0.3v6.7c0,0.1,0,0.2-0.1,0.2
	C60.5,172.3,60.4,172.4,60.3,172.4z"/>
<path class="st1" d="M63.3,172.4c-0.2,0-0.3-0.1-0.3-0.3v-6.7c0-0.2,0.1-0.3,0.3-0.3c0.2,0,0.3,0.1,0.3,0.3v6.7c0,0.1,0,0.2-0.1,0.2
	C63.4,172.3,63.4,172.4,63.3,172.4z"/>
<path class="st1" d="M66.2,172.4c-0.2,0-0.3-0.1-0.3-0.3v-6.7c0-0.2,0.1-0.3,0.3-0.3c0.2,0,0.3,0.1,0.3,0.3v6.7c0,0.1,0,0.2-0.1,0.2
	C66.4,172.3,66.3,172.4,66.2,172.4z"/>
<rect x="72.8" y="165.4" class="st4" width="12.2" height="6.7"/>
<path class="st2" d="M72.8,172.4H85c0.1,0,0.2,0,0.2-0.1c0.1-0.1,0.1-0.1,0.1-0.2v-6.7c0-0.2-0.1-0.3-0.3-0.3H72.8
	c-0.2,0-0.3,0.1-0.3,0.3v6.7C72.5,172.2,72.6,172.4,72.8,172.4z M84.7,171.7H73.1v-6h11.5V171.7z"/>
<path class="st1" d="M75.9,172.4c-0.2,0-0.3-0.1-0.3-0.3v-6.7c0-0.2,0.1-0.3,0.3-0.3c0.2,0,0.3,0.1,0.3,0.3v6.7c0,0.1,0,0.2-0.1,0.2
	C76.1,172.3,76,172.4,75.9,172.4z"/>
<path class="st1" d="M78.9,172.4c-0.2,0-0.3-0.1-0.3-0.3v-6.7c0-0.2,0.1-0.3,0.3-0.3c0.2,0,0.3,0.1,0.3,0.3v6.7c0,0.1,0,0.2-0.1,0.2
	C79.1,172.3,79,172.4,78.9,172.4z"/>
<path class="st1" d="M81.9,172.4c-0.2,0-0.3-0.1-0.3-0.3v-6.7c0-0.2,0.1-0.3,0.3-0.3c0.2,0,0.3,0.1,0.3,0.3v6.7c0,0.1,0,0.2-0.1,0.2
	C82,172.3,82,172.4,81.9,172.4z"/>
<path class="st4" d="M95.6,36.8c-0.2,0-0.3-0.1-0.3-0.3v-5.6c0-0.2,0.1-0.3,0.3-0.3c0.2,0,0.3,0.1,0.3,0.3v5.6
	C95.9,36.7,95.7,36.8,95.6,36.8z"/>
<rect x="92.9" y="63.9" class="st5" width="5.2" height="3.6"/>
<path class="st2" d="M92.9,67.8h5.2c0.1,0,0.2,0,0.2-0.1s0.1-0.1,0.1-0.2v-3.6c0-0.2-0.1-0.3-0.3-0.3h-5.2c-0.2,0-0.3,0.1-0.3,0.3
	v3.6C92.7,67.7,92.8,67.8,92.9,67.8z M97.9,67.2h-4.6v-3h4.6V67.2z"/>
<rect x="91.9" y="61.6" class="st1" width="7.3" height="2.3"/>
<path class="st2" d="M91.9,64.2h7.3c0.1,0,0.2,0,0.2-0.1c0.1-0.1,0.1-0.1,0.1-0.2v-2.3c0-0.2-0.1-0.3-0.3-0.3h-7.3
	c-0.2,0-0.3,0.1-0.3,0.3v2.3C91.6,64.1,91.7,64.2,91.9,64.2z M98.9,63.6h-6.6v-1.7h6.6V63.6z"/>
<path class="st5" d="M94.1,41.4H97l0.6,20.2h-3.9L94.1,41.4z"/>
<path class="st2" d="M93.6,61.9h3.9c0.1,0,0.1,0,0.2-0.1c0.1-0.1,0.1-0.1,0.1-0.2l-0.5-20.2c0-0.2-0.1-0.3-0.3-0.3h-2.8
	c-0.2,0-0.3,0.1-0.3,0.3l-0.6,20.2c0,0.1,0,0.2,0.1,0.2C93.4,61.8,93.5,61.9,93.6,61.9z M97.2,61.3h-3.3l0.5-19.6h2.2L97.2,61.3z"/>
<path class="st1" d="M98.5,50c0,0.4-0.3,0.7-0.8,1h-4.2c-0.5-0.3-0.8-0.6-0.8-1c0.1-0.4,0.3-0.8,0.7-0.9h4.4
	C98.2,49.2,98.4,49.6,98.5,50z"/>
<path class="st2" d="M93.4,51.3h4.2c0,0,0.1,0,0.1,0c0.5-0.2,0.9-0.7,1-1.3c0-0.5-0.4-1-0.9-1.2c0,0-0.1,0-0.2,0h-4.4
	c-0.1,0-0.1,0-0.2,0c-0.5,0.2-0.8,0.7-0.9,1.2c0.1,0.6,0.4,1.1,1,1.3C93.3,51.3,93.4,51.3,93.4,51.3z M97.6,50.7h-4.1
	C93.2,50.5,93,50.3,93,50c0-0.3,0.3-0.5,0.5-0.6h4.2c0.3,0.2,0.5,0.4,0.5,0.6C98.1,50.2,97.9,50.5,97.6,50.7z"/>
<path class="st4" d="M94.6,36h2l0.1,5.4h-2.2L94.6,36z"/>
<path class="st2" d="M94.5,41.7h2.2c0.1,0,0.1,0,0.2-0.1c0.1-0.1,0.1-0.1,0.1-0.2L96.8,36c0-0.1,0-0.2-0.1-0.2
	c-0.1-0.1-0.1-0.1-0.2-0.1h-1.9c-0.1,0-0.2,0-0.2,0.1c-0.1,0.1-0.1,0.1-0.1,0.2l-0.1,5.4c0,0.1,0,0.2,0.1,0.2
	C94.3,41.7,94.4,41.7,94.5,41.7z M96.3,41.1h-1.6l0.1-4.8h1.3L96.3,41.1z"/>
<path class="st1" d="M88.9,67.4h13.4c0.6,0,1.1,0.5,1.1,1.1v1.8H87.8v-1.8C87.8,67.9,88.3,67.4,88.9,67.4L88.9,67.4z"/>
<path class="st2" d="M87.8,70.6h15.6c0.2,0,0.3-0.1,0.3-0.3v-1.8c0-0.8-0.6-1.4-1.4-1.4H88.9c-0.8,0-1.4,0.6-1.4,1.4v1.8
	C87.5,70.4,87.6,70.6,87.8,70.6z M103,69.9H88.1v-1.4c0-0.4,0.3-0.8,0.8-0.8h13.4c0.2,0,0.4,0.1,0.5,0.2c0.1,0.1,0.2,0.3,0.2,0.5
	V69.9z"/>
<rect x="92.4" y="81.5" class="st4" width="6.4" height="90.5"/>
<path class="st2" d="M92.3,172.4h6.4c0.1,0,0.2,0,0.2-0.1s0.1-0.1,0.1-0.2V81.5c0-0.2-0.1-0.3-0.3-0.3h-6.4c-0.2,0-0.3,0.1-0.3,0.3
	V172C92,172.2,92.2,172.4,92.3,172.4z M98.4,171.7h-5.8V81.8h5.8V171.7z"/>
<path class="st1" d="M97.9,84.3h-4.7c-0.2,0-0.3-0.1-0.3-0.3c0-0.2,0.1-0.3,0.3-0.3h4.7c0.2,0,0.3,0.1,0.3,0.3
	C98.2,84.2,98.1,84.3,97.9,84.3z"/>
<path class="st1" d="M97.9,85.8h-4.7c-0.2,0-0.3-0.1-0.3-0.3c0-0.2,0.1-0.3,0.3-0.3h4.7c0.2,0,0.3,0.1,0.3,0.3
	C98.2,85.6,98.1,85.8,97.9,85.8z"/>
<path class="st1" d="M97.9,87.3h-4.8c-0.2,0-0.3-0.1-0.3-0.3c0-0.2,0.1-0.3,0.3-0.3h4.8c0.2,0,0.3,0.1,0.3,0.3
	C98.3,87.2,98.1,87.3,97.9,87.3z"/>
<path class="st1" d="M98,88.8h-4.8c-0.2,0-0.3-0.1-0.3-0.3c0-0.2,0.1-0.3,0.3-0.3H98c0.2,0,0.3,0.1,0.3,0.3
	C98.3,88.7,98.1,88.8,98,88.8z"/>
<path class="st1" d="M98,90.4h-4.9c-0.2,0-0.3-0.1-0.3-0.3s0.1-0.3,0.3-0.3H98c0.2,0,0.3,0.1,0.3,0.3S98.2,90.4,98,90.4z"/>
<path class="st1" d="M98,92h-4.9c-0.2,0-0.3-0.1-0.3-0.3c0-0.2,0.1-0.3,0.3-0.3H98c0.2,0,0.3,0.1,0.3,0.3C98.3,91.8,98.2,92,98,92z"
	/>
<path class="st1" d="M98,93.6h-5c-0.2,0-0.3-0.1-0.3-0.3s0.1-0.3,0.3-0.3h5c0.2,0,0.3,0.1,0.3,0.3S98.2,93.6,98,93.6z"/>
<path class="st1" d="M98.1,95.2h-5c-0.2,0-0.3-0.1-0.3-0.3c0-0.2,0.1-0.3,0.3-0.3h5c0.2,0,0.3,0.1,0.3,0.3
	C98.4,95.1,98.2,95.2,98.1,95.2z"/>
<path class="st1" d="M98.1,96.9H93c-0.2,0-0.3-0.1-0.3-0.3s0.1-0.3,0.3-0.3h5.1c0.2,0,0.3,0.1,0.3,0.3
	C98.4,96.8,98.3,96.9,98.1,96.9z"/>
<path class="st1" d="M98.1,98.6H93c-0.2,0-0.3-0.1-0.3-0.3c0-0.2,0.1-0.3,0.3-0.3h5.1c0.2,0,0.3,0.1,0.3,0.3
	C98.4,98.5,98.3,98.6,98.1,98.6z"/>
<path class="st1" d="M98.1,100.4H93c-0.2,0-0.3-0.1-0.3-0.3c0-0.2,0.1-0.3,0.3-0.3h5.2c0.2,0,0.3,0.1,0.3,0.3
	C98.5,100.2,98.3,100.4,98.1,100.4z"/>
<path class="st1" d="M98.2,102.2h-5.2c-0.2,0-0.3-0.1-0.3-0.3c0-0.2,0.1-0.3,0.3-0.3h5.2c0.2,0,0.3,0.1,0.3,0.3
	C98.5,102,98.3,102.2,98.2,102.2z"/>
<path class="st1" d="M98.2,104h-5.3c-0.2,0-0.3-0.1-0.3-0.3s0.1-0.3,0.3-0.3h5.3c0.2,0,0.3,0.1,0.3,0.3
	C98.5,103.8,98.4,104,98.2,104z"/>
<path class="st1" d="M98.2,105.9h-5.3c-0.2,0-0.3-0.1-0.3-0.3c0-0.2,0.1-0.3,0.3-0.3h5.3c0.2,0,0.3,0.1,0.3,0.3
	S98.4,105.9,98.2,105.9z"/>
<path class="st1" d="M98.3,107.8h-5.4c-0.2,0-0.3-0.1-0.3-0.3c0-0.2,0.1-0.3,0.3-0.3h5.4c0.2,0,0.3,0.1,0.3,0.3
	C98.6,107.6,98.4,107.8,98.3,107.8z"/>
<path class="st1" d="M98.3,109.7h-5.5c-0.2,0-0.3-0.1-0.3-0.3c0-0.2,0.1-0.3,0.3-0.3h5.5c0.2,0,0.3,0.1,0.3,0.3
	C98.6,109.6,98.5,109.7,98.3,109.7z"/>
<path class="st1" d="M98.3,111.7h-5.5c-0.2,0-0.3-0.1-0.3-0.3c0-0.2,0.1-0.3,0.3-0.3h5.5c0.2,0,0.3,0.1,0.3,0.3
	C98.6,111.6,98.5,111.7,98.3,111.7z"/>
<path class="st1" d="M98.3,113.8h-5.6c-0.2,0-0.3-0.1-0.3-0.3c0-0.2,0.1-0.3,0.3-0.3h5.6c0.2,0,0.3,0.1,0.3,0.3
	S98.5,113.8,98.3,113.8z"/>
<path class="st1" d="M98.4,115.9h-5.7c-0.2,0-0.3-0.1-0.3-0.3s0.1-0.3,0.3-0.3h5.7c0.2,0,0.3,0.1,0.3,0.3
	C98.7,115.7,98.6,115.9,98.4,115.9z"/>
<path class="st1" d="M98.4,118h-5.8c-0.2,0-0.3-0.1-0.3-0.3c0-0.2,0.1-0.3,0.3-0.3h5.8c0.2,0,0.3,0.1,0.3,0.3
	C98.8,117.9,98.6,118,98.4,118z"/>
<path class="st1" d="M98.4,120.2h-5.8c-0.2,0-0.3-0.1-0.3-0.3s0.1-0.3,0.3-0.3h5.8c0.2,0,0.3,0.1,0.3,0.3S98.6,120.2,98.4,120.2z"/>
<path class="st1" d="M98.5,122.4h-5.9c-0.2,0-0.3-0.1-0.3-0.3c0-0.2,0.1-0.3,0.3-0.3h5.9c0.2,0,0.3,0.1,0.3,0.3
	S98.7,122.4,98.5,122.4z"/>
<path class="st1" d="M98.5,124.7h-5.9c-0.2,0-0.3-0.1-0.3-0.3s0.1-0.3,0.3-0.3h5.9c0.2,0,0.3,0.1,0.3,0.3S98.7,124.7,98.5,124.7z"/>
<rect x="92.6" y="126.5" class="st1" width="6" height="0.6"/>
<rect x="92.5" y="128.9" class="st1" width="6.1" height="0.6"/>
<rect x="92.5" y="131.4" class="st1" width="6.1" height="0.6"/>
<rect x="92.4" y="133.9" class="st1" width="6.2" height="0.6"/>
<rect x="92.4" y="136.5" class="st1" width="6.3" height="0.6"/>
<rect x="92.4" y="139.2" class="st1" width="6.4" height="0.6"/>
<rect x="92.3" y="141.9" class="st1" width="6.5" height="0.6"/>
<rect x="92.3" y="144.7" class="st1" width="6.6" height="0.6"/>
<rect x="92.2" y="147.6" class="st1" width="6.7" height="0.6"/>
<rect x="92.2" y="150.6" class="st1" width="6.7" height="0.6"/>
<rect x="92.1" y="153.7" class="st1" width="6.8" height="0.6"/>
<rect x="92.1" y="156.8" class="st1" width="6.9" height="0.6"/>
<rect x="92" y="160.1" class="st1" width="7" height="0.6"/>
<rect x="92" y="163.4" class="st1" width="7.1" height="0.6"/>
<rect x="91.9" y="166.8" class="st1" width="7.2" height="0.6"/>
<path class="st5" d="M92.7,172c2.3-30.2,2.5-90.5,2.5-90.5h-2.6c-3.7,69.7-7.2,86.6-8.5,90.5H92.7z"/>
<path class="st2" d="M84,172.3h8.7c0.1,0,0.3-0.1,0.3-0.3c2.3-29.9,2.5-89.9,2.5-90.5c0-0.1,0-0.1-0.1-0.2c-0.1-0.1-0.1-0.1-0.2-0.1
	h-2.6c-0.2,0-0.3,0.1-0.3,0.3c-3.7,69.2-7.2,86.3-8.5,90.4c0,0.1,0,0.2,0,0.3C83.8,172.3,83.9,172.3,84,172.3z M92.4,171.7h-8l0,0
	c1.4-4.8,4.8-22.8,8.4-89.9h2C94.8,86.4,94.6,142.9,92.4,171.7z"/>
<path class="st5" d="M107.1,172c-1.3-3.9-4.8-20.8-8.5-90.5H96c0,0,0.1,60.3,2.5,90.5H107.1z"/>
<path class="st2" d="M98.4,172.3h8.7c0.1,0,0.2-0.1,0.2-0.1c0.1-0.1,0.1-0.2,0-0.3c-1.3-4.1-4.8-21.2-8.5-90.4
	c0-0.2-0.1-0.3-0.3-0.3H96c-0.1,0-0.2,0-0.2,0.1c-0.1,0.1-0.1,0.1-0.1,0.2c0,0.6,0.2,60.6,2.5,90.5
	C98.2,172.2,98.3,172.3,98.4,172.3z M106.7,171.7h-8c-2.2-28.9-2.4-85.3-2.5-89.9h2C101.9,148.9,105.3,166.9,106.7,171.7z"/>
<path class="st1" d="M87.8,78.7h15.6v1.8c0,0.6-0.5,1.1-1.1,1.1H88.9c-0.6,0-1.1-0.5-1.1-1.1L87.8,78.7L87.8,78.7z"/>
<path class="st2" d="M88.9,81.8h13.4c0.8,0,1.4-0.6,1.4-1.4v-1.8c0-0.2-0.1-0.3-0.3-0.3H87.8c-0.2,0-0.3,0.1-0.3,0.3v1.8
	C87.5,81.2,88.1,81.8,88.9,81.8z M88.1,80.4V79H103v1.4c0,0.4-0.3,0.8-0.8,0.8H88.9C88.4,81.2,88.1,80.8,88.1,80.4z"/>
<path class="st5" d="M88.9,68.8h13.4c1.8,0,3.2,1.4,3.2,3.2v4.5c0,1.8-1.4,3.2-3.2,3.2H88.9c-1.8,0-3.2-1.4-3.2-3.2V72
	C85.7,70.2,87.1,68.8,88.9,68.8z"/>
<path class="st2" d="M87.7,79.9h15.7c1.3,0,2.3-1,2.3-2.3v-6.7c0-1.3-1-2.3-2.3-2.3H87.7c-1.3,0-2.3,1-2.3,2.3v6.7
	C85.4,78.9,86.4,79.9,87.7,79.9z M86.5,69.6c0.3-0.3,0.8-0.5,1.2-0.5h15.7c1,0,1.7,0.8,1.8,1.7v6.7c0,1-0.8,1.8-1.8,1.8H87.7
	c-1,0-1.7-0.8-1.7-1.8v-6.7C86,70.4,86.2,70,86.5,69.6z"/>
<path class="st4" d="M106,71.9H85.1c-0.2,0-0.3-0.1-0.3-0.3c0-0.2,0.1-0.3,0.3-0.3H106c0.2,0,0.3,0.1,0.3,0.3
	C106.3,71.7,106.2,71.9,106,71.9z"/>
<path class="st4" d="M106,74.5H85.1c-0.2,0-0.3-0.1-0.3-0.3s0.1-0.3,0.3-0.3H106c0.2,0,0.3,0.1,0.3,0.3
	C106.3,74.4,106.2,74.5,106,74.5z"/>
<path class="st4" d="M106,77.2H85.1c-0.2,0-0.3-0.1-0.3-0.3s0.1-0.3,0.3-0.3H106c0.2,0,0.3,0.1,0.3,0.3
	C106.3,77.1,106.2,77.2,106,77.2z"/>
<path class="st4" d="M134.5,122.6c-0.2,0-0.3-0.1-0.3-0.3v-11c0-0.2,0.1-0.3,0.3-0.3c0.2,0,0.3,0.1,0.3,0.3v11
	C134.8,122.4,134.7,122.6,134.5,122.6z"/>
<rect x="131.2" y="123.8" class="st1" width="13.2" height="48.3"/>
<path class="st2" d="M131.2,172.4h13.2c0.1,0,0.2,0,0.2-0.1c0.1-0.1,0.1-0.1,0.1-0.2v-48.3c0-0.2-0.1-0.3-0.3-0.3h-13.2
	c-0.2,0-0.3,0.1-0.3,0.3V172C130.9,172.2,131,172.4,131.2,172.4z M144.1,171.7h-12.5l0-47.6h12.5V171.7z"/>
<rect x="131.2" y="121.3" class="st4" width="6.6" height="2.5"/>
<path class="st2" d="M131.2,124.1h6.6c0.2,0,0.3-0.1,0.3-0.3v-2.5c0-0.2-0.1-0.3-0.3-0.3h-6.6c-0.2,0-0.3,0.1-0.3,0.3v2.5
	C130.9,123.9,131,124.1,131.2,124.1z M137.5,123.4h-5.9v-1.9h5.9V123.4z"/>
<rect x="143.4" y="78.2" class="st1" width="39.5" height="93.9"/>
<path class="st2" d="M143.4,77.5h39.5c0.4,0,0.6,0.3,0.6,0.6V172c0,0.4-0.3,0.6-0.6,0.6h-39.5c-0.4,0-0.6-0.3-0.6-0.6V78.2
	C142.8,77.8,143,77.5,143.4,77.5z M182.9,172V78.2h-39.5V172H182.9z"/>
<rect x="143.4" y="85.2" class="st3" width="39.5" height="0.6"/>
<rect x="143.4" y="92.7" class="st3" width="39.5" height="0.6"/>
<rect x="143.4" y="100.3" class="st3" width="39.5" height="0.6"/>
<rect x="143.4" y="107.8" class="st3" width="39.5" height="0.6"/>
<rect x="143.4" y="115.4" class="st3" width="39.5" height="0.6"/>
<rect x="143.4" y="122.9" class="st3" width="39.5" height="0.6"/>
<rect x="143.4" y="130.5" class="st3" width="39.5" height="0.6"/>
<rect x="143.4" y="138.1" class="st3" width="39.5" height="0.6"/>
<rect x="143.4" y="145.6" class="st3" width="39.5" height="0.6"/>
<rect x="143.4" y="153.2" class="st3" width="39.5" height="0.6"/>
<rect x="143.4" y="160.7" class="st3" width="39.5" height="0.6"/>
<rect x="153.8" y="71.1" class="st1" width="18.6" height="100.9"/>
<path class="st2" d="M153.8,172.4h18.6c0.1,0,0.2,0,0.2-0.1c0.1-0.1,0.1-0.1,0.1-0.2V71.1c0-0.2-0.1-0.3-0.3-0.3h-18.6
	c-0.2,0-0.3,0.1-0.3,0.3V172C153.5,172.2,153.6,172.4,153.8,172.4z M172.1,171.7h-18V71.4h18V171.7z"/>
<path class="st4" d="M172.4,81.9h-18.6c-0.2,0-0.3-0.1-0.3-0.3s0.1-0.3,0.3-0.3h18.6c0.2,0,0.3,0.1,0.3,0.3S172.6,81.9,172.4,81.9z"
	/>
<path class="st4" d="M172.4,89.5h-18.6c-0.2,0-0.3-0.1-0.3-0.3c0-0.2,0.1-0.3,0.3-0.3h18.6c0.2,0,0.3,0.1,0.3,0.3
	C172.8,89.3,172.6,89.5,172.4,89.5z"/>
<path class="st4" d="M172.4,97h-18.6c-0.2,0-0.3-0.1-0.3-0.3c0-0.2,0.1-0.3,0.3-0.3h18.6c0.2,0,0.3,0.1,0.3,0.3
	C172.8,96.9,172.6,97,172.4,97z"/>
<path class="st4" d="M172.4,104.6h-18.6c-0.2,0-0.3-0.1-0.3-0.3s0.1-0.3,0.3-0.3h18.6c0.2,0,0.3,0.1,0.3,0.3
	S172.6,104.6,172.4,104.6z"/>
<path class="st4" d="M172.4,112.1h-18.6c-0.2,0-0.3-0.1-0.3-0.3s0.1-0.3,0.3-0.3h18.6c0.2,0,0.3,0.1,0.3,0.3
	S172.6,112.1,172.4,112.1z"/>
<path class="st4" d="M172.4,119.7h-18.6c-0.2,0-0.3-0.1-0.3-0.3s0.1-0.3,0.3-0.3h18.6c0.2,0,0.3,0.1,0.3,0.3
	S172.6,119.7,172.4,119.7z"/>
<path class="st4" d="M172.4,127.3h-18.6c-0.2,0-0.3-0.1-0.3-0.3s0.1-0.3,0.3-0.3h18.6c0.2,0,0.3,0.1,0.3,0.3
	S172.6,127.3,172.4,127.3z"/>
<path class="st4" d="M172.4,134.8h-18.6c-0.2,0-0.3-0.1-0.3-0.3s0.1-0.3,0.3-0.3h18.6c0.2,0,0.3,0.1,0.3,0.3
	S172.6,134.8,172.4,134.8z"/>
<path class="st4" d="M172.4,142.4h-18.6c-0.2,0-0.3-0.1-0.3-0.3s0.1-0.3,0.3-0.3h18.6c0.2,0,0.3,0.1,0.3,0.3
	S172.6,142.4,172.4,142.4z"/>
<path class="st4" d="M172.4,149.9h-18.6c-0.2,0-0.3-0.1-0.3-0.3c0-0.2,0.1-0.3,0.3-0.3h18.6c0.2,0,0.3,0.1,0.3,0.3
	C172.8,149.8,172.6,149.9,172.4,149.9z"/>
<path class="st4" d="M172.4,157.5h-18.6c-0.2,0-0.3-0.1-0.3-0.3c0-0.2,0.1-0.3,0.3-0.3h18.6c0.2,0,0.3,0.1,0.3,0.3
	C172.8,157.3,172.6,157.5,172.4,157.5z"/>
<rect x="156.5" y="68.1" class="st4" width="13.2" height="3"/>
<path class="st2" d="M156.5,71.5h13.2c0.2,0,0.3-0.1,0.3-0.3v-3c0-0.2-0.1-0.3-0.3-0.3h-13.2c-0.2,0-0.3,0.1-0.3,0.3v3
	C156.2,71.3,156.4,71.5,156.5,71.5z M169.4,70.8h-12.5l0-2.4h12.5V70.8z"/>
<rect x="134.6" y="130.8" class="st3" width="2.4" height="0.6"/>
<rect x="137.9" y="138.1" class="st3" width="2.4" height="0.6"/>
<rect x="134.3" y="145.3" class="st3" width="2.4" height="0.6"/>
<rect x="135.5" y="156.3" class="st3" width="2.4" height="0.6"/>
<rect x="113.1" y="165" class="st5" width="72.5" height="7.1"/>
<path class="st2" d="M113.1,172.3h72.5c0.2,0,0.3-0.1,0.3-0.3V165c0-0.1,0-0.2-0.1-0.2c-0.1-0.1-0.1-0.1-0.2-0.1h-72.5
	c-0.2,0-0.3,0.1-0.3,0.3v7.1C112.8,172.2,113,172.3,113.1,172.3z M185.3,171.7h-71.9v-6.5h71.9V171.7z"/>
<path class="st5" d="M132.6,160.7c0,0,4.3-4.6,16.8-4.6c12.5,0,16.8,4.6,16.8,4.6H132.6z"/>
<path class="st2" d="M132.6,161h33.5c0.1,0,0.2-0.1,0.3-0.2c0-0.1,0-0.2-0.1-0.3c-0.2-0.2-4.5-4.7-17-4.7c-12.5,0-16.8,4.5-17,4.7
	c-0.1,0.1-0.1,0.2-0.1,0.3C132.4,160.9,132.5,161,132.6,161z M165.3,160.4h-32c1.5-1.2,6.2-4,16-4
	C159.1,156.4,163.8,159.3,165.3,160.4z"/>
<path class="st2" d="M136,165.3h26.7c0.1,0,0.2,0,0.3-0.1l3.1-4.2c0.1-0.1,0.1-0.2,0-0.3c-0.1-0.1-0.2-0.2-0.3-0.2h-32.9
	c-0.1,0-0.2,0.1-0.3,0.2c-0.1,0.1,0,0.2,0,0.3l3.1,4.2C135.8,165.3,135.9,165.3,136,165.3z M162.5,164.7h-26.4l-2.6-3.6h31.6
	L162.5,164.7z"/>
<path class="st4" d="M141.9,165.2l-3.2-3.9l-2.9,3.9l-0.5-0.4l3.1-4.2c0.1-0.1,0.2-0.1,0.3-0.1c0.1,0,0.2,0,0.3,0.1l3.5,4.2
	L141.9,165.2z"/>
<path class="st4" d="M148.9,165.2l-3.2-3.9l-2.9,3.9l-0.5-0.4l3.1-4.2c0.1-0.1,0.2-0.1,0.3-0.1c0.1,0,0.2,0,0.3,0.1l3.5,4.2
	L148.9,165.2z"/>
<path class="st4" d="M155.9,165.2l-3.2-3.9l-2.9,3.9l-0.5-0.4l3.1-4.2c0.1-0.1,0.2-0.1,0.3-0.1c0.1,0,0.2,0,0.3,0.1l3.5,4.2
	L155.9,165.2z"/>
<path class="st4" d="M162.8,165.2l-3.2-3.9l-2.9,3.9l-0.5-0.4l3.1-4.2c0.1-0.1,0.1-0.1,0.3-0.1c0.1,0,0.2,0,0.3,0.1l3.5,4.2
	L162.8,165.2z"/>
<path class="st4" d="M121.1,172h-0.6c0.1-2.3,0.2-4.6,0.1-6.9c0,0.1,0.1,0.2,0.3,0.2v-0.6l0.3,0.1
	C121.1,164.9,121.4,165.1,121.1,172z"/>
<path class="st4" d="M130.6,172H130c0.1-2.3,0.2-4.6,0.1-6.9c0,0.1,0.2,0.2,0.3,0.2v-0.6l0.2,0.1C130.6,164.9,130.9,165.1,130.6,172
	z"/>
<path class="st4" d="M140.1,172h-0.6c0.1-2.3,0.2-4.6,0.1-6.9c0.1,0.1,0.2,0.2,0.3,0.2v-0.6l0.2,0.1
	C140.1,164.9,140.4,165.1,140.1,172z"/>
<path class="st4" d="M149.6,172H149c0.1-2.3,0.2-4.6,0.1-6.9c0.1,0.1,0.2,0.2,0.3,0.2v-0.6l0.2,0.1
	C149.6,164.9,149.9,165.1,149.6,172z"/>
<path class="st4" d="M159.1,172h-0.6c0.1-2.3,0.2-4.6,0.1-6.9c0,0.1,0.1,0.2,0.3,0.2v-0.6l0.3,0.1
	C159.1,164.9,159.4,165.1,159.1,172z"/>
<path class="st4" d="M168.6,172H168c0.1-2.3,0.2-4.6,0.1-6.9c0,0.1,0.1,0.2,0.3,0.2v-0.6l0.3,0.1C168.6,164.9,168.9,165.1,168.6,172
	z"/>
<path class="st4" d="M178.1,172h-0.6c0.1-2.3,0.2-4.6,0.1-6.9c0,0.1,0.1,0.2,0.3,0.2v-0.6l0.3,0.1
	C178.1,164.9,178.4,165.1,178.1,172z"/>
<rect x="113.1" y="166.8" class="st4" width="72.5" height="0.6"/>
<path class="st4" d="M191.4,172.6H10.6c-0.2,0-0.3-0.1-0.3-0.3c0-0.2,0.1-0.3,0.3-0.3h180.7c0.2,0,0.3,0.1,0.3,0.3
	C191.7,172.5,191.5,172.6,191.4,172.6z"/>
</svg>
