<?xml version="1.0" encoding="utf-8"?>
<!-- Generator: Adobe Illustrator 24.0.1, SVG Export Plug-In . SVG Version: 6.00 Build 0)  -->
<svg version="1.1" id="Capa_1" xmlns="http://www.w3.org/2000/svg" xmlns:xlink="http://www.w3.org/1999/xlink" x="0px" y="0px"
	 viewBox="0 0 202 202" style="enable-background:new 0 0 202 202;" xml:space="preserve">
<style type="text/css">
	.st0{opacity:0.2027;fill:url(#SVGID_1_);enable-background:new    ;}
	.st1{fill:#E7816B;}
	.st2{fill-rule:evenodd;clip-rule:evenodd;fill:#231F20;}
	.st3{fill:#231F20;}
	.st4{fill:#FFFFFF;}
	.st5{fill:#D1D3D4;}
</style>
<linearGradient id="SVGID_1_" gradientUnits="userSpaceOnUse" x1="-392" y1="100.8898" x2="-190" y2="100.8898" gradientTransform="matrix(-1 0 0 -1 -190 201.8898)">
	<stop  offset="0" style="stop-color:#5D0202;stop-opacity:1.000000e-02"/>
	<stop  offset="1" style="stop-color:#5D0202;stop-opacity:0.4976"/>
</linearGradient>
<circle class="st0" cx="101" cy="101" r="101"/>
<path class="st1" d="M163.3,100.9h14.5c0,0,9.5,19.7,11.4,28.1h-26V100.9z"/>
<path class="st2" d="M163.3,129.2h26c0.1,0,0.2,0,0.2-0.1c0-0.1,0.1-0.1,0.1-0.2c-1.9-8.4-11.3-28-11.4-28.2c0-0.1-0.1-0.2-0.2-0.2
	h-14.5c-0.1,0-0.3,0.1-0.3,0.3V129C163.1,129.1,163.2,129.2,163.3,129.2z M189,128.7h-25.3l0-27.6h14.1
	C178.6,102.9,187,120.6,189,128.7z"/>
<path class="st1" d="M164.3,122.5l11.3,5c0,0-10-43-29.5-62.4c0,0-6.8,5.2-11.7,18.8c-1.2,3.4-0.2,1.3-0.3,1.9l-1.3,9.4L164.3,122.5
	z"/>
<path class="st2" d="M175.6,127.8c0,0,0.1,0,0.1,0c0.1,0,0.1,0,0.2-0.1c0.1-0.1,0.1-0.2,0.1-0.3c-0.1-0.4-10.2-43.3-29.5-62.6
	c-0.1-0.1-0.3-0.1-0.4,0c-0.1,0.1-6.9,5.4-11.8,18.9c-0.8,2.1-0.7,2.2-0.5,2.3v0c0,0,0.1,0,0.1,0l-1.3,8.9c0,0.1,0,0.2,0.1,0.2
	l31.4,27.4c0,0,0,0,0.1,0L175.6,127.8z M175.3,127l-10.8-4.8l-31.3-27.3l1.3-9.2c0-0.1,0-0.3-0.2-0.4h-0.1c0-0.1,0.1-0.2,0.1-0.3
	c0.1-0.3,0.2-0.6,0.4-1.1c4.4-12.1,10.3-17.6,11.4-18.5C164.2,83.5,174.1,122.1,175.3,127z"/>
<path class="st3" d="M134.8,91.6c0,0,3.1-14.7,11.6-22.8c0,0,13,11,25.6,55.3l-41-2.3C131,121.7,131.8,99.3,134.8,91.6z"/>
<path class="st2" d="M131,122l41,2.3c0.1,0,0.2,0,0.3-0.1c0.1-0.1,0.1-0.2,0.1-0.3c-12.5-43.8-25.6-55.3-25.7-55.4
	c-0.1-0.1-0.3-0.1-0.4,0c-8.3,8-11.5,22.3-11.7,22.9c-2.9,7.6-3.7,29-3.8,30.2l0,0C130.7,121.9,130.9,122,131,122z M171.6,123.7
	l-40.3-2.2c0.1-2.6,1-22.7,3.7-29.8v0c0-0.1,3.1-14.4,11.3-22.5c0.8,0.7,3.8,3.8,7.9,10.8C158.6,87.5,165.1,101.1,171.6,123.7z"/>
<path class="st4" d="M121,104.2c0,0,6.9-14.3,15.4-22.6c0,0,10.8,8.4,17.8,17.4c7,9,13.4,24.9,13.4,24.9h-45.9L121,104.2z"/>
<path class="st2" d="M121.6,124.3h45.9l0,0c0.1,0,0.2,0,0.2-0.1c0.1-0.1,0.1-0.2,0-0.3c0-0.1-6.5-16.1-13.5-25
	c-6.7-8.6-17-16.8-17.8-17.4c0,0,0,0,0,0c-0.1-0.1-0.3-0.1-0.4,0c-8.3,8.1-15.1,22-15.4,22.6c0,0,0,0,0,0c0,0,0,0.1,0,0.1l0.6,19.8
	C121.3,124.2,121.5,124.3,121.6,124.3z M167.1,123.7h-45.2l-0.6-19.4c0,0,0,0,0-0.1c0.7-1.5,7.2-14.4,15.1-22.2
	c1.5,1.2,11.1,9,17.5,17.2C160.1,107.3,166.1,121.2,167.1,123.7z"/>
<path class="st3" d="M136.3,84.5c0,0-9.3,8.7-12.7,20.6c0,0,39.8,14,39.4,13.7c-0.4-0.3-5.9-12.9-12.3-20.3
	C141.8,88.1,136.3,84.5,136.3,84.5z"/>
<path class="st2" d="M143.2,112.3c16.5,5.8,19.3,6.7,19.9,6.7c0.1,0,0.2,0,0.2-0.1c0.1-0.1,0.1-0.3,0-0.3c-0.1-0.1-0.4-0.8-0.8-1.5
	l0,0c-1.9-3.9-6.4-12.8-11.4-18.7c-8.9-10.3-14.5-14-14.6-14.1c-0.1-0.1-0.3-0.1-0.4,0c-0.1,0.1-9.4,8.9-12.8,20.8
	c0,0.1,0,0.3,0.2,0.4C123.5,105.4,133.3,108.9,143.2,112.3z M162.4,118.4c-4-1.3-26.3-9.1-38.5-13.4c3.1-10.7,11.1-18.9,12.4-20.1
	c1,0.7,6.3,4.6,14.3,13.8c5,5.8,9.4,14.7,11.3,18.6l0,0L162.4,118.4z"/>
<path class="st1" d="M126.7,92c0,0,18.7,2.9,29.9,15.6c5.7,6.5,10.9,16.4,10.9,16.4h-22.9L126.7,92z"/>
<path class="st2" d="M144.7,124.3h22.9c0.1,0,0.2-0.1,0.2-0.1c0-0.1,0-0.2,0-0.3l0,0c-0.2-0.3-5.3-10-10.9-16.4
	c-11.1-12.7-29.9-15.7-30.1-15.7c-0.1,0-0.2,0-0.3,0.1c-0.1,0.1-0.1,0.2,0,0.3l17.9,32C144.5,124.2,144.6,124.3,144.7,124.3z
	 M167.1,123.8h-22.3l-17.6-31.4c3.2,0.6,19.3,4.1,29.2,15.4C161.5,113.5,166.1,121.9,167.1,123.8z"/>
<path class="st4" d="M116.6,105.2c4.1-6,6.4-9.8,10.1-13.2c7,4.1,13.4,9.1,19.1,14.8c5,5.1,9.2,10.9,12.6,17.2h-51
	C107.4,124,112.8,110.7,116.6,105.2z"/>
<path class="st2" d="M107.4,124.3h51c0.1,0,0.2-0.1,0.2-0.1c0-0.1,0-0.2,0-0.3c-3.4-6.3-7.6-12.1-12.6-17.2
	c-5.7-5.7-12.2-10.7-19.2-14.9c-0.1-0.1-0.2,0-0.3,0c-3.2,2.9-5.4,6.1-8.4,10.6c-0.5,0.8-1.1,1.7-1.8,2.6
	c-3.8,5.5-9.2,18.8-9.2,18.9c0,0.1,0,0.2,0,0.3C107.2,124.3,107.3,124.3,107.4,124.3z M157.9,123.7h-50.1c0.9-2.3,5.7-13.5,9-18.4
	l1.8-2.6c2.9-4.4,5.1-7.6,8.2-10.3c6.9,4.1,13.2,9,18.9,14.7C150.5,112,154.6,117.6,157.9,123.7z"/>
<path class="st3" d="M109.2,124c0,0,4-9.7,8.9-17.5c5-7.9,8.9-11.7,8.9-11.7s5.9,2.8,15.6,12.3c6.6,6.5,12.8,16.9,12.8,16.9
	L109.2,124z"/>
<path class="st2" d="M109.2,124.3h46.1c0.1,0,0.2,0,0.3-0.1c0.1-0.1,0.1-0.2,0-0.3c0,0,0,0-0.1-0.1c-0.7-1.1-6.5-10.7-12.8-16.8
	c-9.6-9.4-15.6-12.3-15.7-12.3c-0.1-0.1-0.2,0-0.3,0.1c0,0,0,0,0,0c-0.3,0.3-4.1,4.2-8.9,11.7c-4.9,7.7-8.9,17.4-8.9,17.5
	c0,0.1,0,0.2,0,0.3C109,124.3,109.1,124.3,109.2,124.3z M154.9,123.7h-45.2c0.8-1.9,4.4-10.3,8.7-17c4.4-6.9,7.9-10.7,8.7-11.5
	c1.1,0.6,6.7,3.7,15.3,12.1C148.1,113,153.6,121.7,154.9,123.7z"/>
<path class="st4" d="M127.8,127.5H68.2c0,0-2.8-25.6-1.4-42.4c1.4-16.9,10.2-29.4,10.2-29.4s22.1,5.4,35.4,26.7
	C125.6,103.6,127.8,127.5,127.8,127.5z"/>
<path class="st2" d="M68.2,127.8h59.6c0.1,0,0.2,0,0.2-0.1c0.1-0.1,0.1-0.1,0.1-0.2l0,0c0-0.3-2.4-24.2-15.6-45.3
	C99.4,61,77.2,55.4,77,55.4c-0.1,0-0.2,0-0.3,0.1c-0.1,0.1-8.8,12.8-10.2,29.5c-1.3,15.3,1,38,1.4,41.9c0,0.4,0.1,0.6,0.1,0.6
	C68,127.7,68.1,127.8,68.2,127.8z M127.5,127.2h-59c-0.3-2.7-2.7-26.4-1.4-42.2c1.3-15.5,9-27.5,10-29.1c2.2,0.6,22.6,6.6,35,26.5
	C124.4,102.1,127.2,124.3,127.5,127.2z"/>
<path class="st1" d="M127.8,127.5h-18.1c0,0-2.2-23.1-11.1-43.6C89.8,63.5,77,55.6,77,55.6s22.1,5.4,35.4,26.7
	C125.7,103.6,127.8,127.5,127.8,127.5z"/>
<path class="st2" d="M109.8,127.8h18.1h0.1c0.1,0,0.1,0,0.2-0.1c0.1-0.1,0.1-0.1,0.1-0.2v0c0-0.3-2.4-24.2-15.6-45.3
	C99.4,61.1,77.3,55.4,77.1,55.4c-0.1,0-0.3,0-0.3,0.2c0,0.1,0,0.3,0.1,0.3c0,0,0,0,0,0c0.6,0.4,13,8.4,21.6,28.2
	c8.7,20.2,11.1,43.2,11.1,43.5C109.5,127.7,109.6,127.8,109.8,127.8z M127.5,127.2H110c-0.3-2.5-2.8-24.2-11.1-43.4
	C91.8,67.4,82,59,78.4,56.4c5.3,1.7,22.6,8.4,33.7,26.1C124.4,102.2,127.2,124.4,127.5,127.2z"/>
<path class="st3" d="M107.4,127.5c0,0-3.8-24.5-8.7-37.6c-7.3-19.2-21-30.2-21-30.2s-5.8,11-7.1,20.1c-0.9,6-1.6,35.8,0.1,47.5
	L107.4,127.5z"/>
<path class="st2" d="M70.6,127.5l36.8,0.3c0.1,0,0.2,0,0.2-0.1c0.1-0.1,0.1-0.2,0.1-0.2c0,0,0-0.1,0-0.2c-0.4-2.4-4-25.1-8.7-37.5
	c-7.2-19-20.9-30.2-21.1-30.3c-0.1-0.1-0.2-0.1-0.2-0.1c-0.1,0-0.2,0.1-0.2,0.1c-0.1,0.1-5.9,11.1-7.2,20.2
	c-0.8,5.8-1.6,35.9,0.1,47.5C70.3,127.4,70.4,127.5,70.6,127.5z M107,127.2l-36.2-0.3c-1.6-11.8-0.8-41.4,0-47.1
	c1.1-8.1,6-17.8,6.9-19.7C86.9,68.3,94,78.6,98.4,90C103,102.1,106.6,124.2,107,127.2z"/>
<path class="st1" d="M62.5,75.7c0,0,12.2,2.1,26.1,11.8c23.7,16.4,31.9,40,31.9,40H58.6C58.6,127.5,60.8,82.5,62.5,75.7z"/>
<path class="st2" d="M58.6,127.8h61.9v0c0.1,0,0.2,0,0.2-0.1c0.1-0.1,0.1-0.2,0-0.2c0,0,0,0,0,0c-0.4-1.1-9-24.1-32-40.1
	C75,77.6,62.7,75.4,62.6,75.4c-0.1,0-0.3,0.1-0.3,0.2c-1.7,6.8-3.8,50-3.9,51.8c0,0.1,0,0.1,0.1,0.2
	C58.5,127.7,58.5,127.8,58.6,127.8z M120.2,127.2H58.9c0.2-3.8,2.2-44,3.8-51.2c1.8,0.4,13.1,2.9,25.8,11.7
	C110.2,102.8,119,124.2,120.2,127.2z"/>
<path class="st4" d="M101.1,127.5c0,0-1.6-12.8-12.5-27.2C77.7,86,62.5,75.7,62.5,75.7s-6.5,9.1-8.9,19.9
	c-2.4,10.8-0.6,31.8-0.6,31.8H101.1z"/>
<path class="st2" d="M53,127.8h48.1c0.1,0,0.1,0,0.2-0.1c0.1-0.1,0.1-0.1,0.1-0.2c0-0.1-1.8-13.1-12.5-27.3
	C78.1,86.1,63,75.7,62.7,75.5c0,0,0,0,0,0c-0.1-0.1-0.3-0.1-0.4,0.1c0,0,0,0,0,0c-0.3,0.4-6.6,9.4-9,20c-2.2,10.1-0.8,29-0.6,31.6
	c0,0.2,0,0.3,0,0.3C52.7,127.7,52.8,127.8,53,127.8z M100.7,127.2H53.3c-0.2-2.5-1.6-21.5,0.6-31.5c2.2-9.7,7.7-18.1,8.8-19.6
	c2,1.4,15.8,11.3,25.7,24.4C98.1,113.3,100.4,125.1,100.7,127.2z"/>
<path class="st3" d="M98.3,125.8c0,0-3.2-13.2-16.2-28.7c-5.5-6.5-11.8-12.4-18.8-17.3c0,0-6,7.9-7.5,17.9c-1.2,8.2-1.5,23-1.6,28
	H98.3z"/>
<path class="st2" d="M54.1,126h44.1c0.1,0,0.2,0,0.2-0.1c0.1-0.1,0.1-0.2,0.1-0.3c0-0.1-3.4-13.4-16.3-28.8
	c-5.5-6.6-11.9-12.4-18.9-17.4c-0.1-0.1-0.3-0.1-0.4,0.1c-0.1,0.1-6.1,8.1-7.6,18.1c-1.2,8.1-1.5,22.3-1.6,28.1c0,0.1,0,0.2,0.1,0.2
	C54,126,54.1,126,54.1,126z M97.9,125.5H54.4c0.1-5.9,0.4-19.8,1.6-27.7c1.3-8.9,6.3-16.2,7.3-17.6c6.9,4.9,13.1,10.7,18.5,17.1
	C93.4,111.1,97.3,123.3,97.9,125.5z"/>
<path class="st1" d="M94.8,127.5c-0.6-2.3-3-10.1-10.5-21.5C75.3,92.5,63,88.5,63,88.5H38.8v0.9l16.5,38.1H94.8z"/>
<path class="st2" d="M55.3,127.8h39.4c0.1,0,0.2,0,0.2-0.1c0.1-0.1,0.1-0.1,0-0.2c-0.6-2.2-3-10.2-10.5-21.6
	c-8.9-13.5-21.3-17.6-21.4-17.7c0,0-0.1,0-0.1,0H38.8c-0.1,0-0.3,0.1-0.3,0.3v0.9c0,0,0,0.1,0,0.1l16.5,38.1
	C55.1,127.7,55.2,127.8,55.3,127.8z M94.4,127.2H55.5L39.1,89.3v-0.6h23.9c0.8,0.3,12.5,4.5,21.1,17.4
	C91.2,117,93.7,124.7,94.4,127.2z"/>
<path class="st4" d="M82.1,127.5c-3.3-5.7-18.4-29.9-43.2-39c0,0-7.8,16.6-5.6,39H82.1z"/>
<path class="st2" d="M33.3,127.8h48.8c0.1,0,0.2-0.1,0.3-0.1c0.1-0.1,0.1-0.2,0-0.3c-2.8-4.9-18.3-29.9-43.4-39.2
	c-0.1-0.1-0.3,0-0.4,0.2c0,0,0,0,0,0c-0.2,0.4-7.8,17.1-5.6,39.2C33,127.7,33.1,127.8,33.3,127.8z M81.6,127.2h-48
	C31.6,106.7,38,91,39,88.8C63.1,97.9,78.2,121.5,81.6,127.2z"/>
<path class="st3" d="M79.1,127.5c-1.5-2.8-7-10.7-13.5-17.9C53.4,96.1,39.8,91.7,39.8,91.7c-6.3,17.3-4,30.5-3.9,35.8H79.1z"/>
<path class="st2" d="M35.9,127.8h43.2v0c0.1,0,0.2-0.1,0.3-0.1c0.1-0.1,0.1-0.2,0-0.3c-1.4-2.6-6.8-10.5-13.5-18
	C53.7,96,40,91.4,39.9,91.4c-0.1,0-0.3,0-0.4,0.2c-5.3,14.7-4.5,26.6-4.1,33c0,0.2,0,0.4,0,0.6c0.1,0.9,0.1,1.7,0.1,2.3
	c0,0.1,0,0.2,0.1,0.2C35.8,127.8,35.8,127.8,35.9,127.8z M78.6,127.2H36.2c0-0.7-0.1-1.6-0.1-2.5c0-0.1,0-0.1,0-0.2
	c-0.4-6.3-1.2-18,4-32.5c2,0.7,14.3,5.5,25.4,17.7C71.8,116.8,76.9,124.3,78.6,127.2z"/>
<path class="st4" d="M181.7,127.5l-2.8-5.6H88.4l-2.8,5.6h-57v19.9h162.6v-19.9H181.7z"/>
<path class="st2" d="M28.6,147.7h162.6c0.2,0,0.3-0.1,0.3-0.3v-19.9c0-0.2-0.1-0.3-0.3-0.3h-9.3l-2.7-5.5c-0.1-0.1-0.2-0.2-0.3-0.2
	H88.4c-0.1,0-0.2,0.1-0.3,0.2l-2.7,5.5H28.6c-0.2,0-0.3,0.1-0.3,0.3v19.9C28.3,147.5,28.4,147.7,28.6,147.7z M190.9,147.1h-162
	v-19.3h56.7c0.1,0,0.2-0.1,0.3-0.2l2.7-5.5h90.1l2.7,5.5c0.1,0.1,0.2,0.2,0.3,0.2h9.2V147.1z"/>
<rect x="68.2" y="127.5" class="st5" width="32.8" height="19.9"/>
<path class="st2" d="M68.2,147.7h32.8c0.2,0,0.3-0.1,0.3-0.3v-19.9c0-0.2-0.1-0.3-0.3-0.3H68.2c-0.2,0-0.3,0.1-0.3,0.3v19.9
	C67.9,147.5,68.1,147.7,68.2,147.7z M100.8,147.1H68.5v-19.3h32.3V147.1z"/>
<path class="st5" d="M152.5,129l21.7,18.4h-21.7V129z"/>
<path class="st2" d="M152.5,147.7h21.7c0.1,0,0.2-0.1,0.3-0.2c0-0.1,0-0.2-0.1-0.3l-21.7-18.4c-0.1-0.1-0.2-0.1-0.3,0
	c-0.1,0-0.2,0.1-0.2,0.3v18.4C152.2,147.5,152.3,147.7,152.5,147.7z M173.4,147.1h-20.6v-17.5L173.4,147.1z"/>
<rect x="23.9" y="131.1" class="st4" width="44.3" height="2"/>
<path class="st2" d="M23.9,133.4h44.3c0.1,0,0.2,0,0.2-0.1c0.1-0.1,0.1-0.1,0.1-0.2v-2c0-0.2-0.1-0.3-0.3-0.3H23.9
	c-0.2,0-0.3,0.1-0.3,0.3v2C23.6,133.3,23.7,133.4,23.9,133.4z M67.9,132.8H24.2v-1.4h43.7V132.8z"/>
<rect x="19.6" y="136.2" class="st4" width="48.6" height="3.5"/>
<path class="st2" d="M19.6,140h48.6c0.2,0,0.3-0.1,0.3-0.3v-3.5c0-0.2-0.1-0.3-0.3-0.3H19.6c-0.2,0-0.3,0.1-0.3,0.3v3.5
	C19.3,139.9,19.4,140,19.6,140z M67.9,139.4h-48l0-2.9h48V139.4z"/>
<rect x="19.6" y="138.3" class="st1" width="48.6" height="4.4"/>
<path class="st2" d="M19.6,142.9h48.6c0.1,0,0.1,0,0.2-0.1c0.1-0.1,0.1-0.1,0.1-0.2v-4.4c0-0.1-0.1-0.3-0.3-0.3H19.6
	c-0.1,0-0.3,0.1-0.3,0.3v4.4c0,0.1,0,0.1,0.1,0.2C19.5,142.9,19.5,142.9,19.6,142.9z M68,142.4H19.9v-3.9H68V142.4z"/>
<rect x="23.9" y="133.1" class="st1" width="44.3" height="3.1"/>
<path class="st2" d="M23.9,136.4h44.3c0.1,0,0.1,0,0.2-0.1c0.1,0,0.1-0.1,0.1-0.2v-3.1c0-0.1,0-0.1-0.1-0.2
	c-0.1-0.1-0.1-0.1-0.2-0.1H23.9c-0.1,0-0.1,0-0.2,0.1c0,0.1-0.1,0.1-0.1,0.2v3.1C23.6,136.3,23.7,136.4,23.9,136.4z M68,135.9H24.2
	v-2.5H68V135.9z"/>
<rect x="28.6" y="129.3" class="st1" width="39.6" height="1.8"/>
<path class="st2" d="M28.6,131.4h39.7c0.1,0,0.3-0.1,0.3-0.3v-1.8c0-0.1,0-0.1-0.1-0.2c-0.1-0.1-0.1-0.1-0.2-0.1H28.6
	c-0.1,0-0.1,0-0.2,0.1c-0.1,0.1-0.1,0.1-0.1,0.2v1.8C28.3,131.3,28.4,131.4,28.6,131.4z M68,130.8H28.8v-1.3H68V130.8z"/>
<path class="st5" d="M85.6,127.5h25.8l2.4-5.6H88.4L85.6,127.5z"/>
<path class="st2" d="M85.6,127.8h25.8c0.1,0,0.2-0.1,0.3-0.2l2.4-5.6c0-0.1,0-0.2,0-0.3c-0.1-0.1-0.1-0.1-0.2-0.1H88.4
	c-0.1,0-0.2,0.1-0.3,0.2l-2.8,5.6c0,0.1,0,0.2,0,0.3C85.4,127.7,85.5,127.8,85.6,127.8z M111.2,127.2H86.1l2.5-5h24.7L111.2,127.2z"
	/>
<rect x="119.3" y="124.9" class="st1" width="38.5" height="1.7"/>
<rect x="170" y="133.6" class="st1" width="16.2" height="1.3"/>
<rect x="10.8" y="141.1" class="st4" width="57.4" height="6.3"/>
<path class="st2" d="M10.8,147.7h57.4c0.2,0,0.3-0.1,0.3-0.3v-6.3c0-0.2-0.1-0.3-0.3-0.3H10.8c-0.2,0-0.3,0.1-0.3,0.3v6.3
	C10.5,147.5,10.7,147.7,10.8,147.7z M67.9,147.1H11.1v-5.7h56.8V147.1z"/>
<path class="st3" d="M181.7,129.2h-29.2c-0.1,0-0.2,0-0.3-0.1c-0.1-0.1-0.1-0.2,0-0.3c0.1-0.1,0.2-0.1,0.3-0.1h29.2
	c0.1,0,0.2,0,0.3,0.1c0.1,0.1,0.1,0.2,0,0.3C181.9,129.2,181.8,129.2,181.7,129.2z"/>
</svg>
