<?xml version="1.0" encoding="utf-8"?>
<!-- Generator: Adobe Illustrator 24.0.1, SVG Export Plug-In . SVG Version: 6.00 Build 0)  -->
<svg version="1.1" id="Capa_1" xmlns="http://www.w3.org/2000/svg" xmlns:xlink="http://www.w3.org/1999/xlink" x="0px" y="0px"
	 viewBox="0 0 202 202" style="enable-background:new 0 0 202 202;" xml:space="preserve">
<style type="text/css">
	.st0{opacity:0.2027;fill:url(#SVGID_1_);enable-background:new    ;}
	.st1{fill:#FFFFFF;}
	.st2{fill:#231F20;}
	.st3{fill-rule:evenodd;clip-rule:evenodd;fill:#231F20;}
	.st4{fill:#E7816B;}
	.st5{fill:#D1D3D4;}
</style>
<g>
	
		<linearGradient id="SVGID_1_" gradientUnits="userSpaceOnUse" x1="124" y1="224.8898" x2="326" y2="224.8898" gradientTransform="matrix(0 1 -1 0 325.8898 -124)">
		<stop  offset="0" style="stop-color:#5D0202;stop-opacity:1.000000e-02"/>
		<stop  offset="1" style="stop-color:#5D0202;stop-opacity:0.4976"/>
	</linearGradient>
	<circle class="st0" cx="101" cy="101" r="101"/>
	<path class="st1" d="M64.2,90.9l4.7-4.8L64.2,90.9z"/>
	<path class="st2" d="M64.2,91.2c-0.1,0-0.1,0-0.2-0.1c-0.1-0.1-0.1-0.3,0-0.4l4.7-4.8c0.1-0.1,0.3-0.1,0.4,0c0.1,0.1,0.1,0.3,0,0.4
		l-4.7,4.8C64.3,91.2,64.3,91.2,64.2,91.2z"/>
	<path class="st1" d="M68.9,90.9l-4.7-4.8L68.9,90.9z"/>
	<path class="st2" d="M68.9,91.2c-0.1,0-0.1,0-0.2-0.1L64,86.3c0,0-0.1-0.1-0.1-0.2s0-0.1,0.1-0.2c0.1-0.1,0.3-0.1,0.4,0l4.7,4.8
		c0.1,0.1,0.1,0.3,0,0.4C69.1,91.2,69,91.2,68.9,91.2z"/>
	<path class="st1" d="M68.9,90.9l4.7-4.8L68.9,90.9z"/>
	<path class="st2" d="M68.9,91.2c-0.1,0-0.1,0-0.2-0.1c-0.1-0.1-0.1-0.3,0-0.4l4.7-4.8c0-0.1,0.1-0.1,0.2-0.1s0.1,0,0.2,0.1
		c0.1,0,0.1,0.1,0.1,0.2c0,0.1,0,0.1-0.1,0.2l-4.7,4.8C69,91.2,69,91.2,68.9,91.2z"/>
	<path class="st1" d="M73.6,90.9l-4.7-4.8L73.6,90.9z"/>
	<path class="st2" d="M73.6,91.2c-0.1,0-0.1,0-0.2-0.1l-4.7-4.8c-0.1-0.1-0.1-0.3,0-0.4c0.1-0.1,0.3-0.1,0.4,0l4.7,4.8
		c0.1,0,0.1,0.1,0.1,0.2c0,0.1,0,0.1-0.1,0.2C73.7,91.2,73.7,91.2,73.6,91.2z"/>
	<path class="st1" d="M73.6,90.9l4.7-4.8L73.6,90.9z"/>
	<path class="st2" d="M73.6,91.2c-0.1,0-0.1,0-0.2-0.1c-0.1-0.1-0.1-0.3,0-0.4l4.7-4.8c0.1-0.1,0.3-0.1,0.4,0c0.1,0.1,0.1,0.2,0,0.4
		l-4.7,4.8C73.7,91.2,73.7,91.2,73.6,91.2z"/>
	<path class="st1" d="M78.3,90.9l-4.7-4.8L78.3,90.9z"/>
	<path class="st2" d="M78.3,91.2c-0.1,0-0.1,0-0.2-0.1l-4.7-4.8c-0.1-0.1-0.1-0.3,0-0.4s0.2-0.1,0.4,0l4.7,4.8
		c0.1,0.1,0.1,0.3,0,0.4C78.5,91.2,78.4,91.2,78.3,91.2z"/>
	<path class="st1" d="M78.3,90.9l4.7-4.8L78.3,90.9z"/>
	<path class="st2" d="M78.3,91.2c-0.1,0-0.1,0-0.2-0.1c-0.1-0.1-0.1-0.3,0-0.4l4.7-4.8c0.1-0.1,0.3-0.1,0.4,0c0.1,0.1,0.1,0.3,0,0.4
		l-4.7,4.8C78.5,91.2,78.4,91.2,78.3,91.2z"/>
	<path class="st1" d="M83,90.9l-4.7-4.8L83,90.9z"/>
	<path class="st2" d="M83,91.2c-0.1,0-0.1,0-0.2-0.1l-4.7-4.8c0,0-0.1-0.1-0.1-0.2s0-0.1,0.1-0.2c0.1-0.1,0.3-0.1,0.4,0l4.7,4.8
		c0.1,0.1,0.1,0.3,0,0.4C83.1,91.2,83.1,91.2,83,91.2z"/>
	<path class="st1" d="M83,90.9l4.7-4.8L83,90.9z"/>
	<path class="st2" d="M83,91.2c-0.1,0-0.1,0-0.2-0.1c-0.1-0.1-0.1-0.3,0-0.4l4.7-4.8c0.1-0.1,0.3-0.1,0.4,0c0,0,0.1,0.1,0.1,0.2
		s0,0.1-0.1,0.2l-4.7,4.8C83.1,91.2,83.1,91.2,83,91.2z"/>
	<path class="st1" d="M87.7,90.9L83,86.1L87.7,90.9z"/>
	<path class="st2" d="M87.7,91.2c-0.1,0-0.1,0-0.2-0.1l-4.7-4.8c-0.1-0.1-0.1-0.3,0-0.4c0.1-0.1,0.3-0.1,0.4,0l4.7,4.8
		c0.1,0.1,0.1,0.3,0,0.4C87.8,91.2,87.8,91.2,87.7,91.2z"/>
	<path class="st1" d="M87.7,90.9l4.7-4.8L87.7,90.9z"/>
	<path class="st2" d="M87.7,91.2c-0.1,0-0.1,0-0.2-0.1c-0.1-0.1-0.1-0.3,0-0.4l4.7-4.8c0.1-0.1,0.3-0.1,0.4,0s0.1,0.2,0,0.4
		l-4.7,4.8C87.8,91.2,87.8,91.2,87.7,91.2z"/>
	<path class="st1" d="M92.4,90.9l-4.7-4.8L92.4,90.9z"/>
	<path class="st2" d="M92.4,91.2c-0.1,0-0.1,0-0.2-0.1l-4.7-4.8c-0.1-0.1-0.1-0.3,0-0.4s0.2-0.1,0.4,0l4.7,4.8
		c0.1,0.1,0.1,0.3,0,0.4C92.6,91.2,92.5,91.2,92.4,91.2z"/>
	<path class="st1" d="M92.4,90.9l4.7-4.8L92.4,90.9z"/>
	<path class="st2" d="M92.4,91.2c-0.1,0-0.1,0-0.2-0.1c-0.1-0.1-0.1-0.3,0-0.4l4.7-4.8c0.1-0.1,0.3-0.1,0.4,0c0.1,0.1,0.1,0.3,0,0.4
		l-4.7,4.8C92.5,91.2,92.5,91.2,92.4,91.2z"/>
	<path class="st1" d="M97.1,90.9l-4.7-4.8L97.1,90.9z"/>
	<path class="st2" d="M97.1,91.2c-0.1,0-0.1,0-0.2-0.1l-4.7-4.8c-0.1,0-0.1-0.1-0.1-0.2s0-0.1,0.1-0.2c0.1-0.1,0.3-0.1,0.4,0
		l4.7,4.8c0.1,0.1,0.1,0.3,0,0.4C97.2,91.2,97.2,91.2,97.1,91.2z"/>
	<path class="st1" d="M103.8,90.9l4.7-4.8L103.8,90.9z"/>
	<path class="st2" d="M103.8,91.2c-0.1,0-0.1,0-0.2-0.1c-0.1-0.1-0.1-0.3,0-0.4l4.7-4.8c0.1-0.1,0.3-0.1,0.4,0
		c0.1,0.1,0.1,0.3,0,0.4l-4.7,4.8C104,91.2,103.9,91.2,103.8,91.2z"/>
	<path class="st1" d="M108.5,90.9l-4.7-4.8L108.5,90.9z"/>
	<path class="st2" d="M108.5,91.2c-0.1,0-0.1,0-0.2-0.1l-4.7-4.8c-0.1,0-0.1-0.1-0.1-0.2s0-0.1,0.1-0.2c0.1-0.1,0.3-0.1,0.4,0
		l4.7,4.8c0.1,0.1,0.1,0.3,0,0.4C108.7,91.2,108.6,91.2,108.5,91.2z"/>
	<path class="st1" d="M108.5,90.9l4.7-4.8L108.5,90.9z"/>
	<path class="st2" d="M108.5,91.2c-0.1,0-0.1,0-0.2-0.1c-0.1-0.1-0.1-0.3,0-0.4l4.7-4.8c0.1-0.1,0.3-0.1,0.4,0
		c0.1,0,0.1,0.1,0.1,0.2s0,0.1-0.1,0.2l-4.7,4.8C108.7,91.2,108.6,91.2,108.5,91.2z"/>
	<path class="st1" d="M113.2,90.9l-4.7-4.8L113.2,90.9z"/>
	<path class="st2" d="M113.2,91.2c-0.1,0-0.1,0-0.2-0.1l-4.7-4.8c-0.1-0.1-0.1-0.3,0-0.4c0.1-0.1,0.3-0.1,0.4,0l4.7,4.8
		c0.1,0.1,0.1,0.3,0,0.4C113.3,91.2,113.3,91.2,113.2,91.2z"/>
	<path class="st1" d="M113.2,90.9l4.7-4.8L113.2,90.9z"/>
	<path class="st2" d="M113.2,91.2c-0.1,0-0.1,0-0.2-0.1c-0.1-0.1-0.1-0.3,0-0.4l4.7-4.8c0.1-0.1,0.3-0.1,0.4,0s0.1,0.2,0,0.4
		l-4.7,4.8C113.4,91.2,113.3,91.2,113.2,91.2z"/>
	<path class="st1" d="M117.9,90.9l-4.7-4.8L117.9,90.9z"/>
	<path class="st2" d="M117.9,91.2c-0.1,0-0.1,0-0.2-0.1l-4.7-4.8c-0.1-0.1-0.1-0.3,0-0.4c0.1-0.1,0.1-0.1,0.2-0.1s0.1,0,0.2,0.1
		l4.7,4.8c0.1,0.1,0.1,0.3,0,0.4C118,91.2,118,91.2,117.9,91.2z"/>
	<path class="st1" d="M117.9,90.9l4.7-4.8L117.9,90.9z"/>
	<path class="st2" d="M117.9,91.2c-0.1,0-0.1,0-0.2-0.1c-0.1,0-0.1-0.1-0.1-0.2c0-0.1,0-0.1,0.1-0.2l4.7-4.8c0-0.1,0.1-0.1,0.2-0.1
		s0.1,0,0.2,0.1c0.1,0.1,0.1,0.3,0,0.4l-4.7,4.8C118,91.2,118,91.2,117.9,91.2z"/>
	<path class="st1" d="M122.6,90.9l-4.7-4.8L122.6,90.9z"/>
	<path class="st2" d="M122.6,91.2c-0.1,0-0.1,0-0.2-0.1l-4.7-4.8c-0.1,0-0.1-0.1-0.1-0.2c0-0.1,0-0.1,0.1-0.2c0-0.1,0.1-0.1,0.2-0.1
		c0.1,0,0.1,0,0.2,0.1l4.7,4.8c0.1,0.1,0.1,0.3,0,0.4C122.8,91.2,122.7,91.2,122.6,91.2z"/>
	<path class="st1" d="M122.6,90.9l4.7-4.8L122.6,90.9z"/>
	<path class="st2" d="M122.6,91.2c-0.1,0-0.1,0-0.2-0.1c-0.1-0.1-0.1-0.3,0-0.4l4.7-4.8c0.1-0.1,0.3-0.1,0.4,0
		c0.1,0.1,0.1,0.3,0,0.4l-4.7,4.8C122.7,91.2,122.7,91.2,122.6,91.2z"/>
	<path class="st1" d="M127.3,90.9l-4.7-4.8L127.3,90.9z"/>
	<path class="st2" d="M127.3,91.2c-0.1,0-0.1,0-0.2-0.1l-4.7-4.8c-0.1,0-0.1-0.1-0.1-0.2s0-0.1,0.1-0.2c0.1-0.1,0.3-0.1,0.4,0
		l4.7,4.8c0.1,0.1,0.1,0.3,0,0.4C127.5,91.2,127.4,91.2,127.3,91.2z"/>
	<path class="st1" d="M127.3,90.9l4.7-4.8L127.3,90.9z"/>
	<path class="st2" d="M127.3,91.2c-0.1,0-0.1,0-0.2-0.1c-0.1-0.1-0.1-0.3,0-0.4l4.7-4.8c0-0.1,0.1-0.1,0.2-0.1c0.1,0,0.1,0,0.2,0.1
		c0.1,0,0.1,0.1,0.1,0.2c0,0.1,0,0.1-0.1,0.2l-4.7,4.8C127.4,91.2,127.4,91.2,127.3,91.2z"/>
	<path class="st1" d="M132,90.9l-4.7-4.8L132,90.9z"/>
	<path class="st2" d="M132,91.2c-0.1,0-0.1,0-0.2-0.1l-4.7-4.8c-0.1-0.1-0.1-0.3,0-0.4c0.1-0.1,0.3-0.1,0.4,0l4.7,4.8
		c0.1,0,0.1,0.1,0.1,0.2c0,0.1,0,0.1-0.1,0.2C132.2,91.2,132.1,91.2,132,91.2z"/>
	<path class="st1" d="M132,90.9l4.7-4.8L132,90.9z"/>
	<path class="st2" d="M132,91.2c-0.1,0-0.1,0-0.2-0.1c-0.1-0.1-0.1-0.3,0-0.4l4.7-4.8c0-0.1,0.1-0.1,0.2-0.1c0.1,0,0.1,0,0.2,0.1
		c0.1,0.1,0.1,0.3,0,0.4l-4.7,4.8C132.2,91.2,132.1,91.2,132,91.2z"/>
	<path class="st1" d="M136.7,90.9l-4.7-4.8L136.7,90.9z"/>
	<path class="st2" d="M136.7,91.2c-0.1,0-0.1,0-0.2-0.1l-4.7-4.8c-0.1-0.1-0.1-0.3,0-0.4c0.1-0.1,0.2-0.1,0.4,0l4.7,4.8
		c0.1,0.1,0.1,0.3,0,0.4C136.8,91.2,136.8,91.2,136.7,91.2z"/>
	<path class="st2" d="M142.1,86.2H58.9c-0.1,0-0.1,0-0.2-0.1c-0.1,0-0.1-0.1-0.1-0.2c0-0.1,0.1-0.3,0.3-0.3h83.2
		c0.1,0,0.3,0.1,0.3,0.3c0,0.1,0,0.1-0.1,0.2C142.3,86.2,142.2,86.2,142.1,86.2z"/>
	<rect x="62.3" y="132.1" class="st1" width="76.4" height="2.7"/>
	<path class="st3" d="M62.3,135h76.5c0.1,0,0.3-0.1,0.3-0.3v-2.7c0-0.1-0.1-0.3-0.3-0.3H62.3c-0.1,0-0.3,0.1-0.3,0.3v2.7
		C62,134.9,62.1,135,62.3,135z M138.5,134.5H62.5v-2.1h75.9V134.5z"/>
	<path class="st1" d="M138.7,134.8v15.8h-9.2c0,0-6.3-14.2-29.1-14.2c-22.8,0-29.1,14.2-29.1,14.2h-9.2v-15.8H138.7z"/>
	<path class="st3" d="M129.6,150.9h9.2c0.1,0,0.3-0.1,0.3-0.3v-15.8c0-0.1,0-0.1-0.1-0.2c-0.1-0.1-0.1-0.1-0.2-0.1H62.3
		c-0.1,0-0.1,0-0.2,0.1c-0.1,0.1-0.1,0.1-0.1,0.2v15.8c0,0.1,0,0.1,0.1,0.2c0.1,0.1,0.1,0.1,0.2,0.1h9.2c0.1,0,0.2-0.1,0.2-0.2
		c0.1-0.1,6.5-14.1,28.8-14.1c22.4,0,28.8,13.9,28.8,14.1C129.4,150.8,129.5,150.9,129.6,150.9z M138.5,150.4h-8.7v0
		c-0.8-1.6-7.8-14.2-29.2-14.2c-21.4,0-28.4,12.6-29.2,14.2h-8.7V135h75.9V150.4z"/>
	<rect x="59.3" y="90.9" class="st2" width="82.3" height="2.4"/>
	<path class="st3" d="M59.3,93.7h82.3c0.1,0,0.2,0,0.2-0.1c0.1-0.1,0.1-0.1,0.1-0.2v-2.4c0-0.2-0.1-0.3-0.3-0.3H59.3
		c-0.2,0-0.3,0.1-0.3,0.3v2.4C59,93.5,59.2,93.7,59.3,93.7z M141.4,93.1H59.6l0-1.9h81.7V93.1z"/>
	<path class="st4" d="M97.2,84.9l3.3-2.3l3.3,2.3v6h-6.6V84.9z"/>
	<path class="st3" d="M96.9,90.9c0,0.1,0.1,0.3,0.3,0.3h6.6c0.1,0,0.3-0.1,0.3-0.3v-6c0-0.1,0-0.2-0.1-0.2l-3.3-2.3
		c-0.1-0.1-0.2-0.1-0.3,0L97,84.7c-0.1,0.1-0.1,0.1-0.1,0.2V90.9z M103.5,85.1v5.6h-6.1v-5.6l3-2.1L103.5,85.1z"/>
	<path class="st2" d="M97.2,89.6c-0.1,0-0.1,0-0.2-0.1c-0.1,0-0.1-0.1-0.1-0.2v-6c0-0.1,0-0.2,0.1-0.3c0.1-0.1,0.2-0.1,0.3,0
		c0.1,0.1,0.1,0.2,0.1,0.3v6C97.5,89.5,97.3,89.6,97.2,89.6z"/>
	<path class="st2" d="M103.8,89.6c-0.1,0-0.3-0.1-0.3-0.3v-6c0-0.1,0-0.2,0.1-0.3c0.1-0.1,0.2-0.1,0.3,0c0.1,0.1,0.1,0.2,0.1,0.3v6
		c0,0.1,0,0.1-0.1,0.2C103.9,89.6,103.9,89.6,103.8,89.6z"/>
	<path class="st2" d="M100.5,82.9c-0.1,0-0.3-0.1-0.3-0.3V81c0-0.1,0.1-0.3,0.3-0.3s0.3,0.1,0.3,0.3v1.7
		C100.8,82.8,100.6,82.9,100.5,82.9z"/>
	<path class="st2" d="M10.3,132.1v-15.7c18.7-3.1,37.4-26,37.4-26l-1,4.5c0,0-19,21.6-36.4,23.6"/>
	<path class="st3" d="M10,132.1c0,0.2,0.1,0.3,0.3,0.3c0.1,0,0.2,0,0.2-0.1c0.1-0.1,0.1-0.1,0.1-0.2v-13.3
		c17.2-2.2,36.1-23.5,36.3-23.7c0,0,0.1-0.1,0.1-0.1l1-4.5c0-0.1,0-0.3-0.2-0.3c-0.1-0.1-0.3,0-0.4,0.1c0,0,0,0,0,0
		c-0.5,0.6-19,22.9-37.2,25.9c-0.1,0-0.2,0.1-0.2,0.3v2.1V132.1z M10.6,118.2v-1.5c16.4-2.9,32.8-20.9,36.5-25.2l-0.7,3.3
		C45.3,96,27.1,116.1,10.6,118.2z"/>
	<path class="st2" d="M16,132.4c-0.1,0-0.1,0-0.2-0.1c0-0.1-0.1-0.1-0.1-0.2v-14.9c0-0.1,0.1-0.2,0.3-0.2c0.1,0,0.2,0.1,0.3,0.2
		v14.9c0,0.1,0,0.1-0.1,0.2C16.1,132.4,16,132.4,16,132.4z"/>
	<path class="st2" d="M22,132.4c-0.1,0-0.1,0-0.2-0.1c-0.1-0.1-0.1-0.1-0.1-0.2v-17.4c0-0.1,0.1-0.2,0.3-0.2s0.2,0.1,0.3,0.2v17.4
		c0,0.1,0,0.1-0.1,0.2C22.2,132.4,22.1,132.4,22,132.4z"/>
	<path class="st2" d="M28.3,132.4c-0.1,0-0.1,0-0.2-0.1c-0.1-0.1-0.1-0.1-0.1-0.2V111c0-0.1,0.1-0.3,0.3-0.3s0.3,0.1,0.3,0.3v21.1
		c0,0.1,0,0.1-0.1,0.2C28.5,132.4,28.4,132.4,28.3,132.4z"/>
	<path class="st2" d="M34.6,132.4c-0.1,0-0.1,0-0.2-0.1c0-0.1-0.1-0.1-0.1-0.2v-25.8c0-0.1,0.1-0.2,0.3-0.2c0.1,0,0.2,0.1,0.3,0.2
		v25.8c0,0.1,0,0.1-0.1,0.2C34.8,132.4,34.7,132.4,34.6,132.4z"/>
	<path class="st2" d="M54.8,53.3c-0.1,0-0.3-0.1-0.3-0.3v-5.3c0-0.1,0.1-0.3,0.3-0.3c0.1,0,0.3,0.1,0.3,0.3V53
		C55,53.2,54.9,53.3,54.8,53.3z"/>
	<path class="st2" d="M54,54.4h1.5L62,81.2H47.5L54,54.4z"/>
	<path class="st3" d="M47.6,81.5H62c0.1,0,0.2,0,0.2-0.1c0.1-0.1,0.1-0.2,0.1-0.2l-6.5-26.8c0-0.1-0.1-0.2-0.3-0.2H54
		c-0.1,0-0.3,0.1-0.3,0.2l-6.5,26.8c0,0.1,0,0.2,0.1,0.2C47.4,81.5,47.5,81.5,47.6,81.5z M61.6,80.9H47.9l6.3-26.2h1L61.6,80.9z"/>
	<rect x="54" y="52.4" class="st2" width="1.5" height="2"/>
	<path class="st3" d="M54.1,54.7h1.5c0.2,0,0.3-0.1,0.3-0.3v-2c0-0.2-0.1-0.3-0.3-0.3h-1.5c-0.2,0-0.3,0.1-0.3,0.3v2
		C53.8,54.6,53.9,54.7,54.1,54.7z M55.3,54.1h-0.9v-1.4h0.9V54.1z"/>
	<path class="st4" d="M57.9,80.3V74l-3.2-5.3L51.6,74v6.3h-3v50.8H61V80.3H57.9z"/>
	<path class="st3" d="M48.6,131.4H61c0.1,0,0.3-0.1,0.3-0.3V80.3c0-0.1-0.1-0.3-0.3-0.3h-2.8V74c0,0,0-0.1,0-0.1L55,68.5
		c-0.1-0.1-0.1-0.1-0.2-0.1c-0.1,0-0.2,0-0.2,0.1l-3.2,5.3c0,0,0,0.1,0,0.1v6.1h-2.8c-0.1,0-0.1,0-0.2,0.1c-0.1,0-0.1,0.1-0.1,0.2
		v50.8C48.3,131.3,48.4,131.4,48.6,131.4z M60.7,130.8H48.9l-0.1-50.2h2.8c0.1,0,0.3-0.1,0.3-0.3v-6.3l2.9-4.9l2.9,4.9v6.3
		c0,0.1,0.1,0.3,0.3,0.3h2.8V130.8z"/>
	<path class="st2" d="M61,85.3H48.6c-0.1,0-0.2,0-0.3-0.1c-0.1-0.1-0.1-0.2,0-0.3c0.1-0.1,0.2-0.1,0.3-0.1H61c0.1,0,0.2,0.1,0.2,0.3
		C61.2,85.1,61.1,85.2,61,85.3z"/>
	<path class="st2" d="M52.6,94.9h-2v-6.4c0-0.5,1-1.4,1-1.4s1,0.9,1,1.4V94.9z"/>
	<path class="st2" d="M55.8,94.9h-2v-6.4c0-0.5,1-1.4,1-1.4s1,0.9,1,1.4L55.8,94.9z"/>
	<path class="st2" d="M58.9,94.9h-2v-6.4c0-0.5,1-1.4,1-1.4s1,0.9,1,1.4V94.9z"/>
	<path class="st2" d="M52.6,106.9h-2v-6.4c0-0.5,1-1.4,1-1.4s1,0.9,1,1.4V106.9z"/>
	<path class="st2" d="M55.8,106.9h-2v-6.4c0-0.5,1-1.4,1-1.4s1,0.9,1,1.4L55.8,106.9z"/>
	<path class="st2" d="M58.9,106.9h-2v-6.4c0-0.5,1-1.4,1-1.4s1,0.9,1,1.4V106.9z"/>
	<path class="st2" d="M52.6,118.8h-2v-6.4c0-0.5,1-1.4,1-1.4s1,0.9,1,1.4V118.8z"/>
	<path class="st2" d="M55.8,118.8h-2v-6.4c0-0.5,1-1.4,1-1.4s1,0.9,1,1.4L55.8,118.8z"/>
	<path class="st2" d="M58.9,118.8h-2v-6.4c0-0.5,1-1.4,1-1.4s1,0.9,1,1.4V118.8z"/>
	<path class="st2" d="M60.5,122.3H49c-0.1,0-0.3-0.1-0.3-0.3c0-0.1,0.1-0.3,0.3-0.3h11.5c0.1,0,0.3,0.1,0.3,0.3
		C60.8,122.2,60.7,122.3,60.5,122.3z"/>
	<path class="st2" d="M46.5,60.6l3,11.3h-5.9L46.5,60.6z"/>
	<path class="st3" d="M43.6,72.2h5.9c0.1,0,0.2,0,0.2-0.1c0.1-0.1,0.1-0.2,0.1-0.3l-3-11.3c0-0.1-0.2-0.2-0.3-0.2
		c-0.1,0-0.3,0.1-0.3,0.2l-2.9,11.3c0,0.1,0,0.2,0,0.3C43.4,72.2,43.5,72.2,43.6,72.2z M49.1,71.7H44l2.6-9.9L49.1,71.7z"/>
	<path class="st4" d="M44.6,71.9l0.1,18.9l1.1,3v37.3h3.6V93.4l-0.9-2V71.9H44.6z"/>
	<path class="st3" d="M45.9,131.4h3.6c0.1,0,0.3-0.1,0.3-0.3V93.4c0,0,0-0.1,0-0.1l-0.9-1.9V71.9c0-0.1-0.1-0.3-0.3-0.3h-4
		c-0.1,0-0.1,0-0.2,0.1c-0.1,0.1-0.1,0.1-0.1,0.2l0.1,18.9c0,0,0,0.1,0,0.1l1.1,3v37.3C45.6,131.3,45.7,131.4,45.9,131.4z
		 M49.2,130.8h-3.1l0-37.1c0,0,0-0.1,0-0.1l-1.1-3l-0.1-18.5h3.5v19.2c0,0,0,0.1,0,0.1l0.9,1.9V130.8z"/>
	<path class="st2" d="M48.6,84.4h-3.9c-0.1,0-0.2,0-0.3-0.1c-0.1-0.1-0.1-0.2,0-0.3c0.1-0.1,0.2-0.1,0.3-0.1h3.9
		c0.1,0,0.2,0,0.3,0.1c0.1,0.1,0.1,0.2,0,0.3C48.8,84.4,48.7,84.5,48.6,84.4z"/>
	<path class="st2" d="M49.5,94.1h-3.6c-0.1,0-0.2,0-0.3-0.1c-0.1-0.1-0.1-0.2,0-0.3c0.1-0.1,0.2-0.1,0.3-0.1h3.6
		c0.1,0,0.2,0,0.3,0.1c0.1,0.1,0.1,0.2,0,0.3C49.7,94,49.6,94.1,49.5,94.1z"/>
	<path class="st2" d="M63,60.6l-3,11.3H66L63,60.6z"/>
	<path class="st3" d="M59.8,72.1c0.1,0.1,0.1,0.1,0.2,0.1H66c0.1,0,0.2,0,0.3-0.1c0.1-0.1,0.1-0.2,0.1-0.3l-3-11.3
		c0-0.1-0.2-0.2-0.3-0.2c-0.1,0-0.3,0.1-0.3,0.2l-3,11.3C59.8,72,59.8,72.1,59.8,72.1z M63,61.8l2.6,9.9h-5.1L63,61.8z"/>
	<path class="st4" d="M64.9,71.9l-0.1,18.9l-1.1,3v37.3H60V93.4l0.9-2V71.9H64.9z"/>
	<path class="st3" d="M60,131.4h3.6c0.1,0,0.3-0.1,0.3-0.3V93.8l1.1-3c0,0,0-0.1,0-0.1l0.1-18.9c0-0.1,0-0.1-0.1-0.2
		c-0.1-0.1-0.1-0.1-0.2-0.1h-4c-0.1,0-0.3,0.1-0.3,0.3v19.5l-0.9,1.9c0,0,0,0.1,0,0.1v37.7C59.8,131.3,59.9,131.4,60,131.4z
		 M63.4,130.8h-3.1l0-37.4l0.9-1.9c0,0,0-0.1,0-0.1V72.2h3.5l-0.1,18.5l-1.1,3c0,0,0,0.1,0,0.1V130.8z"/>
	<path class="st2" d="M64.8,84.4h-3.9c-0.1,0-0.2,0-0.3-0.1c-0.1-0.1-0.1-0.2,0-0.3c0.1-0.1,0.2-0.1,0.3-0.1h3.9
		c0.1,0,0.2,0,0.3,0.1c0.1,0.1,0.1,0.2,0,0.3C65,84.4,64.9,84.5,64.8,84.4z"/>
	<path class="st2" d="M63.7,94.1H60c-0.1,0-0.2,0-0.3-0.1c-0.1-0.1-0.1-0.2,0-0.3c0.1-0.1,0.2-0.1,0.3-0.1h3.6c0.1,0,0.2,0,0.3,0.1
		c0.1,0.1,0.1,0.2,0,0.3C63.9,94,63.8,94.1,63.7,94.1z"/>
	<path class="st2" d="M46.5,61.3c-0.1,0-0.3-0.1-0.3-0.3v-2.6c0-0.1,0.1-0.3,0.3-0.3c0.1,0,0.3,0.1,0.3,0.3v2.6
		C46.8,61.2,46.7,61.3,46.5,61.3z"/>
	<path class="st2" d="M63,61.3c-0.1,0-0.1,0-0.2-0.1c0-0.1-0.1-0.1-0.1-0.2v-2.6c0-0.1,0-0.2,0.1-0.3c0.1-0.1,0.2-0.1,0.3,0
		c0.1,0.1,0.1,0.2,0.1,0.3v2.6c0,0.1,0,0.1-0.1,0.2C63.2,61.3,63.1,61.3,63,61.3z"/>
	<rect x="41.8" y="131.1" class="st4" width="25.9" height="19.5"/>
	<path class="st3" d="M41.8,150.9h25.9c0.1,0,0.3-0.1,0.3-0.2v-19.5c0-0.1-0.1-0.3-0.3-0.3H41.8c-0.1,0-0.3,0.1-0.3,0.3v19.5
		C41.6,150.8,41.7,150.9,41.8,150.9z M67.5,150.4H42.1v-19h25.3V150.4z"/>
	<path class="st2" d="M55.8,81.2h-2v-6.4c0-0.5,1-1.4,1-1.4s1,0.9,1,1.4L55.8,81.2z"/>
	<path class="st3" d="M53.8,81.5h2c0.2,0,0.3-0.1,0.3-0.3v-6.4c0-0.6-0.9-1.5-1.1-1.6c-0.1-0.1-0.3-0.1-0.4,0
		c-0.2,0.2-1.1,1-1.1,1.6v6.4C53.5,81.4,53.6,81.5,53.8,81.5z M55.5,80.9h-1.4v-6.1c0.1-0.4,0.4-0.8,0.7-1c0.3,0.3,0.6,0.6,0.7,1
		V80.9z"/>
	<rect x="10.3" y="132.1" class="st1" width="31.5" height="2.7"/>
	<path class="st3" d="M10.3,135h31.5c0.1,0,0.1,0,0.2-0.1c0.1,0,0.1-0.1,0.1-0.2v-2.7c0-0.1,0-0.1-0.1-0.2c-0.1-0.1-0.1-0.1-0.2-0.1
		H10.3c-0.1,0-0.1,0-0.2,0.1c0,0.1-0.1,0.1-0.1,0.2v2.7C10,134.9,10.2,135,10.3,135z M41.6,134.5h-31v-2.1h31V134.5z"/>
	<rect x="10.3" y="134.8" class="st1" width="31.5" height="15.9"/>
	<path class="st3" d="M10.3,150.9h31.5c0.1,0,0.1,0,0.2-0.1c0.1,0,0.1-0.1,0.1-0.2v-15.8c0-0.1,0-0.1-0.1-0.2
		c-0.1-0.1-0.1-0.1-0.2-0.1H10.3c-0.1,0-0.1,0-0.2,0.1c0,0.1-0.1,0.1-0.1,0.2v15.8C10,150.8,10.2,150.9,10.3,150.9z M41.6,150.4h-31
		V135h31V150.4z"/>
	<path class="st2" d="M40.9,132.4c-0.1,0-0.1,0-0.2-0.1c-0.1-0.1-0.1-0.1-0.1-0.2v-31.4c0-0.1,0-0.2,0.1-0.3c0.1-0.1,0.2-0.1,0.3,0
		c0.1,0.1,0.1,0.2,0.1,0.3v31.4c0,0.1,0,0.1-0.1,0.2C41.1,132.4,41,132.4,40.9,132.4z"/>
	<path class="st2" d="M190.7,132.1v-15.7c-18.7-3.1-37.4-26-37.4-26l1,4.5c0,0,19,21.6,36.4,23.6"/>
	<path class="st3" d="M190.4,132.1c0,0.2,0.1,0.3,0.3,0.3c0.1,0,0.2,0,0.2-0.1c0.1-0.1,0.1-0.1,0.1-0.2v-13.6v-2.1
		c0-0.1-0.1-0.3-0.2-0.3c-18.2-3-36.6-25.3-37.2-25.9c0,0,0,0,0,0c-0.1-0.1-0.2-0.1-0.4-0.1c-0.1,0.1-0.2,0.2-0.2,0.3l1,4.5
		c0,0,0,0.1,0.1,0.1c0.2,0.2,19.1,21.5,36.3,23.7V132.1z M190.4,118.2c-16.5-2.1-34.7-22.2-35.8-23.4l-0.7-3.3
		c3.7,4.3,20.2,22.3,36.5,25.2V118.2z"/>
	<path class="st2" d="M185,132.4c-0.1,0-0.1,0-0.2-0.1c-0.1-0.1-0.1-0.1-0.1-0.2v-14.9c0-0.1,0.1-0.2,0.3-0.2s0.2,0.1,0.3,0.2v14.9
		c0,0.1,0,0.1-0.1,0.2C185.2,132.4,185.1,132.4,185,132.4z"/>
	<path class="st2" d="M179,132.4c-0.1,0-0.1,0-0.2-0.1c0-0.1-0.1-0.1-0.1-0.2v-17.4c0-0.1,0.1-0.2,0.3-0.2s0.2,0.1,0.3,0.2v17.4
		c0,0.1,0,0.2-0.1,0.2C179.1,132.4,179.1,132.4,179,132.4z"/>
	<path class="st2" d="M172.7,132.4c-0.1,0-0.1,0-0.2-0.1c0-0.1-0.1-0.1-0.1-0.2V111c0-0.1,0.1-0.3,0.3-0.3c0.1,0,0.3,0.1,0.3,0.3
		v21.1c0,0.1,0,0.1-0.1,0.2C172.8,132.4,172.7,132.4,172.7,132.4z"/>
	<path class="st2" d="M166.4,132.4c-0.1,0-0.1,0-0.2-0.1c-0.1-0.1-0.1-0.1-0.1-0.2v-25.8c0-0.1,0.1-0.2,0.3-0.2s0.2,0.1,0.3,0.2
		v25.8c0,0.1,0,0.1-0.1,0.2C166.5,132.4,166.4,132.4,166.4,132.4z"/>
	<path class="st2" d="M146.2,53.3c-0.1,0-0.3-0.1-0.3-0.3v-5.3c0-0.1,0.1-0.3,0.3-0.3c0.1,0,0.3,0.1,0.3,0.3V53
		C146.5,53.2,146.4,53.3,146.2,53.3z"/>
	<path class="st2" d="M147,54.4h-1.5L139,81.2h14.5L147,54.4z"/>
	<path class="st3" d="M139,81.5h14.5c0.1,0,0.2,0,0.2-0.1c0.1-0.1,0.1-0.2,0.1-0.2l-6.5-26.8c0-0.1-0.1-0.2-0.3-0.2h-1.5
		c-0.1,0-0.3,0.1-0.3,0.2l-6.5,26.8c0,0.1,0,0.2,0.1,0.2C138.8,81.5,138.9,81.5,139,81.5z M153.1,80.9h-13.7l6.3-26.2h1L153.1,80.9z
		"/>
	<rect x="145.5" y="52.4" class="st2" width="1.5" height="2"/>
	<path class="st3" d="M145.5,54.7h1.5c0.2,0,0.3-0.1,0.3-0.3v-2c0-0.2-0.1-0.3-0.3-0.3h-1.5c-0.2,0-0.3,0.1-0.3,0.3v2
		C145.2,54.6,145.3,54.7,145.5,54.7z M146.7,54.1h-0.9v-1.4h0.9V54.1z"/>
	<path class="st4" d="M143.1,80.3V74l3.2-5.3l3.2,5.3v6.3h3v50.8H140V80.3H143.1z"/>
	<path class="st3" d="M140,131.4h12.4c0.1,0,0.3-0.1,0.3-0.3V80.3c0-0.1,0-0.1-0.1-0.2c-0.1,0-0.1-0.1-0.2-0.1h-2.8V74
		c0,0,0-0.1,0-0.1l-3.2-5.3c-0.1-0.1-0.1-0.1-0.2-0.1c-0.1,0-0.2,0-0.2,0.1l-3.2,5.3c0,0,0,0.1,0,0.1v6.1H140
		c-0.1,0-0.3,0.1-0.3,0.3v50.8C139.8,131.3,139.9,131.4,140,131.4z M152.1,130.8h-11.9V80.6h2.8c0.1,0,0.3-0.1,0.3-0.3v-6.3l2.9-4.9
		l2.9,4.9v6.3c0,0.1,0.1,0.3,0.3,0.3h2.8V130.8z"/>
	<path class="st2" d="M152.4,85.3H140c-0.1,0-0.2-0.1-0.2-0.3c0-0.1,0.1-0.2,0.2-0.3h12.4c0.1,0,0.2,0,0.3,0.1
		c0.1,0.1,0.1,0.2,0,0.3C152.6,85.2,152.5,85.3,152.4,85.3z"/>
	<path class="st2" d="M148.4,94.9h2v-6.4c0-0.5-1-1.4-1-1.4s-1,0.9-1,1.4V94.9z"/>
	<path class="st2" d="M145.2,94.9h2v-6.4c0-0.5-1-1.4-1-1.4s-1,0.9-1,1.4L145.2,94.9z"/>
	<path class="st2" d="M142.1,94.9h2v-6.4c0-0.5-1-1.4-1-1.4s-1,0.9-1,1.4V94.9z"/>
	<path class="st2" d="M148.4,106.9h2v-6.4c0-0.5-1-1.4-1-1.4s-1,0.9-1,1.4V106.9z"/>
	<path class="st2" d="M145.2,106.9h2v-6.4c0-0.5-1-1.4-1-1.4s-1,0.9-1,1.4L145.2,106.9z"/>
	<path class="st2" d="M142.1,106.9h2v-6.4c0-0.5-1-1.4-1-1.4s-1,0.9-1,1.4V106.9z"/>
	<path class="st2" d="M148.4,118.8h2v-6.4c0-0.5-1-1.4-1-1.4s-1,0.9-1,1.4V118.8z"/>
	<path class="st2" d="M145.2,118.8h2v-6.4c0-0.5-1-1.4-1-1.4s-1,0.9-1,1.4L145.2,118.8z"/>
	<path class="st2" d="M142.1,118.8h2v-6.4c0-0.5-1-1.4-1-1.4s-1,0.9-1,1.4V118.8z"/>
	<path class="st2" d="M151.5,97.5H141c-0.1,0-0.3-0.1-0.3-0.3c0-0.1,0.1-0.3,0.3-0.3h10.5c0.1,0,0.3,0.1,0.3,0.3
		C151.8,97.4,151.6,97.5,151.5,97.5z"/>
	<path class="st2" d="M151.5,109.6H141c-0.1,0-0.2,0-0.3-0.1c-0.1-0.1-0.1-0.2,0-0.3c0.1-0.1,0.2-0.1,0.3-0.1h10.5
		c0.1,0,0.2,0,0.3,0.1c0.1,0.1,0.1,0.2,0,0.3C151.7,109.6,151.6,109.6,151.5,109.6z"/>
	<path class="st2" d="M152,122.3h-11.5c-0.1,0-0.3-0.1-0.3-0.3c0-0.1,0.1-0.3,0.3-0.3H152c0.1,0,0.3,0.1,0.3,0.3
		C152.2,122.2,152.1,122.3,152,122.3z"/>
	<path class="st2" d="M154.5,60.6l-3,11.3h5.9L154.5,60.6z"/>
	<path class="st3" d="M151.5,72.2h5.9c0.1,0,0.2-0.1,0.2-0.1c0.1-0.1,0.1-0.2,0-0.3l-2.9-11.3c0-0.1-0.2-0.2-0.3-0.2
		s-0.3,0.1-0.3,0.2l-3,11.3c0,0.1,0,0.2,0.1,0.3C151.3,72.2,151.4,72.2,151.5,72.2z M157,71.7h-5.1l2.6-9.9L157,71.7z"/>
	<path class="st4" d="M156.4,71.9l-0.1,18.9l-1.1,3v37.3h-3.6V93.4l0.9-2V71.9H156.4z"/>
	<path class="st3" d="M151.5,131.4h3.6c0.1,0,0.3-0.1,0.3-0.3V93.8l1.1-3c0,0,0-0.1,0-0.1l0.1-18.9c0-0.1,0-0.1-0.1-0.2
		c-0.1,0-0.1-0.1-0.2-0.1h-4c-0.1,0-0.3,0.1-0.3,0.3v19.5l-0.9,1.9c0,0,0,0.1,0,0.1v37.7C151.2,131.3,151.3,131.4,151.5,131.4z
		 M154.8,130.8h-3.1l0-37.4l0.9-1.9c0,0,0-0.1,0-0.1V72.2h3.4L156,90.7l-1.1,3c0,0,0,0.1,0,0.1V130.8z"/>
	<path class="st2" d="M156.3,84.4h-3.9c-0.1,0-0.2,0-0.3-0.1c-0.1-0.1-0.1-0.2,0-0.3c0.1-0.1,0.2-0.1,0.3-0.1h3.9
		c0.1,0,0.2,0,0.3,0.1c0.1,0.1,0.1,0.2,0,0.3C156.5,84.4,156.4,84.5,156.3,84.4z"/>
	<path class="st2" d="M155.1,94.1h-3.6c-0.1,0-0.2,0-0.3-0.1c-0.1-0.1-0.1-0.2,0-0.3c0.1-0.1,0.2-0.1,0.3-0.1h3.6
		c0.1,0,0.2,0,0.3,0.1c0.1,0.1,0.1,0.2,0,0.3C155.3,94,155.2,94.1,155.1,94.1z"/>
	<path class="st2" d="M138,60.6l3,11.3H135L138,60.6z"/>
	<path class="st3" d="M134.8,72.1c0.1,0.1,0.1,0.1,0.2,0.1h5.9c0.1,0,0.2,0,0.2-0.1c0.1-0.1,0.1-0.2,0.1-0.3l-3-11.3
		c0-0.1-0.2-0.2-0.3-0.2c-0.1,0-0.3,0.1-0.3,0.2l-3,11.3C134.7,72,134.7,72,134.8,72.1z M138,61.8l2.6,9.9h-5.2L138,61.8z"/>
	<path class="st4" d="M136.1,71.9l0.1,18.9l1.1,3v37.3h3.6V93.4l-0.9-2V71.9H136.1z"/>
	<path class="st3" d="M137.3,131.4h3.6c0.1,0,0.3-0.1,0.3-0.3V93.4c0,0,0-0.1,0-0.1l-0.9-1.9V71.9c0-0.1-0.1-0.3-0.3-0.3h-4
		c-0.1,0-0.1,0-0.2,0.1c-0.1,0.1-0.1,0.1-0.1,0.2l0.1,18.9c0,0,0,0.1,0,0.1l1.1,3v37.3C137.1,131.3,137.2,131.4,137.3,131.4z
		 M140.7,130.8h-3.1l0-37.1c0,0,0-0.1,0-0.1l-1.1-3l-0.1-18.5h3.5v19.2c0,0,0,0.1,0,0.1l0.9,1.9V130.8z"/>
	<path class="st2" d="M140.1,84.4h-3.9c-0.1,0-0.2,0-0.3-0.1c-0.1-0.1-0.1-0.2,0-0.3c0.1-0.1,0.2-0.1,0.3-0.1h3.9
		c0.1,0,0.2,0,0.3,0.1c0.1,0.1,0.1,0.2,0,0.3C140.3,84.4,140.2,84.5,140.1,84.4z"/>
	<path class="st2" d="M141,94.1h-3.6c-0.1,0-0.2,0-0.3-0.1c-0.1-0.1-0.1-0.2,0-0.3c0.1-0.1,0.2-0.1,0.3-0.1h3.6c0.1,0,0.2,0,0.3,0.1
		c0.1,0.1,0.1,0.2,0,0.3C141.2,94,141.1,94.1,141,94.1z"/>
	<path class="st2" d="M154.5,61.3c-0.1,0-0.3-0.1-0.3-0.3v-2.6c0-0.1,0.1-0.3,0.3-0.3c0.1,0,0.3,0.1,0.3,0.3v2.6
		c0,0.1,0,0.1-0.1,0.2C154.6,61.3,154.5,61.3,154.5,61.3z"/>
	<path class="st2" d="M138,61.3c-0.1,0-0.1,0-0.2-0.1c-0.1-0.1-0.1-0.1-0.1-0.2v-2.6c0-0.1,0-0.2,0.1-0.3c0.1-0.1,0.2-0.1,0.3,0
		c0.1,0.1,0.1,0.2,0.1,0.3v2.6C138.2,61.2,138.1,61.3,138,61.3z"/>
	<rect x="133.3" y="131.1" class="st4" width="25.9" height="19.5"/>
	<path class="st3" d="M133.3,150.9h25.9c0.1,0,0.3-0.1,0.3-0.2v-19.5c0-0.1-0.1-0.3-0.3-0.3h-25.9c-0.1,0-0.3,0.1-0.3,0.3v19.5
		C133,150.8,133.1,150.9,133.3,150.9z M158.9,150.4h-25.3v-19h25.3V150.4z"/>
	<path class="st2" d="M145.2,81.2h2v-6.4c0-0.5-1-1.4-1-1.4s-1,0.9-1,1.4L145.2,81.2z"/>
	<rect x="159.2" y="132.1" class="st1" width="31.5" height="2.7"/>
	<path class="st3" d="M159.1,135h31.5c0.1,0,0.3-0.1,0.3-0.3v-2.7c0-0.1-0.1-0.3-0.3-0.3h-31.5c-0.1,0-0.1,0-0.2,0.1
		c-0.1,0.1-0.1,0.1-0.1,0.2v2.7c0,0.1,0,0.1,0.1,0.2C159,135,159.1,135,159.1,135z M190.4,134.5h-31v-2.1h31V134.5z"/>
	<rect x="159.2" y="134.8" class="st1" width="31.5" height="15.9"/>
	<path class="st3" d="M159.1,150.9h31.5c0.1,0,0.3-0.1,0.3-0.3v-15.8c0-0.1,0-0.1-0.1-0.2c-0.1-0.1-0.1-0.1-0.2-0.1h-31.5
		c-0.1,0-0.1,0-0.2,0.1c-0.1,0.1-0.1,0.1-0.1,0.2v15.8c0,0.1,0,0.1,0.1,0.2C159,150.9,159.1,150.9,159.1,150.9z M190.4,150.4h-31
		V135h31V150.4z"/>
	<path class="st2" d="M160.1,132.4c-0.1,0-0.1,0-0.2-0.1c0-0.1-0.1-0.1-0.1-0.2v-31.4c0-0.1,0-0.2,0.1-0.3c0.1-0.1,0.2-0.1,0.3,0
		c0.1,0.1,0.1,0.2,0.1,0.3v31.4c0,0.1,0,0.1-0.1,0.2C160.2,132.4,160.1,132.4,160.1,132.4z"/>
	<path class="st5" d="M74.3,151.5c-0.2,0-0.3-0.1-0.3-0.3c0-0.1,0-0.2,0.1-0.2c0.1-0.1,0.1-0.1,0.2-0.1c3.1-0.1,6-1.5,7.9-3.9
		c0.1-0.1,0.1-0.1,0.2-0.1c0.1,0,0.2,0,0.2,0.1c1.5,1.5,3.4,2.5,5.5,2.9c2.1,0.3,4.2-0.5,5.6-2c0.1-0.1,0.3-0.1,0.4-0.1
		c3.4,2.3,7.9,1.5,10.4-1.8c0.1-0.1,0.1-0.1,0.2-0.1c0.1,0,0.2,0,0.2,0.1c2.4,3.4,7.8,4.4,11.2,1.9c0.1-0.1,0.3-0.1,0.4,0.1
		c0.9,1,2.2,1.6,3.6,1.6c1.4,0.1,2.7-0.4,3.6-1.4c0.1-0.1,0.2-0.1,0.3-0.1c0.1,0,0.2,0.1,0.2,0.1c0.4,0.6,1,1,1.7,1.2
		c0.7,0.1,1.4,0,2-0.4c0.1-0.1,0.3-0.1,0.4,0.1c0,0.1,0.1,0.1,0.1,0.2c0,0.1-0.1,0.1-0.1,0.2c-0.7,0.5-1.6,0.7-2.5,0.5
		c-0.7-0.1-1.4-0.5-1.9-1.1c-2.2,1.9-5.5,1.8-7.6-0.3c-3.6,2.3-8.9,1.4-11.6-1.9c-2.7,3.2-7.3,3.9-10.8,1.7
		c-1.5,1.6-3.7,2.4-5.9,2.1c-2.1-0.3-4.1-1.3-5.6-2.8C80.4,150,77.4,151.4,74.3,151.5L74.3,151.5z"/>
	<path class="st5" d="M115.8,154.1c-1.1,0-2.2-0.4-3.1-1.2c-2.5,1.8-5.9,1.4-7.9-1c-2.2,1.5-4.9,2.1-7.5,1.7c-0.1,0-0.2-0.1-0.2-0.2
		c0-0.1,0-0.2,0-0.3c0.1-0.1,0.2-0.1,0.3-0.1c2.6,0.4,5.2-0.3,7.3-1.8c0.1,0,0.1-0.1,0.2-0.1c0.1,0,0.1,0.1,0.2,0.1
		c0.9,1.1,2.1,1.8,3.5,2c1.4,0.2,2.8-0.2,3.9-1.1c0.1-0.1,0.1-0.1,0.2-0.1c0.1,0,0.1,0,0.2,0.1c0.8,0.9,2,1.3,3.2,1.2
		c1.2-0.2,2.5-0.6,3.6-1.2c0.1,0,0.2,0,0.2,0c0.1,0,0.1,0.1,0.2,0.2c0.1,0.1,0,0.3-0.1,0.4c-1.2,0.6-2.5,1-3.8,1.2
		C116.1,154,115.9,154.1,115.8,154.1z"/>
	<path class="st5" d="M81.6,154.6c-0.1,0-0.3-0.1-0.3-0.3c0-0.2,0.1-0.3,0.2-0.3c1.2-0.2,2.3-0.8,3.1-1.7c0.1-0.1,0.1-0.1,0.2-0.1
		c0.1,0,0.2,0,0.2,0.1c0.6,0.6,1.4,1,2.3,1.1c0.8,0.1,1.7-0.3,2.1-1c0.1-0.1,0.1-0.1,0.2-0.1c0.1,0,0.2,0.1,0.2,0.1
		c0.6,0.8,1.6,1.1,2.5,0.7c0.1,0,0.2,0,0.3,0c0.1,0.1,0.1,0.2,0.1,0.3c0,0.1-0.1,0.2-0.2,0.2c-1,0.4-2.2,0.1-3-0.6
		c-0.6,0.7-1.5,1-2.4,0.9c-0.9-0.1-1.7-0.5-2.4-1.1C84,153.8,82.9,154.4,81.6,154.6L81.6,154.6z"/>
</g>
</svg>
